<?xml version="1.0" encoding="utf-8"?>
<!-- Generator: Adobe Illustrator 23.1.1, SVG Export Plug-In . SVG Version: 6.00 Build 0)  -->
<svg version="1.1" id="Layer_1" xmlns="http://www.w3.org/2000/svg" xmlns:xlink="http://www.w3.org/1999/xlink" x="0px" y="0px"
	 viewBox="0 0 278 360.6" style="enable-background:new 0 0 278 360.6;" xml:space="preserve">
<style type="text/css">
	.st0{fill:#FFFFFF;}
	.st1{fill:none;stroke:#CDD2C8;stroke-width:3;}
	.st2{clip-path:url(#SVGID_2_);}
	.st3{fill:#A49FB1;}
	.st4{fill:#44BC8F;}
	.st5{fill:#575265;}
	.st6{fill:#938B9B;}
	.st7{fill:#CCD1C7;}
	.st8{fill:none;stroke:#FFFFFF;stroke-width:4;}
	.st9{fill:#4F534A;}
	.st10{fill:#ACB2A6;}
	.st11{fill:#575169;}
</style>
<title>CHART</title>
<g>
	<g id="Layer_1-2">
		<g id="CHART">
			<g id="Group_137">
				<g id="Rectangle_101">
					<rect class="st0" width="278" height="360.6"/>
					<rect x="1.5" y="1.5" class="st1" width="275" height="357.6"/>
				</g>
				<g>
					<g>
						<defs>
							<rect id="SVGID_1_" x="20" y="309.6" width="125" height="25"/>
						</defs>
						<clipPath id="SVGID_2_">
							<use xlink:href="#SVGID_1_"  style="overflow:visible;"/>
						</clipPath>
						<g class="st2">
							<g id="Component_53">
								<g id="Updated_by_Mick_Jagger_4_minutes_ago">
									<g>
										<path class="st3" d="M26.5,311.5l-0.8,4.8c-0.1,0.7-0.4,1.4-1,1.8c-0.6,0.5-1.3,0.7-2,0.7c-0.6,0-1.2-0.2-1.7-0.6
											c-0.4-0.4-0.6-1-0.6-1.6v-0.2l0.8-4.8h1.2l-0.8,4.8c-0.1,0.4,0,0.7,0.2,1.1c0.2,0.3,0.5,0.4,0.9,0.4s0.8-0.1,1.1-0.4
											c0.3-0.3,0.5-0.7,0.6-1.1l0.8-4.8L26.5,311.5L26.5,311.5z"/>
										<path class="st3" d="M31.4,316c-0.1,0.5-0.2,1-0.4,1.4c-0.2,0.4-0.5,0.7-0.8,1c-0.3,0.2-0.7,0.3-1.1,0.3
											c-0.5,0-1-0.2-1.3-0.6l-0.5,2.5h-1.2l1.3-7.3h1.1l-0.1,0.5c0.4-0.4,0.9-0.7,1.5-0.6c0.6,0,1.2,0.4,1.4,1
											c0.1,0.3,0.2,0.7,0.2,1.1C31.4,315.5,31.4,315.7,31.4,316z M30.2,315.9v-0.4c0-0.3,0-0.7-0.2-1c-0.1-0.2-0.4-0.4-0.7-0.4
											c-0.5,0-0.9,0.2-1.1,0.6l-0.4,2.4c0.1,0.4,0.5,0.6,0.9,0.6s0.8-0.1,1-0.5C30,316.9,30.2,316.4,30.2,315.9L30.2,315.9z"/>
										<path class="st3" d="M32.2,315.9c0.1-0.5,0.2-1,0.4-1.5c0.2-0.4,0.5-0.7,0.8-1c0.3-0.2,0.7-0.3,1.1-0.3
											c0.5,0,1,0.2,1.3,0.6l0.5-2.7h1.2l-1.3,7.5h-1l0.1-0.5c-0.4,0.4-0.9,0.7-1.4,0.6c-0.5,0-0.9-0.2-1.2-0.6s-0.5-0.9-0.5-1.5
											C32.2,316.4,32.2,316.2,32.2,315.9L32.2,315.9z M33.3,316.4c0,0.3,0,0.7,0.2,1c0.1,0.2,0.4,0.4,0.7,0.4
											c0.5,0,0.9-0.2,1.2-0.6l0.4-2.3c-0.1-0.4-0.5-0.6-0.9-0.6s-0.8,0.2-1.1,0.6C33.5,315.3,33.3,315.8,33.3,316.4z"/>
										<path class="st3" d="M40.6,318.6c0-0.2,0-0.3,0-0.5c-0.4,0.4-0.9,0.6-1.4,0.6c-0.4,0-0.8-0.2-1.1-0.4
											c-0.3-0.3-0.5-0.7-0.4-1.1c0-0.5,0.3-1,0.7-1.3c0.5-0.3,1.2-0.5,1.8-0.5H41V315c0-0.1,0-0.2,0-0.4
											c-0.1-0.3-0.4-0.6-0.7-0.5c-0.2,0-0.5,0-0.7,0.2c-0.2,0.1-0.3,0.3-0.3,0.5h-1.2c0-0.3,0.1-0.6,0.3-0.9s0.5-0.5,0.8-0.6
											c0.4-0.1,0.7-0.2,1.1-0.2c0.5,0,1,0.2,1.3,0.5s0.5,0.8,0.4,1.3l-0.4,2.5v0.4c0,0.2,0,0.4,0.1,0.6v0.1L40.6,318.6z
											 M39.4,317.7c0.2,0,0.5,0,0.7-0.2c0.2-0.1,0.4-0.3,0.5-0.5l0.2-1h-0.5c-0.4,0-0.7,0.1-1,0.2c-0.2,0.1-0.4,0.4-0.4,0.7
											c0,0.2,0,0.4,0.1,0.5C39.1,317.7,39.2,317.7,39.4,317.7z"/>
										<path class="st3" d="M45.4,312l-0.2,1.3H46l-0.2,0.9H45l-0.5,3c0,0.1,0,0.1,0,0.2c0,0.2,0.1,0.3,0.4,0.3
											c0.1,0,0.3,0,0.4,0l-0.1,0.9c-0.2,0.1-0.5,0.1-0.7,0.1c-0.3,0-0.7-0.1-0.9-0.4s-0.3-0.7-0.2-1.1l0.5-3H43l0.2-0.9H44
											l0.2-1.3H45.4z"/>
										<path class="st3" d="M48.5,318.7c-0.4,0-0.8-0.1-1.2-0.4c-0.3-0.2-0.6-0.5-0.7-0.9c-0.2-0.4-0.2-0.8-0.2-1.3v-0.2
											c0-0.5,0.2-1,0.5-1.5c0.2-0.4,0.5-0.8,1-1c0.4-0.2,0.8-0.3,1.2-0.3c0.6,0,1.2,0.3,1.5,0.7c0.4,0.6,0.5,1.2,0.4,1.9
											l-0.1,0.5h-3.3c0,0.4,0,0.7,0.2,1s0.5,0.4,0.8,0.4c0.5,0,1-0.2,1.4-0.6l0.6,0.6c-0.2,0.3-0.5,0.6-0.9,0.7
											C49.3,318.6,48.9,318.7,48.5,318.7z M48.9,314.2c-0.6,0-1.1,0.4-1.4,1.3h2.2v-0.1c0-0.1,0-0.3,0-0.4
											c0-0.2-0.1-0.4-0.3-0.5C49.3,314.2,49.1,314.2,48.9,314.2z"/>
										<path class="st3" d="M51.6,315.9c0.1-0.5,0.2-1,0.4-1.5c0.2-0.4,0.5-0.7,0.8-1c0.3-0.2,0.7-0.3,1.2-0.3s1,0.2,1.3,0.6
											l0.5-2.7H57l-1.3,7.5h-1l0.1-0.5c-0.4,0.4-0.9,0.7-1.4,0.6c-0.5,0-0.9-0.2-1.2-0.6s-0.5-0.9-0.5-1.5
											C51.7,316.3,51.7,316.1,51.6,315.9L51.6,315.9z M52.7,316.4c0,0.3,0,0.7,0.2,1c0.1,0.2,0.4,0.4,0.7,0.4
											c0.5,0,0.9-0.3,1.2-0.6l0.4-2.3c-0.1-0.4-0.5-0.6-0.9-0.6s-0.8,0.2-1.1,0.6C52.8,315.3,52.7,315.8,52.7,316.4z"/>
										<path class="st3" d="M64.2,316c-0.1,0.5-0.2,1-0.4,1.5c-0.2,0.4-0.5,0.8-0.8,1s-0.7,0.3-1.1,0.3c-0.5,0-1-0.2-1.3-0.7
											l-0.2,0.6h-1.1l1.3-7.5h1.2l-0.5,2.7c0.4-0.4,0.9-0.6,1.4-0.6s0.9,0.2,1.2,0.6c0.3,0.4,0.5,0.9,0.5,1.5
											C64.3,315.5,64.3,315.8,64.2,316z M63.1,315.4c0-0.3-0.1-0.6-0.2-0.8c-0.1-0.2-0.4-0.3-0.6-0.3c-0.5,0-0.9,0.2-1.2,0.7
											l-0.4,2.1c0.1,0.4,0.5,0.7,0.9,0.7s0.8-0.1,1-0.5c0.3-0.4,0.4-0.8,0.4-1.2C63.1,315.7,63.1,315.5,63.1,315.4L63.1,315.4z"
											/>
										<path class="st3" d="M66.8,316.9l1.7-3.6h1.3l-3.1,6.2c-0.3,0.7-0.9,1.2-1.7,1.2c-0.2,0-0.4,0-0.6-0.1l0.1-0.9h0.2
											c0.2,0,0.5,0,0.7-0.2c0.2-0.1,0.4-0.3,0.5-0.5l0.3-0.5l-0.9-5.2h1.2L66.8,316.9z"/>
									</g>
									<g>
										<path class="st4" d="M74.9,311.5l1,5.4l2.9-5.4h1.6l-1.2,7.1H78l0.4-2.4l0.6-3l-2.9,5.4h-0.9l-1.1-5.5l-0.4,3.2l-0.4,2.3
											h-1.2l1.2-7.1H74.9z"/>
										<path class="st4" d="M81.8,318.6h-1.2l0.9-5.3h1.2L81.8,318.6z M81.7,312c0-0.2,0.1-0.3,0.2-0.5c0.1-0.1,0.3-0.2,0.5-0.2
											s0.3,0.1,0.5,0.2c0.2,0.3,0.2,0.6,0,0.9c-0.1,0.1-0.3,0.2-0.5,0.2s-0.3,0-0.5-0.2C81.8,312.3,81.7,312.2,81.7,312z"/>
										<path class="st4" d="M85.4,317.8c0.3,0,0.5-0.1,0.7-0.2c0.2-0.2,0.4-0.4,0.4-0.6h1.1c0,0.4-0.2,0.7-0.4,1
											c-0.2,0.3-0.5,0.5-0.8,0.7s-0.7,0.2-1.1,0.2s-0.8-0.1-1.2-0.4c-0.3-0.2-0.6-0.6-0.7-1c-0.2-0.4-0.2-0.9-0.2-1.3V316
											c0.1-0.5,0.2-1,0.4-1.4c0.2-0.4,0.5-0.8,0.9-1s0.8-0.3,1.3-0.3s1,0.2,1.4,0.6s0.5,0.9,0.5,1.4h-1.1c0-0.3-0.1-0.5-0.2-0.8
											c-0.2-0.2-0.4-0.3-0.6-0.3c-0.4,0-0.9,0.2-1.1,0.6c-0.3,0.5-0.4,1.1-0.4,1.7C84.4,317.3,84.7,317.7,85.4,317.8z"/>
										<path class="st4" d="M90.3,316.3l-0.7,0.6l-0.3,1.7h-1.2l1.3-7.5h1.2l-0.7,4.3l0.4-0.4l1.7-1.6h1.5l-2.3,2.2l1.5,3h-1.3
											L90.3,316.3z"/>
										<path class="st4" d="M100,311.5h1.2l-0.8,5c-0.1,0.6-0.4,1.2-0.8,1.6c-0.5,0.4-1.1,0.6-1.7,0.6c-1,0.1-1.9-0.7-2-1.7
											c0-0.1,0-0.3,0-0.4H97c0,0.8,0.2,1.1,0.9,1.1c0.3,0,0.6-0.1,0.8-0.3c0.2-0.3,0.4-0.6,0.4-0.9L100,311.5z"/>
										<path class="st4" d="M104.3,318.6c0-0.2,0-0.3,0-0.5c-0.4,0.4-0.9,0.6-1.4,0.6c-0.4,0-0.8-0.2-1.1-0.4
											c-0.3-0.3-0.5-0.7-0.4-1.1c0-0.5,0.3-1,0.7-1.3c0.5-0.3,1.2-0.5,1.8-0.5h0.8l0.1-0.4c0-0.1,0-0.2,0-0.4
											c-0.1-0.3-0.4-0.6-0.7-0.5c-0.2,0-0.5,0-0.7,0.2c-0.2,0.1-0.3,0.3-0.3,0.5h-1.2c0-0.3,0.1-0.6,0.3-0.9
											c0.2-0.3,0.5-0.5,0.8-0.6c0.4-0.1,0.7-0.2,1.1-0.2c0.5,0,1,0.2,1.3,0.5s0.5,0.8,0.4,1.3l-0.4,2.5v0.4c0,0.2,0,0.4,0.1,0.6
											v0.1L104.3,318.6z M103.1,317.7c0.2,0,0.5,0,0.7-0.2c0.2-0.1,0.4-0.3,0.5-0.5l0.2-1H104c-0.3,0-0.7,0.1-1,0.2
											c-0.2,0.1-0.4,0.4-0.4,0.7c0,0.2,0,0.4,0.1,0.5C102.8,317.7,103,317.7,103.1,317.7z"/>
										<path class="st4" d="M106.8,315.9c0.1-0.5,0.2-1,0.4-1.4c0.2-0.4,0.5-0.7,0.8-1c0.3-0.2,0.7-0.3,1.2-0.3s1,0.2,1.3,0.6
											l0.2-0.5h1l-0.9,5.1c-0.1,0.6-0.4,1.2-0.9,1.6s-1.1,0.6-1.8,0.6c-0.3,0-0.7-0.1-1-0.2s-0.6-0.4-0.8-0.6l0.6-0.7
											c0.3,0.4,0.7,0.6,1.2,0.7c0.4,0,0.7-0.1,1-0.3c0.3-0.2,0.5-0.6,0.5-0.9l0.1-0.4c-0.4,0.4-0.9,0.6-1.4,0.6
											s-0.9-0.2-1.2-0.6c-0.3-0.4-0.5-1-0.5-1.5C106.7,316.4,106.7,316.2,106.8,315.9z M107.9,316c0,0.2,0,0.4,0,0.5
											c0,0.3,0.1,0.6,0.2,0.8c0.1,0.2,0.4,0.3,0.6,0.3c0.5,0,0.9-0.2,1.2-0.6l0.4-2.3c-0.1-0.4-0.5-0.6-0.9-0.6s-0.8,0.2-1,0.5
											c-0.3,0.4-0.5,0.8-0.5,1.3L107.9,316z"/>
										<path class="st4" d="M112.3,315.9c0.1-0.5,0.2-1,0.4-1.4c0.2-0.4,0.5-0.7,0.8-1c0.3-0.2,0.7-0.3,1.2-0.3s1,0.2,1.3,0.6
											l0.2-0.5h1l-0.9,5.1c-0.1,0.6-0.4,1.2-0.9,1.6s-1.1,0.6-1.8,0.6c-0.4,0-0.7-0.1-1.1-0.2c-0.3-0.2-0.6-0.4-0.8-0.6l0.6-0.7
											c0.3,0.4,0.7,0.6,1.2,0.7c0.4,0,0.7-0.1,1-0.3c0.3-0.2,0.5-0.6,0.6-0.9l0.1-0.4c-0.4,0.4-0.9,0.6-1.4,0.6
											s-0.9-0.2-1.2-0.6c-0.3-0.4-0.5-1-0.5-1.5C112.3,316.4,112.3,316.2,112.3,315.9z M113.5,316c0,0.2,0,0.4,0,0.5
											c0,0.3,0.1,0.6,0.2,0.8c0.1,0.2,0.4,0.3,0.6,0.3c0.5,0,0.9-0.2,1.2-0.6l0.4-2.3c-0.1-0.4-0.5-0.6-0.9-0.6s-0.8,0.2-1,0.5
											c-0.3,0.4-0.5,0.8-0.5,1.3L113.5,316z"/>
										<path class="st4" d="M120,318.7c-0.4,0-0.8-0.1-1.2-0.4c-0.3-0.2-0.6-0.5-0.8-0.9c-0.2-0.4-0.2-0.8-0.2-1.3v-0.2
											c0-0.5,0.2-1,0.5-1.5c0.2-0.4,0.6-0.8,1-1s0.8-0.3,1.2-0.3c0.6,0,1.1,0.3,1.4,0.8c0.3,0.6,0.5,1.2,0.4,1.9l-0.1,0.5H119
											c0,0.4,0,0.7,0.2,1s0.5,0.4,0.8,0.4c0.5,0,1-0.2,1.4-0.6l0.6,0.6c-0.2,0.3-0.5,0.6-0.9,0.7
											C120.8,318.6,120.4,318.7,120,318.7z M120.5,314.2c-0.6,0-1.1,0.4-1.4,1.3h2.2v-0.1c0-0.1,0-0.3,0-0.4
											c0-0.2-0.1-0.4-0.3-0.5C120.9,314.2,120.7,314.2,120.5,314.2L120.5,314.2z"/>
										<path class="st4" d="M126.3,314.4c-0.1,0-0.3,0-0.4,0c-0.5,0-0.9,0.2-1.2,0.6l-0.6,3.6h-1.2l0.9-5.3h1.1l-0.1,0.6
											c0.3-0.4,0.7-0.7,1.2-0.7c0.2,0,0.3,0,0.4,0.1L126.3,314.4z"/>
									</g>
									<g>
										<path class="st3" d="M24.7,329.9h0.8v1.1h-0.8v1.5h-1.4V331h-2.9l-0.1-0.9l3-4.7h1.4V329.9z M21.7,329.9h1.6v-2.5
											l-0.1,0.2L21.7,329.9z"/>
										<path class="st3" d="M30.1,327.3v0.6c0.4-0.5,0.9-0.7,1.5-0.7s1.1,0.3,1.4,0.8c0.4-0.5,1-0.8,1.6-0.8c0.5,0,1,0.1,1.3,0.5
											s0.5,1,0.4,1.5v3.4h-1.4v-3.4c0-0.2,0-0.5-0.2-0.7s-0.4-0.2-0.6-0.2c-0.4,0-0.8,0.2-0.9,0.6v3.6h-1.4v-3.4
											c0-0.2,0-0.5-0.2-0.7c-0.2-0.1-0.4-0.2-0.6-0.2c-0.4,0-0.7,0.2-0.9,0.5v3.7h-1.4v-5.3L30.1,327.3z"/>
										<path class="st3" d="M37.4,325.9c0-0.2,0.1-0.4,0.2-0.5c0.2-0.1,0.4-0.2,0.6-0.2c0.2,0,0.4,0.1,0.6,0.2
											c0.1,0.1,0.2,0.3,0.2,0.5s-0.1,0.4-0.2,0.5c-0.2,0.1-0.4,0.2-0.6,0.2c-0.2,0-0.4-0.1-0.6-0.2
											C37.5,326.3,37.4,326.1,37.4,325.9z M38.9,332.6h-1.4v-5.3h1.4V332.6z"/>
										<path class="st3" d="M41.4,327.3v0.6c0.4-0.5,0.9-0.7,1.5-0.7c0.5,0,0.9,0.1,1.2,0.5s0.5,1,0.4,1.5v3.4h-1.4v-3.4
											c0-0.2-0.1-0.5-0.2-0.6c-0.2-0.2-0.4-0.2-0.7-0.2c-0.4,0-0.7,0.2-0.9,0.5v3.7H40v-5.3H41.4z"/>
										<path class="st3" d="M48.8,332c-0.4,0.4-0.9,0.7-1.4,0.6c-0.5,0-1-0.1-1.3-0.5s-0.5-0.9-0.5-1.4v-3.5H47v3.4
											c0,0.5,0.2,0.8,0.8,0.8c0.4,0.1,0.8-0.1,1-0.5v-3.7h1.4v5.3h-1.3L48.8,332z"/>
										<path class="st3" d="M53,326v1.3h0.9v1H53v2.7c0,0.1,0,0.3,0.1,0.4s0.3,0.1,0.4,0.1c0.1,0,0.3,0,0.4,0v1.1
											c-0.3,0.1-0.6,0.1-0.8,0.1c-0.7,0.1-1.4-0.4-1.5-1.2c0-0.1,0-0.2,0-0.3v-2.9h-0.8v-1h0.8V326H53z"/>
										<path class="st3" d="M57.1,332.7c-0.7,0-1.4-0.2-1.9-0.7s-0.8-1.2-0.7-1.9V330c0-0.5,0.1-1,0.3-1.4s0.5-0.8,0.9-1
											s0.8-0.3,1.3-0.3c0.6,0,1.3,0.2,1.7,0.7s0.7,1.2,0.6,1.9v0.6h-3.4c0,0.3,0.2,0.6,0.4,0.8c0.2,0.2,0.6,0.3,0.9,0.3
											c0.5,0,1-0.2,1.3-0.6l0.7,0.8c-0.2,0.3-0.5,0.5-0.9,0.7C57.9,332.6,57.5,332.7,57.1,332.7z M56.9,328.4
											c-0.3,0-0.5,0.1-0.7,0.3c-0.2,0.2-0.3,0.5-0.3,0.8h2v-0.1c0-0.3-0.1-0.5-0.2-0.7C57.5,328.4,57.2,328.3,56.9,328.4z"/>
										<path class="st3" d="M62.9,331.1c0-0.2-0.1-0.3-0.3-0.4c-0.3-0.1-0.5-0.2-0.8-0.3c-1.3-0.3-1.9-0.8-1.9-1.6
											c0-0.5,0.2-0.9,0.6-1.2c0.4-0.3,1-0.5,1.5-0.5c0.6,0,1.1,0.1,1.6,0.5c0.4,0.3,0.6,0.7,0.6,1.2h-1.4c0-0.2-0.1-0.4-0.2-0.5
											c-0.3-0.2-0.8-0.2-1.2,0c-0.1,0.1-0.2,0.2-0.2,0.4c0,0.2,0.1,0.3,0.2,0.4c0.2,0.1,0.5,0.2,0.8,0.2
											c0.3,0.1,0.6,0.1,0.9,0.2c0.7,0.2,1.1,0.7,1.1,1.4c0,0.5-0.2,0.9-0.6,1.2c-0.5,0.3-1,0.5-1.6,0.5c-0.4,0-0.8-0.1-1.2-0.2
											c-0.3-0.1-0.6-0.4-0.8-0.6c-0.2-0.3-0.3-0.6-0.3-0.9H61c0,0.2,0.1,0.4,0.3,0.6c0.2,0.1,0.4,0.2,0.7,0.2
											c0.2,0,0.4,0,0.6-0.2C62.9,331.5,62.9,331.3,62.9,331.1z"/>
										<path class="st3" d="M70.8,332.6c-0.1-0.1-0.1-0.3-0.1-0.5c-0.3,0.4-0.8,0.6-1.3,0.6s-0.9-0.1-1.3-0.5
											c-0.3-0.3-0.5-0.7-0.5-1.1c0-0.5,0.2-1,0.6-1.3c0.5-0.3,1.2-0.5,1.8-0.5h0.7V329c0-0.2-0.1-0.4-0.2-0.6
											c-0.2-0.2-0.4-0.2-0.6-0.2s-0.4,0.1-0.6,0.2c-0.1,0.1-0.2,0.3-0.2,0.5h-1.4c0-0.3,0.1-0.6,0.3-0.9
											c0.2-0.3,0.5-0.5,0.8-0.6c0.4-0.2,0.8-0.2,1.2-0.2c0.6,0,1.1,0.1,1.6,0.5c0.4,0.3,0.6,0.9,0.6,1.4v2.3
											c0,0.4,0.1,0.8,0.2,1.1v0.1H70.8z M69.6,331.6c0.2,0,0.4,0,0.6-0.1s0.3-0.2,0.4-0.4v-0.9H70c-0.7,0-1.1,0.2-1.1,0.7v0.1
											c0,0.2,0.1,0.3,0.2,0.4C69.2,331.6,69.4,331.6,69.6,331.6L69.6,331.6z"/>
										<path class="st3" d="M72.8,329.9c0-0.7,0.2-1.4,0.6-2c0.4-0.5,1-0.8,1.6-0.7c0.5,0,1,0.2,1.3,0.6l0.1-0.5h1.3v5.1
											c0,0.4-0.1,0.8-0.3,1.2c-0.2,0.3-0.5,0.6-0.9,0.8c-0.4,0.2-0.9,0.3-1.3,0.3s-0.8-0.1-1.1-0.2c-0.3-0.1-0.6-0.3-0.8-0.6
											l0.6-0.9c0.3,0.4,0.8,0.6,1.3,0.6c0.3,0,0.6-0.1,0.9-0.3c0.2-0.2,0.3-0.5,0.3-0.9v-0.3c-0.3,0.4-0.8,0.6-1.3,0.5
											c-0.6,0-1.2-0.3-1.5-0.8C73,331.3,72.8,330.6,72.8,329.9L72.8,329.9z M74.3,330c0,0.4,0.1,0.8,0.3,1.1
											c0.2,0.3,0.5,0.4,0.8,0.4c0.4,0,0.7-0.2,0.9-0.5v-2.2c-0.2-0.3-0.5-0.5-0.9-0.5c-0.3,0-0.6,0.1-0.8,0.4
											C74.3,329.1,74.2,329.6,74.3,330L74.3,330z"/>
										<path class="st3" d="M78.5,329.9c0-0.5,0.1-1,0.3-1.4c0.2-0.4,0.5-0.7,0.9-1c0.4-0.2,0.9-0.4,1.3-0.3
											c0.6,0,1.3,0.2,1.7,0.6c0.5,0.5,0.7,1.1,0.8,1.8v0.4c0,0.7-0.2,1.4-0.7,2c-1,1-2.6,1-3.7,0
											C78.7,331.4,78.5,330.7,78.5,329.9L78.5,329.9z M80,330c0,0.4,0.1,0.8,0.3,1.1c0.2,0.3,0.5,0.4,0.8,0.4s0.6-0.1,0.8-0.4
											c0.2-0.4,0.3-0.8,0.3-1.3c0-0.4-0.1-0.8-0.3-1.1c-0.2-0.3-0.5-0.4-0.8-0.4s-0.6,0.1-0.8,0.4C80.1,329.1,80,329.6,80,330z"
											/>
									</g>
								</g>
							</g>
						</g>
					</g>
				</g>
			</g>
			<g id="Marketing_Analysis">
				<g>
					<path class="st5" d="M25.9,26.9v3.9h-9v-3.9H25.9z"/>
					<path class="st5" d="M33.7,26.9v3.9h-9v-3.9H33.7z"/>
					<path class="st5" d="M37.4,26.9v3.9h-4.9v-3.9H37.4z"/>
					<path class="st5" d="M45.2,26.9v3.9h-9v-3.9H45.2z"/>
					<path class="st5" d="M53,26.9v3.9h-9v-3.9H53z"/>
					<path class="st5" d="M56.7,26.9v3.9h-4.9v-3.9H56.7z"/>
					<path class="st5" d="M60.4,26.9v3.9h-4.9v-3.9H60.4z"/>
					<path class="st5" d="M68.2,26.9v3.9h-9v-3.9H68.2z"/>
					<path class="st5" d="M76,26.9v3.9h-9v-3.9H76z"/>
					<path class="st5" d="M91.6,26.9v3.9h-9v-3.9H91.6z"/>
					<path class="st5" d="M99.3,26.9v3.9h-9v-3.9H99.3z"/>
					<path class="st5" d="M107.1,26.9v3.9h-9v-3.9H107.1z"/>
					<path class="st5" d="M110.8,26.9v3.9H106v-3.9H110.8z"/>
					<path class="st5" d="M118.6,26.9v3.9h-8.9v-3.9H118.6z"/>
					<path class="st5" d="M126.4,26.9v3.9h-9v-3.9H126.4z"/>
					<path class="st5" d="M130.1,26.9v3.9h-4.9v-3.9H130.1z"/>
					<path class="st5" d="M137.9,26.9v3.9H129v-3.9H137.9z"/>
				</g>
			</g>
			<path id="ic_more_horiz_24px" class="st6" d="M256.3,33.9c0,1,0.8,1.7,1.7,1.7s1.7-0.8,1.7-1.7s-0.8-1.7-1.7-1.7l0,0
				C257,32.2,256.3,32.9,256.3,33.9z M256.3,23.5c0,1,0.8,1.7,1.7,1.7s1.7-0.8,1.7-1.7s-0.8-1.7-1.7-1.7l0,0l0,0
				C257,21.7,256.3,22.5,256.3,23.5z M256.3,28.7c0,1,0.8,1.7,1.7,1.7s1.7-0.8,1.7-1.7S258.9,27,258,27l0,0
				C257,26.9,256.3,27.7,256.3,28.7z"/>
			<g id="Ellipse_1">
				<circle class="st7" cx="139" cy="153.3" r="79.5"/>
				<circle class="st8" cx="139" cy="153.3" r="77.5"/>
			</g>
			<g id="Subtraction_1">
				<path class="st9" d="M141,230.8V75.9c4.6,0.1,9.1,0.6,13.6,1.6c5,1,9.9,2.5,14.5,4.5c18.6,7.9,33.4,22.7,41.2,41.2
					c2,4.7,3.5,9.6,4.5,14.6c2.1,10.3,2.1,20.9,0,31.2c-1,5-2.5,9.9-4.5,14.6C198.6,211.5,171.4,230.1,141,230.8z"/>
				<path class="st0" d="M143,228.7c3.8-0.2,7.5-0.7,11.2-1.4c9.7-2,18.8-5.8,27-11.4c4-2.7,7.7-5.8,11.2-9.2
					c29.5-29.5,29.5-77.2,0-106.7l0,0c-6.9-6.9-15-12.4-24-16.2c-4.6-1.9-9.3-3.4-14.2-4.4c-3.7-0.7-7.5-1.2-11.2-1.4V228.7
					 M139,232.8L139,232.8v-159c5.4,0,10.7,0.5,16,1.6c10.2,2.1,19.8,6.2,28.4,12c36.4,24.6,46,74,21.4,110.4
					c-8.6,12.8-20.7,22.7-34.9,28.7c-4.8,2-9.8,3.6-14.9,4.6C149.7,232.3,144.4,232.8,139,232.8z"/>
			</g>
			<g id="Subtraction_3">
				<path class="st10" d="M85.6,209.6l53.1-53l53.4,53.3c-18.2,17-43.4,24.3-67.8,19.6c-9.9-1.9-19.4-5.8-27.8-11.3
					C92.5,215.6,88.9,212.8,85.6,209.6z"/>
				<path class="st0" d="M88.5,209.6c2.8,2.5,5.8,4.8,8.9,6.9c8.2,5.4,17.4,9.2,27.1,11.1c23.1,4.5,47-2,64.6-17.7l-50.5-50.5
					L88.5,209.6 M82.7,209.7L82.7,209.7l55.9-55.9l56.2,56.2c-3.7,3.7-7.8,7-12.2,9.9s-9,5.3-13.8,7.3c-19.2,7.8-40.6,7.8-59.8,0
					C99.2,223.2,90.2,217.2,82.7,209.7L82.7,209.7z"/>
			</g>
			<g id="SOCIAL">
				<g>
					<path class="st11" d="M43.4,274.4v2.4h-5.5v-2.4H43.4z"/>
					<path class="st11" d="M48.2,274.4v2.4h-5.5v-2.4H48.2z"/>
					<path class="st11" d="M53,274.4v2.4h-5.5v-2.4H53z"/>
					<path class="st11" d="M55.2,274.4v2.4h-3v-2.4H55.2z"/>
					<path class="st11" d="M60,274.4v2.4h-5.5v-2.4H60z"/>
					<path class="st11" d="M62.3,274.4v2.4h-3v-2.4H62.3z"/>
				</g>
			</g>
			<rect id="Rectangle_132" x="17.4" y="271" class="st7" width="17.4" height="8.7"/>
			<g id="EMAIL">
				<g>
					<path class="st11" d="M126.8,274.4v2.4h-5.5v-2.4H126.8z"/>
					<path class="st11" d="M131.6,274.4v2.4h-5.5v-2.4H131.6z"/>
					<path class="st11" d="M136.4,274.4v2.4h-5.5v-2.4H136.4z"/>
					<path class="st11" d="M138.6,274.4v2.4h-3v-2.4H138.6z"/>
					<path class="st11" d="M140.9,274.4v2.4h-3v-2.4H140.9z"/>
				</g>
			</g>
			<rect id="Rectangle_133" x="100.8" y="271" class="st10" width="17.4" height="8.7"/>
			<g id="SEARCH_PAID">
				<g>
					<path class="st11" d="M210.2,274.4v2.4h-5.5v-2.4H210.2z"/>
					<path class="st11" d="M215,274.4v2.4h-5.5v-2.4H215z"/>
					<path class="st11" d="M219.8,274.4v2.4h-5.5v-2.4H219.8z"/>
					<path class="st11" d="M224.6,274.4v2.4H219v-2.4H224.6z"/>
					<path class="st11" d="M229.3,274.4v2.4h-5.5v-2.4H229.3z"/>
					<path class="st11" d="M234.1,274.4v2.4h-5.5v-2.4H234.1z"/>
					<path class="st11" d="M236.4,274.4v2.4h-3v-2.4H236.4z"/>
					<path class="st11" d="M241.2,274.4v2.4h-5.5v-2.4H241.2z"/>
					<path class="st11" d="M246,274.4v2.4h-5.5v-2.4H246z"/>
					<path class="st11" d="M248.3,274.4v2.4h-3v-2.4H248.3z"/>
					<path class="st11" d="M253.1,274.4v2.4h-5.5v-2.4H253.1z"/>
				</g>
			</g>
			<rect id="Rectangle_134" x="184.2" y="271" class="st9" width="17.4" height="8.7"/>
			<ellipse id="Ellipse_4" class="st0" cx="139" cy="152.9" rx="47.4" ry="47.8"/>
		</g>
	</g>
</g>
</svg>
