<svg xmlns="http://www.w3.org/2000/svg" xmlns:xlink="http://www.w3.org/1999/xlink" viewBox="0 0 278 468"><defs><style>.cls-1,.cls-4{fill:none;}.cls-2{opacity:1;}.cls-3{fill:#fff;}.cls-4{stroke:#cdd2c8;stroke-width:3px;}.cls-5{clip-path:url(#clip-path);}.cls-6{isolation:isolate;}.cls-7{fill:#a49fb1;}.cls-8{fill:#44bc8f;}.cls-9{fill:#575265;}.cls-10{fill:#938b9b;}</style><clipPath id="clip-path"><rect class="cls-1" x="20" y="417" width="125" height="25"/></clipPath></defs><title>MEDIUM</title><g id="Layer_2" data-name="Layer 2"><g id="Layer_1-2" data-name="Layer 1"><g id="MEDIUM" class="cls-2"><g id="Group_144" data-name="Group 144"><g id="Rectangle_136" data-name="Rectangle 136"><rect class="cls-3" width="278" height="468"/><rect class="cls-4" x="1.5" y="1.5" width="275" height="465"/></g><g class="cls-5"><g id="Component_52" data-name="Component 52"><g id="Updated_by_Mick_Jagger_4_minutes_ago" data-name="Updated by Mick Jagger 4 minutes ago" class="cls-6"><g class="cls-6"><path class="cls-7" d="M26.48,418.89l-.81,4.75a2.77,2.77,0,0,1-1,1.81,2.89,2.89,0,0,1-2,.66,2.33,2.33,0,0,1-1.68-.65,2,2,0,0,1-.56-1.63v-.18l.81-4.76h1.2l-.81,4.76a1.46,1.46,0,0,0,.2,1.06,1.11,1.11,0,0,0,.89.4,1.53,1.53,0,0,0,1.1-.36,1.76,1.76,0,0,0,.56-1.07l.82-4.79Z"/><path class="cls-7" d="M31.4,423.38a4.34,4.34,0,0,1-.43,1.43,2.44,2.44,0,0,1-.82,1,1.9,1.9,0,0,1-1.12.31,1.68,1.68,0,0,1-1.3-.58L27.26,428H26.09l1.27-7.31h1.06l-.09.55a1.86,1.86,0,0,1,1.45-.64,1.51,1.51,0,0,1,1.44,1,2.94,2.94,0,0,1,.21,1.06C31.43,422.87,31.42,423.1,31.4,423.38Zm-1.15-.1,0-.36a1.72,1.72,0,0,0-.21-1,.75.75,0,0,0-.67-.35,1.32,1.32,0,0,0-1.13.6l-.41,2.35a.91.91,0,0,0,.89.62,1.17,1.17,0,0,0,1-.45A2.75,2.75,0,0,0,30.25,423.28Z"/><path class="cls-7" d="M32.21,423.35a4.22,4.22,0,0,1,.44-1.46,2.47,2.47,0,0,1,.85-1,1.94,1.94,0,0,1,1.11-.31,1.59,1.59,0,0,1,1.26.6l.51-2.71h1.16l-1.3,7.5h-1l.07-.55a1.8,1.8,0,0,1-1.44.65,1.41,1.41,0,0,1-1.18-.57,2.47,2.47,0,0,1-.48-1.48,3.79,3.79,0,0,1,0-.59Zm1.12.46a1.72,1.72,0,0,0,.19,1,.76.76,0,0,0,.66.37,1.37,1.37,0,0,0,1.16-.65l.4-2.27a.9.9,0,0,0-.89-.63,1.18,1.18,0,0,0-1.07.58A3.19,3.19,0,0,0,33.33,423.81Z"/><path class="cls-7" d="M40.62,426a1.42,1.42,0,0,1,0-.49,2,2,0,0,1-1.41.59,1.66,1.66,0,0,1-1.14-.44,1.38,1.38,0,0,1-.42-1.1,1.58,1.58,0,0,1,.72-1.31,3.16,3.16,0,0,1,1.84-.48h.75l.07-.36a1.09,1.09,0,0,0,0-.36.64.64,0,0,0-.7-.54,1,1,0,0,0-.65.19.78.78,0,0,0-.35.53H38.12a1.47,1.47,0,0,1,.35-.86,2.1,2.1,0,0,1,.83-.58,2.9,2.9,0,0,1,1.1-.19,1.84,1.84,0,0,1,1.34.52,1.51,1.51,0,0,1,.4,1.3l-.4,2.47,0,.44a1.51,1.51,0,0,0,.07.56V426Zm-1.19-.85a1.25,1.25,0,0,0,.68-.17,1.8,1.8,0,0,0,.53-.46l.18-1h-.55a2,2,0,0,0-1.05.25.89.89,0,0,0-.44.68.57.57,0,0,0,.14.51A.72.72,0,0,0,39.43,425.15Z"/><path class="cls-7" d="M45.37,419.43l-.22,1.29h.9l-.15.88H45l-.5,2.95a.81.81,0,0,0,0,.22q0,.32.39.33a2.17,2.17,0,0,0,.41-.05l-.08.94a2.57,2.57,0,0,1-.73.1,1.05,1.05,0,0,1-.9-.41,1.51,1.51,0,0,1-.24-1.07l.49-3H43l.15-.88H44l.23-1.29Z"/><path class="cls-7" d="M48.45,426.1a2.26,2.26,0,0,1-1.2-.35,2,2,0,0,1-.74-.91,2.68,2.68,0,0,1-.19-1.28l0-.2a3.5,3.5,0,0,1,.47-1.45,2.6,2.6,0,0,1,.95-1,2.26,2.26,0,0,1,1.24-.32,1.73,1.73,0,0,1,1.49.74,2.66,2.66,0,0,1,.37,1.87l-.06.51H47.47a1.46,1.46,0,0,0,.25,1,1,1,0,0,0,.82.4,1.8,1.8,0,0,0,1.38-.65l.59.61a2.2,2.2,0,0,1-.88.74A2.71,2.71,0,0,1,48.45,426.1Zm.49-4.53c-.61,0-1.07.41-1.38,1.3h2.2l0-.1a1.62,1.62,0,0,0,0-.44,1,1,0,0,0-.27-.55A.9.9,0,0,0,48.94,421.57Z"/><path class="cls-7" d="M51.56,423.35a4.22,4.22,0,0,1,.44-1.46,2.47,2.47,0,0,1,.85-1,1.94,1.94,0,0,1,1.11-.31,1.59,1.59,0,0,1,1.26.6l.51-2.71h1.16l-1.3,7.5h-1l.07-.55a1.8,1.8,0,0,1-1.44.65,1.41,1.41,0,0,1-1.18-.57,2.47,2.47,0,0,1-.48-1.48,3.79,3.79,0,0,1,0-.59Zm1.13.46a1.64,1.64,0,0,0,.18,1,.76.76,0,0,0,.67.37,1.37,1.37,0,0,0,1.15-.65l.4-2.27a.89.89,0,0,0-.89-.63,1.18,1.18,0,0,0-1.07.58A3.1,3.1,0,0,0,52.69,423.81Z"/><path class="cls-7" d="M64.25,423.38a4.21,4.21,0,0,1-.43,1.46,2.27,2.27,0,0,1-.83,1,1.93,1.93,0,0,1-1.11.3,1.56,1.56,0,0,1-1.34-.68l-.18.58H59.3l1.3-7.5h1.16l-.53,2.73a1.8,1.8,0,0,1,1.4-.61,1.5,1.5,0,0,1,1.2.56,2.45,2.45,0,0,1,.46,1.49A6.71,6.71,0,0,1,64.25,423.38Zm-1.11-.65a1.34,1.34,0,0,0-.22-.83.75.75,0,0,0-.63-.31,1.36,1.36,0,0,0-1.19.67l-.38,2.19a.94.94,0,0,0,.93.69,1.14,1.14,0,0,0,1-.45,2.67,2.67,0,0,0,.49-1.31C63.12,423.1,63.14,422.88,63.14,422.73Z"/><path class="cls-7" d="M66.82,424.29l1.66-3.57h1.28l-3.13,6.19a1.91,1.91,0,0,1-1.72,1.24,2.88,2.88,0,0,1-.6-.1l.09-.92.21,0a1.18,1.18,0,0,0,.7-.16,1.32,1.32,0,0,0,.46-.54l.27-.54-.88-5.19h1.2Z"/></g><g class="cls-6"><path class="cls-8" d="M74.87,418.89l1,5.44,2.92-5.44h1.59L79.18,426H78l.42-2.41.63-3L76.1,426h-.87l-1.09-5.53-.44,3.25L73.3,426H72.1l1.23-7.11Z"/><path class="cls-8" d="M81.76,426H80.6l.92-5.28h1.16Zm-.08-6.64a.63.63,0,0,1,.18-.45.62.62,0,0,1,.47-.2.63.63,0,0,1,.48.17.65.65,0,0,1,0,.9.65.65,0,0,1-.47.19.62.62,0,0,1-.46-.16A.59.59,0,0,1,81.68,419.36Z"/><path class="cls-8" d="M85.36,425.16a1.13,1.13,0,0,0,.73-.25,1.1,1.1,0,0,0,.41-.65h1.09a1.76,1.76,0,0,1-.38.95,2.11,2.11,0,0,1-.83.67,2.31,2.31,0,0,1-1.06.23,2,2,0,0,1-1.15-.35,1.93,1.93,0,0,1-.7-.95,2.94,2.94,0,0,1-.15-1.34v-.17a3.5,3.5,0,0,1,.45-1.39,2.55,2.55,0,0,1,.94-1,2.35,2.35,0,0,1,1.28-.32,1.82,1.82,0,0,1,1.37.57,2,2,0,0,1,.52,1.43H86.8a1.19,1.19,0,0,0-.22-.75.8.8,0,0,0-.64-.3,1.16,1.16,0,0,0-1.07.57,3.24,3.24,0,0,0-.42,1.68C84.43,424.7,84.73,425.14,85.36,425.16Z"/><path class="cls-8" d="M90.28,423.74l-.65.59L89.34,426H88.18l1.3-7.5h1.16l-.74,4.26.4-.42L92,420.72h1.48L91.12,423l1.54,3H91.41Z"/><path class="cls-8" d="M100,418.89h1.2l-.85,5a2.61,2.61,0,0,1-.84,1.64,2.45,2.45,0,0,1-1.72.58,1.87,1.87,0,0,1-2-2.13h1.2c0,.75.25,1.12.87,1.14a1.11,1.11,0,0,0,.84-.31,1.64,1.64,0,0,0,.45-.92Z"/><path class="cls-8" d="M104.33,426a1.72,1.72,0,0,1,0-.49,2,2,0,0,1-1.41.59,1.66,1.66,0,0,1-1.14-.44,1.38,1.38,0,0,1-.42-1.1,1.6,1.6,0,0,1,.72-1.31,3.16,3.16,0,0,1,1.84-.48h.75l.07-.36a1.09,1.09,0,0,0,0-.36.64.64,0,0,0-.7-.54,1,1,0,0,0-.65.19.81.81,0,0,0-.35.53h-1.15a1.4,1.4,0,0,1,.34-.86,2.1,2.1,0,0,1,.83-.58,2.9,2.9,0,0,1,1.1-.19,1.84,1.84,0,0,1,1.34.52,1.51,1.51,0,0,1,.4,1.3l-.4,2.47,0,.44a1.51,1.51,0,0,0,.07.56V426Zm-1.19-.85a1.25,1.25,0,0,0,.68-.17,1.8,1.8,0,0,0,.53-.46l.18-1H104a2,2,0,0,0-1,.25.92.92,0,0,0-.44.68.57.57,0,0,0,.14.51A.72.72,0,0,0,103.14,425.15Z"/><path class="cls-8" d="M106.75,423.35a4.18,4.18,0,0,1,.43-1.43,2.62,2.62,0,0,1,.84-1,2.1,2.1,0,0,1,1.16-.33,1.6,1.6,0,0,1,1.32.64l.18-.54h1l-.87,5.13a2.57,2.57,0,0,1-.87,1.65,2.53,2.53,0,0,1-1.77.58,2.39,2.39,0,0,1-1-.25,2.22,2.22,0,0,1-.8-.64l.61-.7a1.5,1.5,0,0,0,1.21.66,1.44,1.44,0,0,0,1-.31,1.64,1.64,0,0,0,.54-.94l.08-.37a1.87,1.87,0,0,1-1.38.57,1.51,1.51,0,0,1-1.19-.56,2.5,2.5,0,0,1-.49-1.49A5.86,5.86,0,0,1,106.75,423.35Zm1.15.11a3,3,0,0,0,0,.53,1.4,1.4,0,0,0,.24.82.76.76,0,0,0,.63.32,1.38,1.38,0,0,0,1.16-.61l.41-2.33a.93.93,0,0,0-.9-.6,1.22,1.22,0,0,0-1,.45,2.58,2.58,0,0,0-.52,1.31Z"/><path class="cls-8" d="M112.3,423.35a4,4,0,0,1,.43-1.43,2.62,2.62,0,0,1,.84-1,2.1,2.1,0,0,1,1.16-.33,1.57,1.57,0,0,1,1.31.64l.19-.54h1l-.87,5.13a2.54,2.54,0,0,1-.88,1.65,2.5,2.5,0,0,1-1.76.58,2.46,2.46,0,0,1-1.06-.25,2.31,2.31,0,0,1-.8-.64l.62-.7a1.49,1.49,0,0,0,1.21.66,1.42,1.42,0,0,0,1-.31,1.6,1.6,0,0,0,.55-.94l.08-.37a1.88,1.88,0,0,1-1.38.57,1.5,1.5,0,0,1-1.19-.56,2.44,2.44,0,0,1-.49-1.49A4.31,4.31,0,0,1,112.3,423.35Zm1.15.11a3,3,0,0,0,0,.53,1.33,1.33,0,0,0,.23.82.76.76,0,0,0,.64.32,1.35,1.35,0,0,0,1.15-.61l.42-2.33a.93.93,0,0,0-.9-.6,1.22,1.22,0,0,0-1,.45,2.5,2.5,0,0,0-.52,1.31Z"/><path class="cls-8" d="M120,426.1a2.26,2.26,0,0,1-1.2-.35,2,2,0,0,1-.75-.91,2.68,2.68,0,0,1-.18-1.28l0-.2a3.36,3.36,0,0,1,.47-1.45,2.6,2.6,0,0,1,1-1,2.26,2.26,0,0,1,1.24-.32,1.73,1.73,0,0,1,1.49.74,2.71,2.71,0,0,1,.37,1.87l-.07.51H119a1.41,1.41,0,0,0,.25,1,1,1,0,0,0,.82.4,1.8,1.8,0,0,0,1.38-.65l.59.61a2.35,2.35,0,0,1-.88.74A2.71,2.71,0,0,1,120,426.1Zm.49-4.53c-.61,0-1.07.41-1.38,1.3h2.19l0-.1a1.31,1.31,0,0,0,0-.44,1,1,0,0,0-.27-.55A.9.9,0,0,0,120.47,421.57Z"/><path class="cls-8" d="M126.29,421.8a2.3,2.3,0,0,0-.45-.05,1.36,1.36,0,0,0-1.21.63L124,426h-1.15l.91-5.28h1.1l-.12.6a1.5,1.5,0,0,1,1.25-.7,1.83,1.83,0,0,1,.45.07Z"/></g><g class="cls-6"><path class="cls-7" d="M24.66,437.32h.8v1.14h-.8V440H23.25v-1.54H20.33l-.06-.89,3-4.68h1.43Zm-3,0h1.58v-2.51l-.1.17Z"/><path class="cls-7" d="M30.09,434.72l.05.59a1.85,1.85,0,0,1,1.52-.69,1.42,1.42,0,0,1,1.4.8,1.82,1.82,0,0,1,1.58-.8,1.58,1.58,0,0,1,1.28.5,2.31,2.31,0,0,1,.42,1.51V440H34.93v-3.38a1,1,0,0,0-.18-.66.81.81,0,0,0-.62-.2.88.88,0,0,0-.88.6V440H31.85v-3.37a1,1,0,0,0-.18-.67.84.84,0,0,0-.62-.2.91.91,0,0,0-.87.5V440H28.77v-5.28Z"/><path class="cls-7" d="M37.42,433.35a.69.69,0,0,1,.21-.52.78.78,0,0,1,.58-.21.77.77,0,0,1,.57.21.66.66,0,0,1,.22.52.69.69,0,0,1-.22.53.81.81,0,0,1-.57.2.85.85,0,0,1-.58-.2A.72.72,0,0,1,37.42,433.35Zm1.5,6.65H37.5v-5.28h1.42Z"/><path class="cls-7" d="M41.38,434.72l0,.61a1.85,1.85,0,0,1,1.52-.71,1.52,1.52,0,0,1,1.25.49,2.35,2.35,0,0,1,.42,1.48V440H43.2v-3.39A.92.92,0,0,0,43,436a.84.84,0,0,0-.65-.2,1,1,0,0,0-.89.51V440H40.05v-5.28Z"/><path class="cls-7" d="M48.84,439.46a1.75,1.75,0,0,1-1.44.64,1.7,1.7,0,0,1-1.3-.49,2.09,2.09,0,0,1-.46-1.43v-3.46h1.42v3.41c0,.55.25.83.75.83a1,1,0,0,0,1-.5v-3.74h1.42V440H48.88Z"/><path class="cls-7" d="M53,433.42v1.3h.91v1H53v2.64a.62.62,0,0,0,.12.42.56.56,0,0,0,.43.13,2.48,2.48,0,0,0,.41,0V440a2.74,2.74,0,0,1-.85.13,1.35,1.35,0,0,1-1.52-1.5v-2.85h-.77v-1h.77v-1.3Z"/><path class="cls-7" d="M57.08,440.1a2.59,2.59,0,0,1-1.89-.72,2.53,2.53,0,0,1-.73-1.89v-.14a3.22,3.22,0,0,1,.31-1.42,2.29,2.29,0,0,1,.87-1,2.44,2.44,0,0,1,1.29-.34,2.23,2.23,0,0,1,1.71.68,2.81,2.81,0,0,1,.62,1.94v.58H55.89a1.36,1.36,0,0,0,.42.83,1.24,1.24,0,0,0,.87.31,1.52,1.52,0,0,0,1.27-.59l.7.78a2.2,2.2,0,0,1-.86.7A3,3,0,0,1,57.08,440.1Zm-.16-4.34a.88.88,0,0,0-.68.28,1.51,1.51,0,0,0-.33.82h2v-.12a1.11,1.11,0,0,0-.25-.73A.94.94,0,0,0,56.92,435.76Z"/><path class="cls-7" d="M62.92,438.54a.47.47,0,0,0-.26-.41,2.62,2.62,0,0,0-.82-.26c-1.26-.27-1.88-.8-1.88-1.61a1.44,1.44,0,0,1,.58-1.17,2.39,2.39,0,0,1,1.53-.47,2.54,2.54,0,0,1,1.6.47,1.49,1.49,0,0,1,.61,1.23H62.87a.7.7,0,0,0-.2-.5,1,1,0,0,0-1.16,0,.5.5,0,0,0-.2.41.43.43,0,0,0,.23.37,2.07,2.07,0,0,0,.75.25,5.72,5.72,0,0,1,.88.24,1.46,1.46,0,0,1,1.12,1.42,1.37,1.37,0,0,1-.62,1.17,2.66,2.66,0,0,1-1.6.45,2.76,2.76,0,0,1-1.18-.24,2,2,0,0,1-.81-.65,1.53,1.53,0,0,1-.29-.89h1.34a.73.73,0,0,0,.28.58,1.11,1.11,0,0,0,.69.2,1,1,0,0,0,.61-.16A.46.46,0,0,0,62.92,438.54Z"/><path class="cls-7" d="M70.75,440a1.86,1.86,0,0,1-.14-.47,1.71,1.71,0,0,1-1.33.57,1.88,1.88,0,0,1-1.29-.45,1.45,1.45,0,0,1-.51-1.13,1.51,1.51,0,0,1,.62-1.29,3.14,3.14,0,0,1,1.8-.46h.65v-.3a.87.87,0,0,0-.19-.59.75.75,0,0,0-.59-.22.87.87,0,0,0-.56.17.62.62,0,0,0-.2.47H67.6a1.42,1.42,0,0,1,.28-.85,1.92,1.92,0,0,1,.8-.61,2.89,2.89,0,0,1,1.16-.22,2.29,2.29,0,0,1,1.55.49,1.71,1.71,0,0,1,.58,1.38v2.29a2.46,2.46,0,0,0,.21,1.14V440Zm-1.17-1a1.24,1.24,0,0,0,.58-.14.88.88,0,0,0,.39-.37v-.91H70c-.7,0-1.08.24-1.12.73v.08a.56.56,0,0,0,.19.44A.72.72,0,0,0,69.58,439Z"/><path class="cls-7" d="M72.85,437.32a3.09,3.09,0,0,1,.58-2,1.87,1.87,0,0,1,1.56-.74,1.67,1.67,0,0,1,1.35.59l.06-.49h1.28v5.1a2.25,2.25,0,0,1-.32,1.21,2,2,0,0,1-.89.78,3.07,3.07,0,0,1-1.33.27,3,3,0,0,1-1.14-.23,2.15,2.15,0,0,1-.83-.6l.62-.86a1.68,1.68,0,0,0,1.28.59,1.22,1.22,0,0,0,.88-.3,1.11,1.11,0,0,0,.31-.85v-.28a1.66,1.66,0,0,1-1.28.55,1.85,1.85,0,0,1-1.54-.75,3,3,0,0,1-.59-2Zm1.41.1a1.87,1.87,0,0,0,.29,1.13.91.91,0,0,0,.79.41,1,1,0,0,0,.92-.49v-2.23a1,1,0,0,0-.91-.48.93.93,0,0,0-.8.41A2.16,2.16,0,0,0,74.26,437.42Z"/><path class="cls-7" d="M78.54,437.31a3.16,3.16,0,0,1,.3-1.4,2.17,2.17,0,0,1,.87-1,2.51,2.51,0,0,1,1.33-.34,2.42,2.42,0,0,1,1.74.65,2.68,2.68,0,0,1,.76,1.78v.36a2.77,2.77,0,0,1-.67,1.95,2.63,2.63,0,0,1-3.65,0,2.85,2.85,0,0,1-.68-2Zm1.41.1a2,2,0,0,0,.28,1.15.93.93,0,0,0,.81.4,1,1,0,0,0,.81-.39,2.22,2.22,0,0,0,.28-1.26,2,2,0,0,0-.28-1.15,1,1,0,0,0-.81-.4.93.93,0,0,0-.81.4A2.29,2.29,0,0,0,80,437.41Z"/></g></g></g></g></g><g id="Rolling_Stone_magazine_ranked_them_fourth_on_the_100_Greatest_Artists_of_All_Time_list_and_their_estimated_record_sales_are_above_250_million." data-name="Rolling Stone magazine ranked them fourth on the 100 Greatest Artists of All Time list and their estimated record sales are above 250 million." class="cls-6"><g class="cls-6"><path class="cls-9" d="M17.36,77.86h8.46a2.16,2.16,0,0,1,2.23,2.23v0a2.17,2.17,0,0,1-2.23,2.24H17.36a2.18,2.18,0,0,1-2.24-2.24v0A2.17,2.17,0,0,1,17.36,77.86Z"/><path class="cls-9" d="M25.79,77.86h8.46a2.16,2.16,0,0,1,2.23,2.23v0a2.17,2.17,0,0,1-2.23,2.24H25.79a2.17,2.17,0,0,1-2.23-2.24v0A2.16,2.16,0,0,1,25.79,77.86Z"/><path class="cls-9" d="M34.22,77.86h4.32a2.16,2.16,0,0,1,2.23,2.23v0a2.17,2.17,0,0,1-2.23,2.24H34.22A2.18,2.18,0,0,1,32,80.12v0A2.17,2.17,0,0,1,34.22,77.86Z"/><path class="cls-9" d="M38.51,77.86h4.32a2.16,2.16,0,0,1,2.23,2.23v0a2.17,2.17,0,0,1-2.23,2.24H38.51a2.18,2.18,0,0,1-2.24-2.24v0A2.17,2.17,0,0,1,38.51,77.86Z"/><path class="cls-9" d="M42.8,77.86h4.32a2.16,2.16,0,0,1,2.23,2.23v0a2.17,2.17,0,0,1-2.23,2.24H42.8a2.18,2.18,0,0,1-2.24-2.24v0A2.17,2.17,0,0,1,42.8,77.86Z"/><path class="cls-9" d="M47.09,77.86h8.46a2.16,2.16,0,0,1,2.23,2.23v0a2.17,2.17,0,0,1-2.23,2.24H47.09a2.18,2.18,0,0,1-2.24-2.24v0A2.17,2.17,0,0,1,47.09,77.86Z"/><path class="cls-9" d="M55.52,77.86H64a2.16,2.16,0,0,1,2.23,2.23v0A2.17,2.17,0,0,1,64,82.36H55.52a2.18,2.18,0,0,1-2.24-2.24v0A2.17,2.17,0,0,1,55.52,77.86Z"/><path class="cls-9" d="M73,77.86h8.46a2.16,2.16,0,0,1,2.23,2.23v0a2.17,2.17,0,0,1-2.23,2.24H73a2.18,2.18,0,0,1-2.24-2.24v0A2.17,2.17,0,0,1,73,77.86Z"/><path class="cls-9" d="M81.38,77.86H85.7a2.16,2.16,0,0,1,2.23,2.23v0a2.17,2.17,0,0,1-2.23,2.24H81.38a2.18,2.18,0,0,1-2.24-2.24v0A2.17,2.17,0,0,1,81.38,77.86Z"/><path class="cls-9" d="M85.67,77.86h8.46a2.16,2.16,0,0,1,2.23,2.23v0a2.17,2.17,0,0,1-2.23,2.24H85.67a2.18,2.18,0,0,1-2.24-2.24v0A2.17,2.17,0,0,1,85.67,77.86Z"/><path class="cls-9" d="M94.1,77.86h8.46a2.16,2.16,0,0,1,2.23,2.23v0a2.17,2.17,0,0,1-2.23,2.24H94.1a2.18,2.18,0,0,1-2.24-2.24v0A2.17,2.17,0,0,1,94.1,77.86Z"/><path class="cls-9" d="M102.53,77.86H111a2.16,2.16,0,0,1,2.23,2.23v0A2.17,2.17,0,0,1,111,82.36h-8.46a2.18,2.18,0,0,1-2.24-2.24v0A2.17,2.17,0,0,1,102.53,77.86Z"/><path class="cls-9" d="M120,77.86h8.46a2.16,2.16,0,0,1,2.23,2.23v0a2.17,2.17,0,0,1-2.23,2.24H120a2.18,2.18,0,0,1-2.24-2.24v0A2.17,2.17,0,0,1,120,77.86Z"/><path class="cls-9" d="M128.39,77.86h8.46a2.16,2.16,0,0,1,2.23,2.23v0a2.17,2.17,0,0,1-2.23,2.24h-8.46a2.18,2.18,0,0,1-2.24-2.24v0A2.17,2.17,0,0,1,128.39,77.86Z"/><path class="cls-9" d="M136.82,77.86h8.46a2.16,2.16,0,0,1,2.23,2.23v0a2.17,2.17,0,0,1-2.23,2.24h-8.46a2.18,2.18,0,0,1-2.24-2.24v0A2.17,2.17,0,0,1,136.82,77.86Z"/><path class="cls-9" d="M145.25,77.86h8.46a2.16,2.16,0,0,1,2.23,2.23v0a2.17,2.17,0,0,1-2.23,2.24h-8.46A2.18,2.18,0,0,1,143,80.12v0A2.17,2.17,0,0,1,145.25,77.86Z"/><path class="cls-9" d="M153.68,77.86h8.46a2.16,2.16,0,0,1,2.23,2.23v0a2.17,2.17,0,0,1-2.23,2.24h-8.46a2.18,2.18,0,0,1-2.24-2.24v0A2.17,2.17,0,0,1,153.68,77.86Z"/><path class="cls-9" d="M162.11,77.86h4.32a2.16,2.16,0,0,1,2.23,2.23v0a2.17,2.17,0,0,1-2.23,2.24h-4.32a2.18,2.18,0,0,1-2.24-2.24v0A2.17,2.17,0,0,1,162.11,77.86Z"/><path class="cls-9" d="M166.4,77.86h8.46a2.16,2.16,0,0,1,2.23,2.23v0a2.17,2.17,0,0,1-2.23,2.24H166.4a2.18,2.18,0,0,1-2.24-2.24v0A2.17,2.17,0,0,1,166.4,77.86Z"/><path class="cls-9" d="M174.83,77.86h8.46a2.16,2.16,0,0,1,2.23,2.23v0a2.17,2.17,0,0,1-2.23,2.24h-8.46a2.18,2.18,0,0,1-2.24-2.24v0A2.17,2.17,0,0,1,174.83,77.86Z"/><path class="cls-9" d="M192.26,77.86h4.32a2.16,2.16,0,0,1,2.23,2.23v0a2.17,2.17,0,0,1-2.23,2.24h-4.32A2.18,2.18,0,0,1,190,80.12v0A2.17,2.17,0,0,1,192.26,77.86Z"/><path class="cls-9" d="M196.55,77.86H205a2.16,2.16,0,0,1,2.23,2.23v0A2.17,2.17,0,0,1,205,82.36h-8.46a2.18,2.18,0,0,1-2.24-2.24v0A2.17,2.17,0,0,1,196.55,77.86Z"/><path class="cls-9" d="M205,77.86h8.46a2.16,2.16,0,0,1,2.23,2.23v0a2.17,2.17,0,0,1-2.23,2.24H205a2.18,2.18,0,0,1-2.24-2.24v0A2.17,2.17,0,0,1,205,77.86Z"/><path class="cls-9" d="M213.41,77.86h8.46a2.16,2.16,0,0,1,2.23,2.23v0a2.17,2.17,0,0,1-2.23,2.24h-8.46a2.18,2.18,0,0,1-2.24-2.24v0A2.17,2.17,0,0,1,213.41,77.86Z"/><path class="cls-9" d="M221.84,77.86h8.46a2.16,2.16,0,0,1,2.23,2.23v0a2.17,2.17,0,0,1-2.23,2.24h-8.46a2.18,2.18,0,0,1-2.24-2.24v0A2.17,2.17,0,0,1,221.84,77.86Z"/><path class="cls-9" d="M230.27,77.86h8.46A2.16,2.16,0,0,1,241,80.09v0a2.17,2.17,0,0,1-2.23,2.24h-8.46A2.18,2.18,0,0,1,228,80.12v0A2.17,2.17,0,0,1,230.27,77.86Z"/></g><g class="cls-6"><path class="cls-9" d="M17.36,101.86h4.32a2.16,2.16,0,0,1,2.23,2.23v0a2.17,2.17,0,0,1-2.23,2.24H17.36a2.18,2.18,0,0,1-2.24-2.24v0A2.17,2.17,0,0,1,17.36,101.86Z"/><path class="cls-9" d="M21.65,101.86h8.46a2.16,2.16,0,0,1,2.23,2.23v0a2.17,2.17,0,0,1-2.23,2.24H21.65a2.17,2.17,0,0,1-2.23-2.24v0A2.16,2.16,0,0,1,21.65,101.86Z"/><path class="cls-9" d="M30.08,101.86h8.46a2.16,2.16,0,0,1,2.23,2.23v0a2.17,2.17,0,0,1-2.23,2.24H30.08a2.18,2.18,0,0,1-2.24-2.24v0A2.17,2.17,0,0,1,30.08,101.86Z"/><path class="cls-9" d="M38.51,101.86H47a2.16,2.16,0,0,1,2.23,2.23v0A2.17,2.17,0,0,1,47,106.36H38.51a2.18,2.18,0,0,1-2.24-2.24v0A2.17,2.17,0,0,1,38.51,101.86Z"/><path class="cls-9" d="M55.94,101.86h4.32a2.16,2.16,0,0,1,2.23,2.23v0a2.17,2.17,0,0,1-2.23,2.24H55.94a2.18,2.18,0,0,1-2.24-2.24v0A2.17,2.17,0,0,1,55.94,101.86Z"/><path class="cls-9" d="M60.23,101.86h8.46a2.16,2.16,0,0,1,2.23,2.23v0a2.17,2.17,0,0,1-2.23,2.24H60.23A2.18,2.18,0,0,1,58,104.12v0A2.17,2.17,0,0,1,60.23,101.86Z"/><path class="cls-9" d="M68.66,101.86h8.46a2.16,2.16,0,0,1,2.23,2.23v0a2.17,2.17,0,0,1-2.23,2.24H68.66a2.18,2.18,0,0,1-2.24-2.24v0A2.17,2.17,0,0,1,68.66,101.86Z"/><path class="cls-9" d="M77.09,101.86h4.32a2.16,2.16,0,0,1,2.23,2.23v0a2.17,2.17,0,0,1-2.23,2.24H77.09a2.18,2.18,0,0,1-2.24-2.24v0A2.17,2.17,0,0,1,77.09,101.86Z"/><path class="cls-9" d="M81.38,101.86H85.7a2.16,2.16,0,0,1,2.23,2.23v0a2.17,2.17,0,0,1-2.23,2.24H81.38a2.18,2.18,0,0,1-2.24-2.24v0A2.17,2.17,0,0,1,81.38,101.86Z"/><path class="cls-9" d="M85.67,101.86h8.46a2.16,2.16,0,0,1,2.23,2.23v0a2.17,2.17,0,0,1-2.23,2.24H85.67a2.18,2.18,0,0,1-2.24-2.24v0A2.17,2.17,0,0,1,85.67,101.86Z"/><path class="cls-9" d="M103.1,101.86h8.46a2.16,2.16,0,0,1,2.23,2.23v0a2.17,2.17,0,0,1-2.23,2.24H103.1a2.18,2.18,0,0,1-2.24-2.24v0A2.17,2.17,0,0,1,103.1,101.86Z"/><path class="cls-9" d="M111.53,101.86H120a2.16,2.16,0,0,1,2.23,2.23v0a2.17,2.17,0,0,1-2.23,2.24h-8.46a2.18,2.18,0,0,1-2.24-2.24v0A2.17,2.17,0,0,1,111.53,101.86Z"/><path class="cls-9" d="M129,101.86h4.32a2.16,2.16,0,0,1,2.23,2.23v0a2.17,2.17,0,0,1-2.23,2.24H129a2.18,2.18,0,0,1-2.24-2.24v0A2.17,2.17,0,0,1,129,101.86Z"/><path class="cls-9" d="M133.25,101.86h8.46a2.16,2.16,0,0,1,2.23,2.23v0a2.17,2.17,0,0,1-2.23,2.24h-8.46a2.18,2.18,0,0,1-2.24-2.24v0A2.17,2.17,0,0,1,133.25,101.86Z"/><path class="cls-9" d="M141.68,101.86h8.46a2.16,2.16,0,0,1,2.23,2.23v0a2.17,2.17,0,0,1-2.23,2.24h-8.46a2.18,2.18,0,0,1-2.24-2.24v0A2.17,2.17,0,0,1,141.68,101.86Z"/><path class="cls-9" d="M159.11,101.86h4.32a2.16,2.16,0,0,1,2.23,2.23v0a2.17,2.17,0,0,1-2.23,2.24h-4.32a2.18,2.18,0,0,1-2.24-2.24v0A2.17,2.17,0,0,1,159.11,101.86Z"/><path class="cls-9" d="M163.4,101.86h8.46a2.16,2.16,0,0,1,2.23,2.23v0a2.17,2.17,0,0,1-2.23,2.24H163.4a2.18,2.18,0,0,1-2.24-2.24v0A2.17,2.17,0,0,1,163.4,101.86Z"/><path class="cls-9" d="M171.83,101.86h8.46a2.16,2.16,0,0,1,2.23,2.23v0a2.17,2.17,0,0,1-2.23,2.24h-8.46a2.18,2.18,0,0,1-2.24-2.24v0A2.17,2.17,0,0,1,171.83,101.86Z"/><path class="cls-9" d="M180.26,101.86h8.46a2.16,2.16,0,0,1,2.23,2.23v0a2.17,2.17,0,0,1-2.23,2.24h-8.46a2.18,2.18,0,0,1-2.24-2.24v0A2.17,2.17,0,0,1,180.26,101.86Z"/><path class="cls-9" d="M197.69,101.86h8.46a2.16,2.16,0,0,1,2.23,2.23v0a2.17,2.17,0,0,1-2.23,2.24h-8.46a2.18,2.18,0,0,1-2.24-2.24v0A2.17,2.17,0,0,1,197.69,101.86Z"/><path class="cls-9" d="M206.12,101.86h4.32a2.16,2.16,0,0,1,2.23,2.23v0a2.17,2.17,0,0,1-2.23,2.24h-4.32a2.18,2.18,0,0,1-2.24-2.24v0A2.17,2.17,0,0,1,206.12,101.86Z"/><path class="cls-9" d="M210.41,101.86h8.46a2.16,2.16,0,0,1,2.23,2.23v0a2.17,2.17,0,0,1-2.23,2.24h-8.46a2.18,2.18,0,0,1-2.24-2.24v0A2.17,2.17,0,0,1,210.41,101.86Z"/><path class="cls-9" d="M218.84,101.86h8.46a2.16,2.16,0,0,1,2.23,2.23v0a2.17,2.17,0,0,1-2.23,2.24h-8.46a2.18,2.18,0,0,1-2.24-2.24v0A2.17,2.17,0,0,1,218.84,101.86Z"/><path class="cls-9" d="M227.27,101.86h4.32a2.16,2.16,0,0,1,2.23,2.23v0a2.17,2.17,0,0,1-2.23,2.24h-4.32a2.18,2.18,0,0,1-2.24-2.24v0A2.17,2.17,0,0,1,227.27,101.86Z"/><path class="cls-9" d="M231.56,101.86H240a2.16,2.16,0,0,1,2.23,2.23v0a2.17,2.17,0,0,1-2.23,2.24h-8.46a2.18,2.18,0,0,1-2.24-2.24v0A2.17,2.17,0,0,1,231.56,101.86Z"/><path class="cls-9" d="M240,101.86h8.46a2.16,2.16,0,0,1,2.23,2.23v0a2.17,2.17,0,0,1-2.23,2.24H240a2.18,2.18,0,0,1-2.24-2.24v0A2.17,2.17,0,0,1,240,101.86Z"/><path class="cls-9" d="M248.42,101.86h4.32a2.16,2.16,0,0,1,2.23,2.23v0a2.17,2.17,0,0,1-2.23,2.24h-4.32a2.18,2.18,0,0,1-2.24-2.24v0A2.17,2.17,0,0,1,248.42,101.86Z"/></g><g class="cls-6"><path class="cls-9" d="M17.36,125.86h8.46a2.16,2.16,0,0,1,2.23,2.23v0a2.17,2.17,0,0,1-2.23,2.24H17.36a2.18,2.18,0,0,1-2.24-2.24v0A2.17,2.17,0,0,1,17.36,125.86Z"/><path class="cls-9" d="M25.79,125.86h4.32a2.16,2.16,0,0,1,2.23,2.23v0a2.17,2.17,0,0,1-2.23,2.24H25.79a2.17,2.17,0,0,1-2.23-2.24v0A2.16,2.16,0,0,1,25.79,125.86Z"/><path class="cls-9" d="M30.08,125.86H34.4a2.16,2.16,0,0,1,2.23,2.23v0a2.17,2.17,0,0,1-2.23,2.24H30.08a2.18,2.18,0,0,1-2.24-2.24v0A2.17,2.17,0,0,1,30.08,125.86Z"/><path class="cls-9" d="M34.37,125.86h4.32a2.16,2.16,0,0,1,2.23,2.23v0a2.17,2.17,0,0,1-2.23,2.24H34.37a2.18,2.18,0,0,1-2.24-2.24v0A2.17,2.17,0,0,1,34.37,125.86Z"/><path class="cls-9" d="M38.66,125.86h8.46a2.16,2.16,0,0,1,2.23,2.23v0a2.17,2.17,0,0,1-2.23,2.24H38.66a2.18,2.18,0,0,1-2.24-2.24v0A2.17,2.17,0,0,1,38.66,125.86Z"/><path class="cls-9" d="M47.09,125.86h4.32a2.16,2.16,0,0,1,2.23,2.23v0a2.17,2.17,0,0,1-2.23,2.24H47.09a2.18,2.18,0,0,1-2.24-2.24v0A2.17,2.17,0,0,1,47.09,125.86Z"/><path class="cls-9" d="M51.38,125.86h8.46a2.16,2.16,0,0,1,2.23,2.23v0a2.17,2.17,0,0,1-2.23,2.24H51.38a2.18,2.18,0,0,1-2.24-2.24v0A2.17,2.17,0,0,1,51.38,125.86Z"/><path class="cls-9" d="M68.81,125.86h8.46a2.16,2.16,0,0,1,2.23,2.23v0a2.17,2.17,0,0,1-2.23,2.24H68.81a2.18,2.18,0,0,1-2.24-2.24v0A2.17,2.17,0,0,1,68.81,125.86Z"/><path class="cls-9" d="M77.24,125.86h4.32a2.16,2.16,0,0,1,2.23,2.23v0a2.17,2.17,0,0,1-2.23,2.24H77.24A2.18,2.18,0,0,1,75,128.12v0A2.17,2.17,0,0,1,77.24,125.86Z"/><path class="cls-9" d="M90.53,125.86H99a2.16,2.16,0,0,1,2.23,2.23v0A2.17,2.17,0,0,1,99,130.36H90.53a2.18,2.18,0,0,1-2.24-2.24v0A2.17,2.17,0,0,1,90.53,125.86Z"/><path class="cls-9" d="M99,125.86h4.32a2.16,2.16,0,0,1,2.23,2.23v0a2.17,2.17,0,0,1-2.23,2.24H99a2.18,2.18,0,0,1-2.24-2.24v0A2.17,2.17,0,0,1,99,125.86Z"/><path class="cls-9" d="M103.25,125.86h4.32a2.16,2.16,0,0,1,2.23,2.23v0a2.17,2.17,0,0,1-2.23,2.24h-4.32a2.18,2.18,0,0,1-2.24-2.24v0A2.17,2.17,0,0,1,103.25,125.86Z"/><path class="cls-9" d="M116.54,125.86h4.32a2.16,2.16,0,0,1,2.23,2.23v0a2.17,2.17,0,0,1-2.23,2.24h-4.32a2.18,2.18,0,0,1-2.24-2.24v0A2.17,2.17,0,0,1,116.54,125.86Z"/><path class="cls-9" d="M120.83,125.86h4.32a2.16,2.16,0,0,1,2.23,2.23v0a2.17,2.17,0,0,1-2.23,2.24h-4.32a2.18,2.18,0,0,1-2.24-2.24v0A2.17,2.17,0,0,1,120.83,125.86Z"/><path class="cls-9" d="M125.12,125.86h8.46a2.16,2.16,0,0,1,2.23,2.23v0a2.17,2.17,0,0,1-2.23,2.24h-8.46a2.18,2.18,0,0,1-2.24-2.24v0A2.17,2.17,0,0,1,125.12,125.86Z"/><path class="cls-9" d="M133.55,125.86H142a2.16,2.16,0,0,1,2.23,2.23v0a2.17,2.17,0,0,1-2.23,2.24h-8.46a2.18,2.18,0,0,1-2.24-2.24v0A2.17,2.17,0,0,1,133.55,125.86Z"/><path class="cls-9" d="M142,125.86h4.32a2.16,2.16,0,0,1,2.23,2.23v0a2.17,2.17,0,0,1-2.23,2.24H142a2.18,2.18,0,0,1-2.24-2.24v0A2.17,2.17,0,0,1,142,125.86Z"/><path class="cls-9" d="M155.27,125.86h4.32a2.16,2.16,0,0,1,2.23,2.23v0a2.17,2.17,0,0,1-2.23,2.24h-4.32a2.18,2.18,0,0,1-2.24-2.24v0A2.17,2.17,0,0,1,155.27,125.86Z"/><path class="cls-9" d="M159.56,125.86h4.32a2.16,2.16,0,0,1,2.23,2.23v0a2.17,2.17,0,0,1-2.23,2.24h-4.32a2.18,2.18,0,0,1-2.24-2.24v0A2.17,2.17,0,0,1,159.56,125.86Z"/><path class="cls-9" d="M163.85,125.86h8.46a2.16,2.16,0,0,1,2.23,2.23v0a2.17,2.17,0,0,1-2.23,2.24h-8.46a2.18,2.18,0,0,1-2.24-2.24v0A2.17,2.17,0,0,1,163.85,125.86Z"/><path class="cls-9" d="M172.28,125.86h4.32a2.16,2.16,0,0,1,2.23,2.23v0a2.17,2.17,0,0,1-2.23,2.24h-4.32a2.18,2.18,0,0,1-2.24-2.24v0A2.17,2.17,0,0,1,172.28,125.86Z"/><path class="cls-9" d="M185.57,125.86H194a2.16,2.16,0,0,1,2.23,2.23v0a2.17,2.17,0,0,1-2.23,2.24h-8.46a2.18,2.18,0,0,1-2.24-2.24v0A2.17,2.17,0,0,1,185.57,125.86Z"/><path class="cls-9" d="M194,125.86h8.46a2.16,2.16,0,0,1,2.23,2.23v0a2.17,2.17,0,0,1-2.23,2.24H194a2.18,2.18,0,0,1-2.24-2.24v0A2.17,2.17,0,0,1,194,125.86Z"/><path class="cls-9" d="M202.43,125.86h8.46a2.16,2.16,0,0,1,2.23,2.23v0a2.17,2.17,0,0,1-2.23,2.24h-8.46a2.18,2.18,0,0,1-2.24-2.24v0A2.17,2.17,0,0,1,202.43,125.86Z"/><path class="cls-9" d="M219.86,125.86h4.32a2.16,2.16,0,0,1,2.23,2.23v0a2.17,2.17,0,0,1-2.23,2.24h-4.32a2.18,2.18,0,0,1-2.24-2.24v0A2.17,2.17,0,0,1,219.86,125.86Z"/><path class="cls-9" d="M224.15,125.86h8.46a2.16,2.16,0,0,1,2.23,2.23v0a2.17,2.17,0,0,1-2.23,2.24h-8.46a2.18,2.18,0,0,1-2.24-2.24v0A2.17,2.17,0,0,1,224.15,125.86Z"/><path class="cls-9" d="M232.58,125.86H241a2.16,2.16,0,0,1,2.23,2.23v0a2.17,2.17,0,0,1-2.23,2.24h-8.46a2.18,2.18,0,0,1-2.24-2.24v0A2.17,2.17,0,0,1,232.58,125.86Z"/><path class="cls-9" d="M241,125.86h4.32a2.16,2.16,0,0,1,2.23,2.23v0a2.17,2.17,0,0,1-2.23,2.24H241a2.18,2.18,0,0,1-2.24-2.24v0A2.17,2.17,0,0,1,241,125.86Z"/><path class="cls-9" d="M245.3,125.86h4.32a2.16,2.16,0,0,1,2.23,2.23v0a2.17,2.17,0,0,1-2.23,2.24H245.3a2.18,2.18,0,0,1-2.24-2.24v0A2.17,2.17,0,0,1,245.3,125.86Z"/></g><g class="cls-6"><path class="cls-9" d="M17.36,149.86h8.46a2.16,2.16,0,0,1,2.23,2.23v0a2.17,2.17,0,0,1-2.23,2.24H17.36a2.18,2.18,0,0,1-2.24-2.24v0A2.17,2.17,0,0,1,17.36,149.86Z"/><path class="cls-9" d="M25.79,149.86h8.46a2.16,2.16,0,0,1,2.23,2.23v0a2.17,2.17,0,0,1-2.23,2.24H25.79a2.17,2.17,0,0,1-2.23-2.24v0A2.16,2.16,0,0,1,25.79,149.86Z"/><path class="cls-9" d="M34.22,149.86h4.32a2.16,2.16,0,0,1,2.23,2.23v0a2.17,2.17,0,0,1-2.23,2.24H34.22A2.18,2.18,0,0,1,32,152.12v0A2.17,2.17,0,0,1,34.22,149.86Z"/><path class="cls-9" d="M38.51,149.86h4.32a2.16,2.16,0,0,1,2.23,2.23v0a2.17,2.17,0,0,1-2.23,2.24H38.51a2.18,2.18,0,0,1-2.24-2.24v0A2.17,2.17,0,0,1,38.51,149.86Z"/><path class="cls-9" d="M42.8,149.86h8.46a2.16,2.16,0,0,1,2.23,2.23v0a2.17,2.17,0,0,1-2.23,2.24H42.8a2.18,2.18,0,0,1-2.24-2.24v0A2.17,2.17,0,0,1,42.8,149.86Z"/><path class="cls-9" d="M51.23,149.86h8.46a2.16,2.16,0,0,1,2.23,2.23v0a2.17,2.17,0,0,1-2.23,2.24H51.23A2.18,2.18,0,0,1,49,152.12v0A2.17,2.17,0,0,1,51.23,149.86Z"/><path class="cls-9" d="M59.66,149.86H64a2.16,2.16,0,0,1,2.23,2.23v0A2.17,2.17,0,0,1,64,154.36H59.66a2.18,2.18,0,0,1-2.24-2.24v0A2.17,2.17,0,0,1,59.66,149.86Z"/><path class="cls-9" d="M64,149.86h8.46a2.16,2.16,0,0,1,2.23,2.23v0a2.17,2.17,0,0,1-2.23,2.24H64a2.18,2.18,0,0,1-2.24-2.24v0A2.17,2.17,0,0,1,64,149.86Z"/><path class="cls-9" d="M72.38,149.86h8.46a2.16,2.16,0,0,1,2.23,2.23v0a2.17,2.17,0,0,1-2.23,2.24H72.38a2.18,2.18,0,0,1-2.24-2.24v0A2.17,2.17,0,0,1,72.38,149.86Z"/><path class="cls-9" d="M89.81,149.86h4.32a2.16,2.16,0,0,1,2.23,2.23v0a2.17,2.17,0,0,1-2.23,2.24H89.81a2.18,2.18,0,0,1-2.24-2.24v0A2.17,2.17,0,0,1,89.81,149.86Z"/><path class="cls-9" d="M94.1,149.86h8.46a2.16,2.16,0,0,1,2.23,2.23v0a2.17,2.17,0,0,1-2.23,2.24H94.1a2.18,2.18,0,0,1-2.24-2.24v0A2.17,2.17,0,0,1,94.1,149.86Z"/><path class="cls-9" d="M102.53,149.86H111a2.16,2.16,0,0,1,2.23,2.23v0a2.17,2.17,0,0,1-2.23,2.24h-8.46a2.18,2.18,0,0,1-2.24-2.24v0A2.17,2.17,0,0,1,102.53,149.86Z"/><path class="cls-9" d="M111,149.86h8.46a2.16,2.16,0,0,1,2.23,2.23v0a2.17,2.17,0,0,1-2.23,2.24H111a2.18,2.18,0,0,1-2.24-2.24v0A2.17,2.17,0,0,1,111,149.86Z"/><path class="cls-9" d="M119.39,149.86h4.32a2.16,2.16,0,0,1,2.23,2.23v0a2.17,2.17,0,0,1-2.23,2.24h-4.32a2.18,2.18,0,0,1-2.24-2.24v0A2.17,2.17,0,0,1,119.39,149.86Z"/><path class="cls-9" d="M123.68,149.86h8.46a2.16,2.16,0,0,1,2.23,2.23v0a2.17,2.17,0,0,1-2.23,2.24h-8.46a2.18,2.18,0,0,1-2.24-2.24v0A2.17,2.17,0,0,1,123.68,149.86Z"/><path class="cls-9" d="M141.11,149.86h8.46a2.16,2.16,0,0,1,2.23,2.23v0a2.17,2.17,0,0,1-2.23,2.24h-8.46a2.18,2.18,0,0,1-2.24-2.24v0A2.17,2.17,0,0,1,141.11,149.86Z"/><path class="cls-9" d="M149.54,149.86H158a2.16,2.16,0,0,1,2.23,2.23v0a2.17,2.17,0,0,1-2.23,2.24h-8.46a2.18,2.18,0,0,1-2.24-2.24v0A2.17,2.17,0,0,1,149.54,149.86Z"/><path class="cls-9" d="M158,149.86h4.32a2.16,2.16,0,0,1,2.23,2.23v0a2.17,2.17,0,0,1-2.23,2.24H158a2.18,2.18,0,0,1-2.24-2.24v0A2.17,2.17,0,0,1,158,149.86Z"/><path class="cls-9" d="M162.26,149.86h8.46a2.16,2.16,0,0,1,2.23,2.23v0a2.17,2.17,0,0,1-2.23,2.24h-8.46a2.18,2.18,0,0,1-2.24-2.24v0A2.17,2.17,0,0,1,162.26,149.86Z"/><path class="cls-9" d="M170.69,149.86h8.46a2.16,2.16,0,0,1,2.23,2.23v0a2.17,2.17,0,0,1-2.23,2.24h-8.46a2.18,2.18,0,0,1-2.24-2.24v0A2.17,2.17,0,0,1,170.69,149.86Z"/><path class="cls-9" d="M188.12,149.86h8.46a2.16,2.16,0,0,1,2.23,2.23v0a2.17,2.17,0,0,1-2.23,2.24h-8.46a2.18,2.18,0,0,1-2.24-2.24v0A2.17,2.17,0,0,1,188.12,149.86Z"/><path class="cls-9" d="M196.55,149.86h4.32a2.16,2.16,0,0,1,2.23,2.23v0a2.17,2.17,0,0,1-2.23,2.24h-4.32a2.18,2.18,0,0,1-2.24-2.24v0A2.17,2.17,0,0,1,196.55,149.86Z"/><path class="cls-9" d="M200.84,149.86h8.46a2.16,2.16,0,0,1,2.23,2.23v0a2.17,2.17,0,0,1-2.23,2.24h-8.46a2.18,2.18,0,0,1-2.24-2.24v0A2.17,2.17,0,0,1,200.84,149.86Z"/></g><g class="cls-6"><path class="cls-9" d="M17.36,173.86h8.46a2.16,2.16,0,0,1,2.23,2.23v0a2.17,2.17,0,0,1-2.23,2.24H17.36a2.18,2.18,0,0,1-2.24-2.24v0A2.17,2.17,0,0,1,17.36,173.86Z"/><path class="cls-9" d="M25.79,173.86h8.46a2.16,2.16,0,0,1,2.23,2.23v0a2.17,2.17,0,0,1-2.23,2.24H25.79a2.17,2.17,0,0,1-2.23-2.24v0A2.16,2.16,0,0,1,25.79,173.86Z"/><path class="cls-9" d="M34.22,173.86h8.46a2.16,2.16,0,0,1,2.23,2.23v0a2.17,2.17,0,0,1-2.23,2.24H34.22A2.18,2.18,0,0,1,32,176.12v0A2.17,2.17,0,0,1,34.22,173.86Z"/><path class="cls-9" d="M42.65,173.86h8.46a2.16,2.16,0,0,1,2.23,2.23v0a2.17,2.17,0,0,1-2.23,2.24H42.65a2.17,2.17,0,0,1-2.23-2.24v0A2.16,2.16,0,0,1,42.65,173.86Z"/><path class="cls-9" d="M51.08,173.86h8.46a2.16,2.16,0,0,1,2.23,2.23v0a2.17,2.17,0,0,1-2.23,2.24H51.08a2.18,2.18,0,0,1-2.24-2.24v0A2.17,2.17,0,0,1,51.08,173.86Z"/></g></g><g id="Card_Title" data-name="Card Title" class="cls-6"><g class="cls-6"><path class="cls-9" d="M25.88,32.82v3.9h-9v-3.9Z"/><path class="cls-9" d="M33.67,32.82v3.9h-9v-3.9Z"/><path class="cls-9" d="M37.38,32.82v3.9H32.5v-3.9Z"/><path class="cls-9" d="M45.17,32.82v3.9h-9v-3.9Z"/><path class="cls-9" d="M56.69,32.82v3.9H51.8v-3.9Z"/><path class="cls-9" d="M60.41,32.82v3.9H55.52v-3.9Z"/><path class="cls-9" d="M64.12,32.82v3.9H59.24v-3.9Z"/><path class="cls-9" d="M67.84,32.82v3.9H63v-3.9Z"/><path class="cls-9" d="M75.63,32.82v3.9h-9v-3.9Z"/></g></g><path id="ic_more_horiz_24px" data-name="ic more horiz 24px" class="cls-10" d="M256.28,44a1.8,1.8,0,1,0,3.48,0,1.8,1.8,0,1,0-3.48,0Zm0-13.53a1.8,1.8,0,1,0,3.48,0,1.8,1.8,0,1,0-3.48,0Zm0,6.77a1.8,1.8,0,1,0,3.48,0,1.8,1.8,0,1,0-3.48,0Z"/><g id="Meanwhile_Lieutenant_Hanna_Al_Pacino_attempts_to_track_down_McCauley_as_he_deals_with_the_chaos_in_his_own_life_including_the_infidelity_of_his_wife_Diane_Venora_and_the_mental_health_of_his_stepdaughter_Natalie_Portman_._McCauley_and_Hanna_discover" data-name="Meanwhile Lieutenant Hanna Al Pacino attempts to track down McCauley as he deals with the chaos in his own life including the infidelity of his wife Diane Venora and the mental health of his stepdaughter Natalie Portman . McCauley and Hanna discover" class="cls-6"><g class="cls-6"><path class="cls-9" d="M17.36,233.59h6.21a1.59,1.59,0,0,1,1.64,1.64v0a1.59,1.59,0,0,1-1.64,1.64H17.36a1.59,1.59,0,0,1-1.64-1.64v0A1.59,1.59,0,0,1,17.36,233.59Z"/><path class="cls-9" d="M23.55,233.59h6.2a1.59,1.59,0,0,1,1.64,1.64v0a1.59,1.59,0,0,1-1.64,1.64h-6.2a1.59,1.59,0,0,1-1.64-1.64v0A1.59,1.59,0,0,1,23.55,233.59Z"/><path class="cls-9" d="M29.73,233.59h6.2a1.59,1.59,0,0,1,1.64,1.64v0a1.59,1.59,0,0,1-1.64,1.64h-6.2a1.59,1.59,0,0,1-1.64-1.64v0A1.59,1.59,0,0,1,29.73,233.59Z"/><path class="cls-9" d="M35.91,233.59h6.2a1.59,1.59,0,0,1,1.64,1.64v0a1.59,1.59,0,0,1-1.64,1.64h-6.2a1.59,1.59,0,0,1-1.64-1.64v0A1.59,1.59,0,0,1,35.91,233.59Z"/><path class="cls-9" d="M42.09,233.59H48.3a1.59,1.59,0,0,1,1.64,1.64v0a1.59,1.59,0,0,1-1.64,1.64H42.09a1.59,1.59,0,0,1-1.64-1.64v0A1.59,1.59,0,0,1,42.09,233.59Z"/><path class="cls-9" d="M48.27,233.59h6.21a1.59,1.59,0,0,1,1.64,1.64v0a1.59,1.59,0,0,1-1.64,1.64H48.27a1.59,1.59,0,0,1-1.64-1.64v0A1.59,1.59,0,0,1,48.27,233.59Z"/><path class="cls-9" d="M54.46,233.59h3.16a1.59,1.59,0,0,1,1.64,1.64v0a1.59,1.59,0,0,1-1.64,1.64H54.46a1.59,1.59,0,0,1-1.64-1.64v0A1.59,1.59,0,0,1,54.46,233.59Z"/><path class="cls-9" d="M57.6,233.59h3.17a1.59,1.59,0,0,1,1.64,1.64v0a1.59,1.59,0,0,1-1.64,1.64H57.6A1.59,1.59,0,0,1,56,235.25v0A1.59,1.59,0,0,1,57.6,233.59Z"/><path class="cls-9" d="M60.75,233.59H67a1.59,1.59,0,0,1,1.64,1.64v0A1.59,1.59,0,0,1,67,236.89h-6.2a1.59,1.59,0,0,1-1.64-1.64v0A1.59,1.59,0,0,1,60.75,233.59Z"/><path class="cls-9" d="M66.93,233.59H70.1a1.59,1.59,0,0,1,1.64,1.64v0a1.59,1.59,0,0,1-1.64,1.64H66.93a1.59,1.59,0,0,1-1.64-1.64v0A1.59,1.59,0,0,1,66.93,233.59Z"/><path class="cls-9" d="M76.68,233.59h3.16a1.59,1.59,0,0,1,1.64,1.64v0a1.59,1.59,0,0,1-1.64,1.64H76.68A1.59,1.59,0,0,1,75,235.25v0A1.59,1.59,0,0,1,76.68,233.59Z"/><path class="cls-9" d="M79.82,233.59H83a1.59,1.59,0,0,1,1.64,1.64v0A1.59,1.59,0,0,1,83,236.89H79.82a1.59,1.59,0,0,1-1.64-1.64v0A1.59,1.59,0,0,1,79.82,233.59Z"/><path class="cls-9" d="M83,233.59h6.2a1.59,1.59,0,0,1,1.64,1.64v0a1.59,1.59,0,0,1-1.64,1.64H83a1.59,1.59,0,0,1-1.64-1.64v0A1.59,1.59,0,0,1,83,233.59Z"/><path class="cls-9" d="M89.15,233.59h6.2A1.59,1.59,0,0,1,97,235.23v0a1.59,1.59,0,0,1-1.64,1.64h-6.2a1.59,1.59,0,0,1-1.64-1.64v0A1.59,1.59,0,0,1,89.15,233.59Z"/><path class="cls-9" d="M95.33,233.59H98.5a1.59,1.59,0,0,1,1.64,1.64v0a1.59,1.59,0,0,1-1.64,1.64H95.33a1.59,1.59,0,0,1-1.64-1.64v0A1.59,1.59,0,0,1,95.33,233.59Z"/><path class="cls-9" d="M98.48,233.59h6.2a1.59,1.59,0,0,1,1.64,1.64v0a1.59,1.59,0,0,1-1.64,1.64h-6.2a1.59,1.59,0,0,1-1.64-1.64v0A1.59,1.59,0,0,1,98.48,233.59Z"/><path class="cls-9" d="M104.66,233.59h6.2a1.59,1.59,0,0,1,1.64,1.64v0a1.59,1.59,0,0,1-1.64,1.64h-6.2a1.59,1.59,0,0,1-1.64-1.64v0A1.59,1.59,0,0,1,104.66,233.59Z"/><path class="cls-9" d="M110.84,233.59h6.21a1.59,1.59,0,0,1,1.64,1.64v0a1.59,1.59,0,0,1-1.64,1.64h-6.21a1.59,1.59,0,0,1-1.64-1.64v0A1.59,1.59,0,0,1,110.84,233.59Z"/><path class="cls-9" d="M117,233.59h6.21a1.59,1.59,0,0,1,1.64,1.64v0a1.59,1.59,0,0,1-1.64,1.64H117a1.59,1.59,0,0,1-1.64-1.64v0A1.59,1.59,0,0,1,117,233.59Z"/><path class="cls-9" d="M123.21,233.59h3.16a1.59,1.59,0,0,1,1.64,1.64v0a1.59,1.59,0,0,1-1.64,1.64h-3.16a1.59,1.59,0,0,1-1.64-1.64v0A1.59,1.59,0,0,1,123.21,233.59Z"/><path class="cls-9" d="M133,233.59h6.21a1.58,1.58,0,0,1,1.63,1.64v0a1.58,1.58,0,0,1-1.63,1.64H133a1.59,1.59,0,0,1-1.64-1.64v0A1.59,1.59,0,0,1,133,233.59Z"/><path class="cls-9" d="M139.13,233.59h6.21a1.59,1.59,0,0,1,1.64,1.64v0a1.59,1.59,0,0,1-1.64,1.64h-6.21a1.59,1.59,0,0,1-1.64-1.64v0A1.59,1.59,0,0,1,139.13,233.59Z"/><path class="cls-9" d="M145.31,233.59h6.21a1.59,1.59,0,0,1,1.64,1.64v0a1.59,1.59,0,0,1-1.64,1.64h-6.21a1.58,1.58,0,0,1-1.63-1.64v0A1.58,1.58,0,0,1,145.31,233.59Z"/><path class="cls-9" d="M151.5,233.59h6.2a1.59,1.59,0,0,1,1.64,1.64v0a1.59,1.59,0,0,1-1.64,1.64h-6.2a1.59,1.59,0,0,1-1.64-1.64v0A1.59,1.59,0,0,1,151.5,233.59Z"/><path class="cls-9" d="M157.68,233.59h6.2a1.59,1.59,0,0,1,1.64,1.64v0a1.59,1.59,0,0,1-1.64,1.64h-6.2a1.59,1.59,0,0,1-1.64-1.64v0A1.59,1.59,0,0,1,157.68,233.59Z"/><path class="cls-9" d="M170.46,233.59h3.17a1.59,1.59,0,0,1,1.64,1.64v0a1.59,1.59,0,0,1-1.64,1.64h-3.17a1.59,1.59,0,0,1-1.64-1.64v0A1.59,1.59,0,0,1,170.46,233.59Z"/><path class="cls-9" d="M173.61,233.59h6.2a1.59,1.59,0,0,1,1.64,1.64v0a1.59,1.59,0,0,1-1.64,1.64h-6.2a1.59,1.59,0,0,1-1.64-1.64v0A1.59,1.59,0,0,1,173.61,233.59Z"/><path class="cls-9" d="M179.79,233.59H183a1.59,1.59,0,0,1,1.64,1.64v0a1.59,1.59,0,0,1-1.64,1.64h-3.17a1.59,1.59,0,0,1-1.64-1.64v0A1.59,1.59,0,0,1,179.79,233.59Z"/><path class="cls-9" d="M189.53,233.59h6.21a1.59,1.59,0,0,1,1.64,1.64v0a1.59,1.59,0,0,1-1.64,1.64h-6.21a1.59,1.59,0,0,1-1.64-1.64v0A1.59,1.59,0,0,1,189.53,233.59Z"/><path class="cls-9" d="M195.72,233.59h6.2a1.59,1.59,0,0,1,1.64,1.64v0a1.59,1.59,0,0,1-1.64,1.64h-6.2a1.59,1.59,0,0,1-1.64-1.64v0A1.59,1.59,0,0,1,195.72,233.59Z"/><path class="cls-9" d="M201.9,233.59h6.2a1.59,1.59,0,0,1,1.64,1.64v0a1.59,1.59,0,0,1-1.64,1.64h-6.2a1.59,1.59,0,0,1-1.64-1.64v0A1.59,1.59,0,0,1,201.9,233.59Z"/><path class="cls-9" d="M208.08,233.59h3.17a1.59,1.59,0,0,1,1.64,1.64v0a1.59,1.59,0,0,1-1.64,1.64h-3.17a1.59,1.59,0,0,1-1.64-1.64v0A1.59,1.59,0,0,1,208.08,233.59Z"/><path class="cls-9" d="M211.23,233.59h6.2a1.59,1.59,0,0,1,1.64,1.64v0a1.59,1.59,0,0,1-1.64,1.64h-6.2a1.59,1.59,0,0,1-1.64-1.64v0A1.59,1.59,0,0,1,211.23,233.59Z"/><path class="cls-9" d="M217.41,233.59h6.2a1.59,1.59,0,0,1,1.64,1.64v0a1.59,1.59,0,0,1-1.64,1.64h-6.2a1.59,1.59,0,0,1-1.64-1.64v0A1.59,1.59,0,0,1,217.41,233.59Z"/><path class="cls-9" d="M223.59,233.59h3.17a1.59,1.59,0,0,1,1.64,1.64v0a1.59,1.59,0,0,1-1.64,1.64h-3.17a1.59,1.59,0,0,1-1.64-1.64v0A1.59,1.59,0,0,1,223.59,233.59Z"/></g><g class="cls-6"><path class="cls-9" d="M17.36,253.59h6.21a1.59,1.59,0,0,1,1.64,1.64v0a1.59,1.59,0,0,1-1.64,1.64H17.36a1.59,1.59,0,0,1-1.64-1.64v0A1.59,1.59,0,0,1,17.36,253.59Z"/><path class="cls-9" d="M23.55,253.59h3.16a1.59,1.59,0,0,1,1.64,1.64v0a1.59,1.59,0,0,1-1.64,1.64H23.55a1.59,1.59,0,0,1-1.64-1.64v0A1.59,1.59,0,0,1,23.55,253.59Z"/><path class="cls-9" d="M26.69,253.59h3.17a1.59,1.59,0,0,1,1.64,1.64v0a1.59,1.59,0,0,1-1.64,1.64H26.69a1.59,1.59,0,0,1-1.64-1.64v0A1.59,1.59,0,0,1,26.69,253.59Z"/><path class="cls-9" d="M29.84,253.59H36a1.59,1.59,0,0,1,1.64,1.64v0A1.59,1.59,0,0,1,36,256.89h-6.2a1.59,1.59,0,0,1-1.64-1.64v0A1.59,1.59,0,0,1,29.84,253.59Z"/><path class="cls-9" d="M36,253.59h6.2a1.59,1.59,0,0,1,1.64,1.64v0a1.59,1.59,0,0,1-1.64,1.64H36a1.59,1.59,0,0,1-1.64-1.64v0A1.59,1.59,0,0,1,36,253.59Z"/><path class="cls-9" d="M42.2,253.59h6.21a1.59,1.59,0,0,1,1.64,1.64v0a1.59,1.59,0,0,1-1.64,1.64H42.2a1.59,1.59,0,0,1-1.64-1.64v0A1.59,1.59,0,0,1,42.2,253.59Z"/><path class="cls-9" d="M48.38,253.59h3.17a1.59,1.59,0,0,1,1.64,1.64v0a1.59,1.59,0,0,1-1.64,1.64H48.38a1.59,1.59,0,0,1-1.64-1.64v0A1.59,1.59,0,0,1,48.38,253.59Z"/><path class="cls-9" d="M51.53,253.59h6.2a1.59,1.59,0,0,1,1.64,1.64v0a1.59,1.59,0,0,1-1.64,1.64h-6.2a1.59,1.59,0,0,1-1.64-1.64v0A1.59,1.59,0,0,1,51.53,253.59Z"/><path class="cls-9" d="M64.31,253.59h3.17a1.59,1.59,0,0,1,1.64,1.64v0a1.59,1.59,0,0,1-1.64,1.64H64.31a1.59,1.59,0,0,1-1.64-1.64v0A1.59,1.59,0,0,1,64.31,253.59Z"/><path class="cls-9" d="M67.46,253.59h6.2a1.59,1.59,0,0,1,1.64,1.64v0a1.59,1.59,0,0,1-1.64,1.64h-6.2a1.59,1.59,0,0,1-1.64-1.64v0A1.59,1.59,0,0,1,67.46,253.59Z"/><path class="cls-9" d="M80.24,253.59h3.17a1.59,1.59,0,0,1,1.64,1.64v0a1.59,1.59,0,0,1-1.64,1.64H80.24a1.59,1.59,0,0,1-1.64-1.64v0A1.59,1.59,0,0,1,80.24,253.59Z"/><path class="cls-9" d="M83.39,253.59h3.16a1.59,1.59,0,0,1,1.64,1.64v0a1.59,1.59,0,0,1-1.64,1.64H83.39a1.59,1.59,0,0,1-1.64-1.64v0A1.59,1.59,0,0,1,83.39,253.59Z"/><path class="cls-9" d="M86.53,253.59h6.21a1.59,1.59,0,0,1,1.64,1.64v0a1.59,1.59,0,0,1-1.64,1.64H86.53a1.59,1.59,0,0,1-1.64-1.64v0A1.59,1.59,0,0,1,86.53,253.59Z"/><path class="cls-9" d="M92.71,253.59h6.21a1.59,1.59,0,0,1,1.64,1.64v0a1.59,1.59,0,0,1-1.64,1.64H92.71a1.59,1.59,0,0,1-1.64-1.64v0A1.59,1.59,0,0,1,92.71,253.59Z"/><path class="cls-9" d="M98.9,253.59h6.2a1.59,1.59,0,0,1,1.64,1.64v0a1.59,1.59,0,0,1-1.64,1.64H98.9a1.59,1.59,0,0,1-1.64-1.64v0A1.59,1.59,0,0,1,98.9,253.59Z"/><path class="cls-9" d="M111.68,253.59h6.2a1.59,1.59,0,0,1,1.64,1.64v0a1.59,1.59,0,0,1-1.64,1.64h-6.2a1.59,1.59,0,0,1-1.64-1.64v0A1.59,1.59,0,0,1,111.68,253.59Z"/><path class="cls-9" d="M117.86,253.59h6.2a1.59,1.59,0,0,1,1.64,1.64v0a1.59,1.59,0,0,1-1.64,1.64h-6.2a1.59,1.59,0,0,1-1.64-1.64v0A1.59,1.59,0,0,1,117.86,253.59Z"/><path class="cls-9" d="M124,253.59h6.21a1.58,1.58,0,0,1,1.63,1.64v0a1.58,1.58,0,0,1-1.63,1.64H124a1.59,1.59,0,0,1-1.64-1.64v0A1.59,1.59,0,0,1,124,253.59Z"/><path class="cls-9" d="M130.22,253.59h6.21a1.59,1.59,0,0,1,1.64,1.64v0a1.59,1.59,0,0,1-1.64,1.64h-6.21a1.59,1.59,0,0,1-1.64-1.64v0A1.59,1.59,0,0,1,130.22,253.59Z"/><path class="cls-9" d="M143,253.59h6.21a1.59,1.59,0,0,1,1.64,1.64v0a1.59,1.59,0,0,1-1.64,1.64H143a1.58,1.58,0,0,1-1.63-1.64v0A1.58,1.58,0,0,1,143,253.59Z"/><path class="cls-9" d="M149.19,253.59h6.2a1.59,1.59,0,0,1,1.64,1.64v0a1.59,1.59,0,0,1-1.64,1.64h-6.2a1.59,1.59,0,0,1-1.64-1.64v0A1.59,1.59,0,0,1,149.19,253.59Z"/><path class="cls-9" d="M155.37,253.59h6.2a1.59,1.59,0,0,1,1.64,1.64v0a1.59,1.59,0,0,1-1.64,1.64h-6.2a1.59,1.59,0,0,1-1.64-1.64v0A1.59,1.59,0,0,1,155.37,253.59Z"/><path class="cls-9" d="M161.55,253.59h6.21a1.58,1.58,0,0,1,1.63,1.64v0a1.58,1.58,0,0,1-1.63,1.64h-6.21a1.59,1.59,0,0,1-1.64-1.64v0A1.59,1.59,0,0,1,161.55,253.59Z"/><path class="cls-9" d="M167.73,253.59h6.21a1.59,1.59,0,0,1,1.64,1.64v0a1.59,1.59,0,0,1-1.64,1.64h-6.21a1.59,1.59,0,0,1-1.64-1.64v0A1.59,1.59,0,0,1,167.73,253.59Z"/><path class="cls-9" d="M173.91,253.59h3.17a1.59,1.59,0,0,1,1.64,1.64v0a1.59,1.59,0,0,1-1.64,1.64h-3.17a1.58,1.58,0,0,1-1.63-1.64v0A1.58,1.58,0,0,1,173.91,253.59Z"/><path class="cls-9" d="M177.06,253.59h6.21a1.58,1.58,0,0,1,1.63,1.64v0a1.58,1.58,0,0,1-1.63,1.64h-6.21a1.59,1.59,0,0,1-1.64-1.64v0A1.59,1.59,0,0,1,177.06,253.59Z"/><path class="cls-9" d="M183.24,253.59h6.21a1.59,1.59,0,0,1,1.64,1.64v0a1.59,1.59,0,0,1-1.64,1.64h-6.21a1.59,1.59,0,0,1-1.64-1.64v0A1.59,1.59,0,0,1,183.24,253.59Z"/><path class="cls-9" d="M196,253.59h6.21a1.59,1.59,0,0,1,1.64,1.64v0a1.59,1.59,0,0,1-1.64,1.64H196a1.59,1.59,0,0,1-1.64-1.64v0A1.59,1.59,0,0,1,196,253.59Z"/><path class="cls-9" d="M202.21,253.59h6.2a1.59,1.59,0,0,1,1.64,1.64v0a1.59,1.59,0,0,1-1.64,1.64h-6.2a1.59,1.59,0,0,1-1.64-1.64v0A1.59,1.59,0,0,1,202.21,253.59Z"/><path class="cls-9" d="M215,253.59h6.2a1.59,1.59,0,0,1,1.64,1.64v0a1.59,1.59,0,0,1-1.64,1.64H215a1.59,1.59,0,0,1-1.64-1.64v0A1.59,1.59,0,0,1,215,253.59Z"/><path class="cls-9" d="M221.17,253.59h6.2a1.59,1.59,0,0,1,1.64,1.64v0a1.59,1.59,0,0,1-1.64,1.64h-6.2a1.59,1.59,0,0,1-1.64-1.64v0A1.59,1.59,0,0,1,221.17,253.59Z"/></g><g class="cls-6"><path class="cls-9" d="M17.36,273.59h6.21a1.59,1.59,0,0,1,1.64,1.64v0a1.59,1.59,0,0,1-1.64,1.64H17.36a1.59,1.59,0,0,1-1.64-1.64v0A1.59,1.59,0,0,1,17.36,273.59Z"/><path class="cls-9" d="M23.55,273.59h6.2a1.59,1.59,0,0,1,1.64,1.64v0a1.59,1.59,0,0,1-1.64,1.64h-6.2a1.59,1.59,0,0,1-1.64-1.64v0A1.59,1.59,0,0,1,23.55,273.59Z"/><path class="cls-9" d="M29.73,273.59h6.2a1.59,1.59,0,0,1,1.64,1.64v0a1.59,1.59,0,0,1-1.64,1.64h-6.2a1.59,1.59,0,0,1-1.64-1.64v0A1.59,1.59,0,0,1,29.73,273.59Z"/><path class="cls-9" d="M35.91,273.59h3.17a1.59,1.59,0,0,1,1.64,1.64v0a1.59,1.59,0,0,1-1.64,1.64H35.91a1.59,1.59,0,0,1-1.64-1.64v0A1.59,1.59,0,0,1,35.91,273.59Z"/><path class="cls-9" d="M39.06,273.59h6.2a1.59,1.59,0,0,1,1.64,1.64v0a1.59,1.59,0,0,1-1.64,1.64h-6.2a1.59,1.59,0,0,1-1.64-1.64v0A1.59,1.59,0,0,1,39.06,273.59Z"/><path class="cls-9" d="M51.84,273.59H58a1.59,1.59,0,0,1,1.64,1.64v0A1.59,1.59,0,0,1,58,276.89h-6.2a1.59,1.59,0,0,1-1.64-1.64v0A1.59,1.59,0,0,1,51.84,273.59Z"/><path class="cls-9" d="M58,273.59h3.17a1.59,1.59,0,0,1,1.64,1.64v0a1.59,1.59,0,0,1-1.64,1.64H58a1.59,1.59,0,0,1-1.64-1.64v0A1.59,1.59,0,0,1,58,273.59Z"/><path class="cls-9" d="M61.17,273.59h3.16A1.59,1.59,0,0,1,66,275.23v0a1.59,1.59,0,0,1-1.64,1.64H61.17a1.59,1.59,0,0,1-1.64-1.64v0A1.59,1.59,0,0,1,61.17,273.59Z"/><path class="cls-9" d="M64.31,273.59h6.21a1.59,1.59,0,0,1,1.64,1.64v0a1.59,1.59,0,0,1-1.64,1.64H64.31a1.59,1.59,0,0,1-1.64-1.64v0A1.59,1.59,0,0,1,64.31,273.59Z"/><path class="cls-9" d="M77.09,273.59h3.17a1.59,1.59,0,0,1,1.64,1.64v0a1.59,1.59,0,0,1-1.64,1.64H77.09a1.59,1.59,0,0,1-1.64-1.64v0A1.59,1.59,0,0,1,77.09,273.59Z"/><path class="cls-9" d="M80.24,273.59h6.2a1.59,1.59,0,0,1,1.64,1.64v0a1.59,1.59,0,0,1-1.64,1.64h-6.2a1.59,1.59,0,0,1-1.64-1.64v0A1.59,1.59,0,0,1,80.24,273.59Z"/><path class="cls-9" d="M86.42,273.59h6.21a1.59,1.59,0,0,1,1.64,1.64v0a1.59,1.59,0,0,1-1.64,1.64H86.42a1.59,1.59,0,0,1-1.64-1.64v0A1.59,1.59,0,0,1,86.42,273.59Z"/><path class="cls-9" d="M99.2,273.59h6.21a1.59,1.59,0,0,1,1.64,1.64v0a1.59,1.59,0,0,1-1.64,1.64H99.2a1.59,1.59,0,0,1-1.64-1.64v0A1.59,1.59,0,0,1,99.2,273.59Z"/><path class="cls-9" d="M105.38,273.59h6.21a1.59,1.59,0,0,1,1.64,1.64v0a1.59,1.59,0,0,1-1.64,1.64h-6.21a1.58,1.58,0,0,1-1.63-1.64v0A1.58,1.58,0,0,1,105.38,273.59Z"/><path class="cls-9" d="M111.57,273.59h6.2a1.59,1.59,0,0,1,1.64,1.64v0a1.59,1.59,0,0,1-1.64,1.64h-6.2a1.59,1.59,0,0,1-1.64-1.64v0A1.59,1.59,0,0,1,111.57,273.59Z"/><path class="cls-9" d="M117.75,273.59H124a1.59,1.59,0,0,1,1.64,1.64v0a1.59,1.59,0,0,1-1.64,1.64h-6.2a1.59,1.59,0,0,1-1.64-1.64v0A1.59,1.59,0,0,1,117.75,273.59Z"/><path class="cls-9" d="M123.93,273.59h6.21a1.59,1.59,0,0,1,1.64,1.64v0a1.59,1.59,0,0,1-1.64,1.64h-6.21a1.59,1.59,0,0,1-1.64-1.64v0A1.59,1.59,0,0,1,123.93,273.59Z"/><path class="cls-9" d="M136.71,273.59h3.17a1.59,1.59,0,0,1,1.64,1.64v0a1.59,1.59,0,0,1-1.64,1.64h-3.17a1.59,1.59,0,0,1-1.64-1.64v0A1.59,1.59,0,0,1,136.71,273.59Z"/><path class="cls-9" d="M139.86,273.59h6.2a1.59,1.59,0,0,1,1.64,1.64v0a1.59,1.59,0,0,1-1.64,1.64h-6.2a1.59,1.59,0,0,1-1.64-1.64v0A1.59,1.59,0,0,1,139.86,273.59Z"/><path class="cls-9" d="M152.64,273.59h6.21a1.58,1.58,0,0,1,1.63,1.64v0a1.58,1.58,0,0,1-1.63,1.64h-6.21a1.59,1.59,0,0,1-1.64-1.64v0A1.59,1.59,0,0,1,152.64,273.59Z"/><path class="cls-9" d="M158.82,273.59H162a1.59,1.59,0,0,1,1.64,1.64v0a1.59,1.59,0,0,1-1.64,1.64h-3.17a1.59,1.59,0,0,1-1.64-1.64v0A1.59,1.59,0,0,1,158.82,273.59Z"/><path class="cls-9" d="M162,273.59h6.2a1.59,1.59,0,0,1,1.64,1.64v0a1.59,1.59,0,0,1-1.64,1.64H162a1.59,1.59,0,0,1-1.64-1.64v0A1.59,1.59,0,0,1,162,273.59Z"/><path class="cls-9" d="M174.75,273.59H181a1.58,1.58,0,0,1,1.63,1.64v0a1.58,1.58,0,0,1-1.63,1.64h-6.21a1.59,1.59,0,0,1-1.64-1.64v0A1.59,1.59,0,0,1,174.75,273.59Z"/><path class="cls-9" d="M180.93,273.59h6.21a1.59,1.59,0,0,1,1.64,1.64v0a1.59,1.59,0,0,1-1.64,1.64h-6.21a1.59,1.59,0,0,1-1.64-1.64v0A1.59,1.59,0,0,1,180.93,273.59Z"/><path class="cls-9" d="M187.11,273.59h6.21a1.59,1.59,0,0,1,1.64,1.64v0a1.59,1.59,0,0,1-1.64,1.64h-6.21a1.59,1.59,0,0,1-1.64-1.64v0A1.59,1.59,0,0,1,187.11,273.59Z"/><path class="cls-9" d="M199.9,273.59h3.16a1.59,1.59,0,0,1,1.64,1.64v0a1.59,1.59,0,0,1-1.64,1.64H199.9a1.59,1.59,0,0,1-1.64-1.64v0A1.59,1.59,0,0,1,199.9,273.59Z"/><path class="cls-9" d="M203,273.59h3.17a1.59,1.59,0,0,1,1.64,1.64v0a1.59,1.59,0,0,1-1.64,1.64H203a1.59,1.59,0,0,1-1.64-1.64v0A1.59,1.59,0,0,1,203,273.59Z"/><path class="cls-9" d="M206.19,273.59h3.17a1.59,1.59,0,0,1,1.64,1.64v0a1.59,1.59,0,0,1-1.64,1.64h-3.17a1.59,1.59,0,0,1-1.64-1.64v0A1.59,1.59,0,0,1,206.19,273.59Z"/><path class="cls-9" d="M209.33,273.59h6.21a1.59,1.59,0,0,1,1.64,1.64v0a1.59,1.59,0,0,1-1.64,1.64h-6.21a1.58,1.58,0,0,1-1.63-1.64v0A1.58,1.58,0,0,1,209.33,273.59Z"/><path class="cls-9" d="M215.52,273.59h3.16a1.59,1.59,0,0,1,1.64,1.64v0a1.59,1.59,0,0,1-1.64,1.64h-3.16a1.59,1.59,0,0,1-1.64-1.64v0A1.59,1.59,0,0,1,215.52,273.59Z"/></g><g class="cls-6"><path class="cls-9" d="M17.36,293.59h3.17a1.59,1.59,0,0,1,1.64,1.64v0a1.59,1.59,0,0,1-1.64,1.64H17.36a1.59,1.59,0,0,1-1.64-1.64v0A1.59,1.59,0,0,1,17.36,293.59Z"/><path class="cls-9" d="M20.51,293.59h6.2a1.59,1.59,0,0,1,1.64,1.64v0a1.59,1.59,0,0,1-1.64,1.64h-6.2a1.59,1.59,0,0,1-1.64-1.64v0A1.59,1.59,0,0,1,20.51,293.59Z"/><path class="cls-9" d="M26.69,293.59H32.9a1.59,1.59,0,0,1,1.64,1.64v0a1.59,1.59,0,0,1-1.64,1.64H26.69a1.59,1.59,0,0,1-1.64-1.64v0A1.59,1.59,0,0,1,26.69,293.59Z"/><path class="cls-9" d="M32.87,293.59H36a1.59,1.59,0,0,1,1.64,1.64v0A1.59,1.59,0,0,1,36,296.89H32.87a1.59,1.59,0,0,1-1.64-1.64v0A1.59,1.59,0,0,1,32.87,293.59Z"/><path class="cls-9" d="M36,293.59h6.2a1.59,1.59,0,0,1,1.64,1.64v0a1.59,1.59,0,0,1-1.64,1.64H36a1.59,1.59,0,0,1-1.64-1.64v0A1.59,1.59,0,0,1,36,293.59Z"/><path class="cls-9" d="M42.2,293.59h6.21a1.59,1.59,0,0,1,1.64,1.64v0a1.59,1.59,0,0,1-1.64,1.64H42.2a1.59,1.59,0,0,1-1.64-1.64v0A1.59,1.59,0,0,1,42.2,293.59Z"/><path class="cls-9" d="M48.38,293.59h3.17a1.59,1.59,0,0,1,1.64,1.64v0a1.59,1.59,0,0,1-1.64,1.64H48.38a1.59,1.59,0,0,1-1.64-1.64v0A1.59,1.59,0,0,1,48.38,293.59Z"/><path class="cls-9" d="M51.53,293.59h6.2a1.59,1.59,0,0,1,1.64,1.64v0a1.59,1.59,0,0,1-1.64,1.64h-6.2a1.59,1.59,0,0,1-1.64-1.64v0A1.59,1.59,0,0,1,51.53,293.59Z"/><path class="cls-9" d="M57.71,293.59h6.21a1.59,1.59,0,0,1,1.64,1.64v0a1.59,1.59,0,0,1-1.64,1.64H57.71a1.59,1.59,0,0,1-1.64-1.64v0A1.59,1.59,0,0,1,57.71,293.59Z"/><path class="cls-9" d="M70.49,293.59h3.17a1.59,1.59,0,0,1,1.64,1.64v0a1.59,1.59,0,0,1-1.64,1.64H70.49a1.59,1.59,0,0,1-1.64-1.64v0A1.59,1.59,0,0,1,70.49,293.59Z"/><path class="cls-9" d="M73.64,293.59h6.2a1.59,1.59,0,0,1,1.64,1.64v0a1.59,1.59,0,0,1-1.64,1.64h-6.2A1.59,1.59,0,0,1,72,295.25v0A1.59,1.59,0,0,1,73.64,293.59Z"/><path class="cls-9" d="M79.82,293.59H86a1.59,1.59,0,0,1,1.64,1.64v0A1.59,1.59,0,0,1,86,296.89H79.82a1.59,1.59,0,0,1-1.64-1.64v0A1.59,1.59,0,0,1,79.82,293.59Z"/><path class="cls-9" d="M92.6,293.59h3.17a1.59,1.59,0,0,1,1.64,1.64v0a1.59,1.59,0,0,1-1.64,1.64H92.6A1.59,1.59,0,0,1,91,295.25v0A1.59,1.59,0,0,1,92.6,293.59Z"/><path class="cls-9" d="M95.75,293.59H102a1.59,1.59,0,0,1,1.64,1.64v0a1.59,1.59,0,0,1-1.64,1.64h-6.2a1.59,1.59,0,0,1-1.64-1.64v0A1.59,1.59,0,0,1,95.75,293.59Z"/><path class="cls-9" d="M101.93,293.59h3.17a1.59,1.59,0,0,1,1.64,1.64v0a1.59,1.59,0,0,1-1.64,1.64h-3.17a1.59,1.59,0,0,1-1.64-1.64v0A1.59,1.59,0,0,1,101.93,293.59Z"/><path class="cls-9" d="M105.08,293.59h3.17a1.59,1.59,0,0,1,1.64,1.64v0a1.59,1.59,0,0,1-1.64,1.64h-3.17a1.59,1.59,0,0,1-1.64-1.64v0A1.59,1.59,0,0,1,105.08,293.59Z"/><path class="cls-9" d="M108.22,293.59h6.21a1.59,1.59,0,0,1,1.64,1.64v0a1.59,1.59,0,0,1-1.64,1.64h-6.21a1.59,1.59,0,0,1-1.64-1.64v0A1.59,1.59,0,0,1,108.22,293.59Z"/><path class="cls-9" d="M114.4,293.59h6.21a1.59,1.59,0,0,1,1.64,1.64v0a1.59,1.59,0,0,1-1.64,1.64H114.4a1.58,1.58,0,0,1-1.63-1.64v0A1.58,1.58,0,0,1,114.4,293.59Z"/><path class="cls-9" d="M120.59,293.59h3.17a1.58,1.58,0,0,1,1.63,1.64v0a1.58,1.58,0,0,1-1.63,1.64h-3.17a1.59,1.59,0,0,1-1.64-1.64v0A1.59,1.59,0,0,1,120.59,293.59Z"/><path class="cls-9" d="M123.73,293.59h3.17a1.59,1.59,0,0,1,1.64,1.64v0a1.59,1.59,0,0,1-1.64,1.64h-3.17a1.59,1.59,0,0,1-1.64-1.64v0A1.59,1.59,0,0,1,123.73,293.59Z"/><path class="cls-9" d="M126.88,293.59h3.17a1.59,1.59,0,0,1,1.64,1.64v0a1.59,1.59,0,0,1-1.64,1.64h-3.17a1.59,1.59,0,0,1-1.64-1.64v0A1.59,1.59,0,0,1,126.88,293.59Z"/><path class="cls-9" d="M130,293.59h6.21a1.59,1.59,0,0,1,1.64,1.64v0a1.59,1.59,0,0,1-1.64,1.64H130a1.59,1.59,0,0,1-1.64-1.64v0A1.59,1.59,0,0,1,130,293.59Z"/><path class="cls-9" d="M142.81,293.59H149a1.59,1.59,0,0,1,1.64,1.64v0a1.59,1.59,0,0,1-1.64,1.64h-6.2a1.59,1.59,0,0,1-1.64-1.64v0A1.59,1.59,0,0,1,142.81,293.59Z"/><path class="cls-9" d="M149,293.59h3.17a1.59,1.59,0,0,1,1.64,1.64v0a1.59,1.59,0,0,1-1.64,1.64H149a1.59,1.59,0,0,1-1.64-1.64v0A1.59,1.59,0,0,1,149,293.59Z"/><path class="cls-9" d="M158.73,293.59h6.21a1.59,1.59,0,0,1,1.64,1.64v0a1.59,1.59,0,0,1-1.64,1.64h-6.21a1.58,1.58,0,0,1-1.63-1.64v0A1.58,1.58,0,0,1,158.73,293.59Z"/><path class="cls-9" d="M164.92,293.59h3.16a1.59,1.59,0,0,1,1.64,1.64v0a1.59,1.59,0,0,1-1.64,1.64h-3.16a1.59,1.59,0,0,1-1.64-1.64v0A1.59,1.59,0,0,1,164.92,293.59Z"/><path class="cls-9" d="M168.06,293.59h6.21a1.59,1.59,0,0,1,1.64,1.64v0a1.59,1.59,0,0,1-1.64,1.64h-6.21a1.59,1.59,0,0,1-1.64-1.64v0A1.59,1.59,0,0,1,168.06,293.59Z"/><path class="cls-9" d="M180.84,293.59h6.21a1.59,1.59,0,0,1,1.64,1.64v0a1.59,1.59,0,0,1-1.64,1.64h-6.21a1.58,1.58,0,0,1-1.63-1.64v0A1.58,1.58,0,0,1,180.84,293.59Z"/><path class="cls-9" d="M187,293.59h3.16a1.59,1.59,0,0,1,1.64,1.64v0a1.59,1.59,0,0,1-1.64,1.64H187a1.59,1.59,0,0,1-1.64-1.64v0A1.59,1.59,0,0,1,187,293.59Z"/><path class="cls-9" d="M190.17,293.59h3.17a1.59,1.59,0,0,1,1.64,1.64v0a1.59,1.59,0,0,1-1.64,1.64h-3.17a1.59,1.59,0,0,1-1.64-1.64v0A1.59,1.59,0,0,1,190.17,293.59Z"/><path class="cls-9" d="M193.32,293.59h6.2a1.59,1.59,0,0,1,1.64,1.64v0a1.59,1.59,0,0,1-1.64,1.64h-6.2a1.59,1.59,0,0,1-1.64-1.64v0A1.59,1.59,0,0,1,193.32,293.59Z"/><path class="cls-9" d="M206.1,293.59h3.17a1.59,1.59,0,0,1,1.64,1.64v0a1.59,1.59,0,0,1-1.64,1.64H206.1a1.59,1.59,0,0,1-1.64-1.64v0A1.59,1.59,0,0,1,206.1,293.59Z"/><path class="cls-9" d="M209.25,293.59h6.2a1.59,1.59,0,0,1,1.64,1.64v0a1.59,1.59,0,0,1-1.64,1.64h-6.2a1.59,1.59,0,0,1-1.64-1.64v0A1.59,1.59,0,0,1,209.25,293.59Z"/><path class="cls-9" d="M215.43,293.59h3.17a1.59,1.59,0,0,1,1.64,1.64v0a1.59,1.59,0,0,1-1.64,1.64h-3.17a1.59,1.59,0,0,1-1.64-1.64v0A1.59,1.59,0,0,1,215.43,293.59Z"/><path class="cls-9" d="M218.57,293.59h6.21a1.59,1.59,0,0,1,1.64,1.64v0a1.59,1.59,0,0,1-1.64,1.64h-6.21a1.59,1.59,0,0,1-1.64-1.64v0A1.59,1.59,0,0,1,218.57,293.59Z"/><path class="cls-9" d="M224.76,293.59H231a1.59,1.59,0,0,1,1.64,1.64v0a1.59,1.59,0,0,1-1.64,1.64h-6.2a1.59,1.59,0,0,1-1.64-1.64v0A1.59,1.59,0,0,1,224.76,293.59Z"/><path class="cls-9" d="M230.94,293.59h6.2a1.59,1.59,0,0,1,1.64,1.64v0a1.59,1.59,0,0,1-1.64,1.64h-6.2a1.59,1.59,0,0,1-1.64-1.64v0A1.59,1.59,0,0,1,230.94,293.59Z"/></g><g class="cls-6"><path class="cls-9" d="M17.36,313.59h6.21a1.59,1.59,0,0,1,1.64,1.64v0a1.59,1.59,0,0,1-1.64,1.64H17.36a1.59,1.59,0,0,1-1.64-1.64v0A1.59,1.59,0,0,1,17.36,313.59Z"/><path class="cls-9" d="M23.55,313.59h6.2a1.59,1.59,0,0,1,1.64,1.64v0a1.59,1.59,0,0,1-1.64,1.64h-6.2a1.59,1.59,0,0,1-1.64-1.64v0A1.59,1.59,0,0,1,23.55,313.59Z"/><path class="cls-9" d="M29.73,313.59h6.2a1.59,1.59,0,0,1,1.64,1.64v0a1.59,1.59,0,0,1-1.64,1.64h-6.2a1.59,1.59,0,0,1-1.64-1.64v0A1.59,1.59,0,0,1,29.73,313.59Z"/><path class="cls-9" d="M35.91,313.59h6.2a1.59,1.59,0,0,1,1.64,1.64v0a1.59,1.59,0,0,1-1.64,1.64h-6.2a1.59,1.59,0,0,1-1.64-1.64v0A1.59,1.59,0,0,1,35.91,313.59Z"/><path class="cls-9" d="M42.09,313.59h3.17a1.59,1.59,0,0,1,1.64,1.64v0a1.59,1.59,0,0,1-1.64,1.64H42.09a1.59,1.59,0,0,1-1.64-1.64v0A1.59,1.59,0,0,1,42.09,313.59Z"/><path class="cls-9" d="M45.24,313.59h6.2a1.59,1.59,0,0,1,1.64,1.64v0a1.59,1.59,0,0,1-1.64,1.64h-6.2a1.59,1.59,0,0,1-1.64-1.64v0A1.59,1.59,0,0,1,45.24,313.59Z"/><path class="cls-9" d="M51.42,313.59h3.17a1.59,1.59,0,0,1,1.64,1.64v0a1.59,1.59,0,0,1-1.64,1.64H51.42a1.59,1.59,0,0,1-1.64-1.64v0A1.59,1.59,0,0,1,51.42,313.59Z"/><path class="cls-9" d="M61.17,313.59h6.2A1.59,1.59,0,0,1,69,315.23v0a1.59,1.59,0,0,1-1.64,1.64h-6.2a1.59,1.59,0,0,1-1.64-1.64v0A1.59,1.59,0,0,1,61.17,313.59Z"/><path class="cls-9" d="M67.35,313.59h6.2a1.59,1.59,0,0,1,1.64,1.64v0a1.59,1.59,0,0,1-1.64,1.64h-6.2a1.59,1.59,0,0,1-1.64-1.64v0A1.59,1.59,0,0,1,67.35,313.59Z"/><path class="cls-9" d="M73.53,313.59h6.2a1.59,1.59,0,0,1,1.64,1.64v0a1.59,1.59,0,0,1-1.64,1.64h-6.2a1.59,1.59,0,0,1-1.64-1.64v0A1.59,1.59,0,0,1,73.53,313.59Z"/><path class="cls-9" d="M86.31,313.59h3.17a1.59,1.59,0,0,1,1.64,1.64v0a1.59,1.59,0,0,1-1.64,1.64H86.31a1.59,1.59,0,0,1-1.64-1.64v0A1.59,1.59,0,0,1,86.31,313.59Z"/><path class="cls-9" d="M89.46,313.59h6.2a1.59,1.59,0,0,1,1.64,1.64v0a1.59,1.59,0,0,1-1.64,1.64h-6.2a1.59,1.59,0,0,1-1.64-1.64v0A1.59,1.59,0,0,1,89.46,313.59Z"/><path class="cls-9" d="M95.64,313.59h6.2a1.59,1.59,0,0,1,1.64,1.64v0a1.59,1.59,0,0,1-1.64,1.64h-6.2A1.59,1.59,0,0,1,94,315.25v0A1.59,1.59,0,0,1,95.64,313.59Z"/><path class="cls-9" d="M108.42,313.59h6.21a1.59,1.59,0,0,1,1.64,1.64v0a1.59,1.59,0,0,1-1.64,1.64h-6.21a1.59,1.59,0,0,1-1.64-1.64v0A1.59,1.59,0,0,1,108.42,313.59Z"/><path class="cls-9" d="M114.6,313.59h6.21a1.59,1.59,0,0,1,1.64,1.64v0a1.59,1.59,0,0,1-1.64,1.64H114.6a1.59,1.59,0,0,1-1.64-1.64v0A1.59,1.59,0,0,1,114.6,313.59Z"/><path class="cls-9" d="M120.78,313.59H127a1.59,1.59,0,0,1,1.64,1.64v0a1.59,1.59,0,0,1-1.64,1.64h-6.21a1.58,1.58,0,0,1-1.63-1.64v0A1.58,1.58,0,0,1,120.78,313.59Z"/><path class="cls-9" d="M127,313.59h3.16a1.59,1.59,0,0,1,1.65,1.64v0a1.59,1.59,0,0,1-1.65,1.64H127a1.59,1.59,0,0,1-1.64-1.64v0A1.59,1.59,0,0,1,127,313.59Z"/><path class="cls-9" d="M130.11,313.59h6.21a1.59,1.59,0,0,1,1.64,1.64v0a1.59,1.59,0,0,1-1.64,1.64h-6.21a1.59,1.59,0,0,1-1.64-1.64v0A1.59,1.59,0,0,1,130.11,313.59Z"/><path class="cls-9" d="M136.29,313.59h3.17a1.59,1.59,0,0,1,1.64,1.64v0a1.59,1.59,0,0,1-1.64,1.64h-3.17a1.58,1.58,0,0,1-1.63-1.64v0A1.58,1.58,0,0,1,136.29,313.59Z"/><path class="cls-9" d="M146,313.59h6.21a1.58,1.58,0,0,1,1.63,1.64v0a1.58,1.58,0,0,1-1.63,1.64H146a1.59,1.59,0,0,1-1.64-1.64v0A1.59,1.59,0,0,1,146,313.59Z"/><path class="cls-9" d="M152.22,313.59h6.21a1.59,1.59,0,0,1,1.64,1.64v0a1.59,1.59,0,0,1-1.64,1.64h-6.21a1.59,1.59,0,0,1-1.64-1.64v0A1.59,1.59,0,0,1,152.22,313.59Z"/><path class="cls-9" d="M158.4,313.59h6.21a1.59,1.59,0,0,1,1.64,1.64v0a1.59,1.59,0,0,1-1.64,1.64H158.4a1.58,1.58,0,0,1-1.63-1.64v0A1.58,1.58,0,0,1,158.4,313.59Z"/><path class="cls-9" d="M164.59,313.59h3.16a1.59,1.59,0,0,1,1.64,1.64v0a1.59,1.59,0,0,1-1.64,1.64h-3.16a1.59,1.59,0,0,1-1.64-1.64v0A1.59,1.59,0,0,1,164.59,313.59Z"/><path class="cls-9" d="M167.73,313.59h3.17a1.59,1.59,0,0,1,1.64,1.64v0a1.59,1.59,0,0,1-1.64,1.64h-3.17a1.59,1.59,0,0,1-1.64-1.64v0A1.59,1.59,0,0,1,167.73,313.59Z"/><path class="cls-9" d="M170.88,313.59h6.2a1.59,1.59,0,0,1,1.64,1.64v0a1.59,1.59,0,0,1-1.64,1.64h-6.2a1.59,1.59,0,0,1-1.64-1.64v0A1.59,1.59,0,0,1,170.88,313.59Z"/><path class="cls-9" d="M183.66,313.59h6.21a1.58,1.58,0,0,1,1.63,1.64v0a1.58,1.58,0,0,1-1.63,1.64h-6.21a1.59,1.59,0,0,1-1.64-1.64v0A1.59,1.59,0,0,1,183.66,313.59Z"/><path class="cls-9" d="M189.84,313.59H193a1.59,1.59,0,0,1,1.64,1.64v0a1.59,1.59,0,0,1-1.64,1.64h-3.17a1.59,1.59,0,0,1-1.64-1.64v0A1.59,1.59,0,0,1,189.84,313.59Z"/><path class="cls-9" d="M199.59,313.59h6.2a1.59,1.59,0,0,1,1.64,1.64v0a1.59,1.59,0,0,1-1.64,1.64h-6.2a1.59,1.59,0,0,1-1.64-1.64v0A1.59,1.59,0,0,1,199.59,313.59Z"/><path class="cls-9" d="M205.77,313.59h3.17a1.59,1.59,0,0,1,1.64,1.64v0a1.59,1.59,0,0,1-1.64,1.64h-3.17a1.59,1.59,0,0,1-1.64-1.64v0A1.59,1.59,0,0,1,205.77,313.59Z"/><path class="cls-9" d="M208.92,313.59h6.2a1.59,1.59,0,0,1,1.64,1.64v0a1.59,1.59,0,0,1-1.64,1.64h-6.2a1.59,1.59,0,0,1-1.64-1.64v0A1.59,1.59,0,0,1,208.92,313.59Z"/></g><g class="cls-6"><path class="cls-9" d="M17.36,333.59h6.21a1.59,1.59,0,0,1,1.64,1.64v0a1.59,1.59,0,0,1-1.64,1.64H17.36a1.59,1.59,0,0,1-1.64-1.64v0A1.59,1.59,0,0,1,17.36,333.59Z"/><path class="cls-9" d="M23.55,333.59h3.16a1.59,1.59,0,0,1,1.64,1.64v0a1.59,1.59,0,0,1-1.64,1.64H23.55a1.59,1.59,0,0,1-1.64-1.64v0A1.59,1.59,0,0,1,23.55,333.59Z"/><path class="cls-9" d="M26.69,333.59H32.9a1.59,1.59,0,0,1,1.64,1.64v0a1.59,1.59,0,0,1-1.64,1.64H26.69a1.59,1.59,0,0,1-1.64-1.64v0A1.59,1.59,0,0,1,26.69,333.59Z"/><path class="cls-9" d="M32.87,333.59h6.21a1.59,1.59,0,0,1,1.64,1.64v0a1.59,1.59,0,0,1-1.64,1.64H32.87a1.59,1.59,0,0,1-1.64-1.64v0A1.59,1.59,0,0,1,32.87,333.59Z"/><path class="cls-9" d="M39.06,333.59h6.2a1.59,1.59,0,0,1,1.64,1.64v0a1.59,1.59,0,0,1-1.64,1.64h-6.2a1.59,1.59,0,0,1-1.64-1.64v0A1.59,1.59,0,0,1,39.06,333.59Z"/><path class="cls-9" d="M45.24,333.59h6.2a1.59,1.59,0,0,1,1.64,1.64v0a1.59,1.59,0,0,1-1.64,1.64h-6.2a1.59,1.59,0,0,1-1.64-1.64v0A1.59,1.59,0,0,1,45.24,333.59Z"/><path class="cls-9" d="M51.42,333.59h6.2a1.59,1.59,0,0,1,1.64,1.64v0a1.59,1.59,0,0,1-1.64,1.64h-6.2a1.59,1.59,0,0,1-1.64-1.64v0A1.59,1.59,0,0,1,51.42,333.59Z"/><path class="cls-9" d="M57.6,333.59h6.21a1.59,1.59,0,0,1,1.64,1.64v0a1.59,1.59,0,0,1-1.64,1.64H57.6A1.59,1.59,0,0,1,56,335.25v0A1.59,1.59,0,0,1,57.6,333.59Z"/><path class="cls-9" d="M63.78,333.59H70a1.59,1.59,0,0,1,1.64,1.64v0A1.59,1.59,0,0,1,70,336.89H63.78a1.59,1.59,0,0,1-1.64-1.64v0A1.59,1.59,0,0,1,63.78,333.59Z"/><path class="cls-9" d="M70,333.59h3.16a1.59,1.59,0,0,1,1.64,1.64v0a1.59,1.59,0,0,1-1.64,1.64H70a1.59,1.59,0,0,1-1.64-1.64v0A1.59,1.59,0,0,1,70,333.59Z"/><path class="cls-9" d="M73.11,333.59h6.21A1.59,1.59,0,0,1,81,335.23v0a1.59,1.59,0,0,1-1.64,1.64H73.11a1.59,1.59,0,0,1-1.64-1.64v0A1.59,1.59,0,0,1,73.11,333.59Z"/><path class="cls-9" d="M79.29,333.59h3.17a1.59,1.59,0,0,1,1.64,1.64v0a1.59,1.59,0,0,1-1.64,1.64H79.29a1.59,1.59,0,0,1-1.64-1.64v0A1.59,1.59,0,0,1,79.29,333.59Z"/><path class="cls-9" d="M89,333.59h3.17a1.59,1.59,0,0,1,1.64,1.64v0a1.59,1.59,0,0,1-1.64,1.64H89a1.59,1.59,0,0,1-1.64-1.64v0A1.59,1.59,0,0,1,89,333.59Z"/><path class="cls-9" d="M92.19,333.59h6.2a1.59,1.59,0,0,1,1.64,1.64v0a1.59,1.59,0,0,1-1.64,1.64h-6.2a1.59,1.59,0,0,1-1.64-1.64v0A1.59,1.59,0,0,1,92.19,333.59Z"/><path class="cls-9" d="M98.37,333.59h6.2a1.59,1.59,0,0,1,1.64,1.64v0a1.59,1.59,0,0,1-1.64,1.64h-6.2a1.59,1.59,0,0,1-1.64-1.64v0A1.59,1.59,0,0,1,98.37,333.59Z"/><path class="cls-9" d="M104.55,333.59h3.17a1.59,1.59,0,0,1,1.64,1.64v0a1.59,1.59,0,0,1-1.64,1.64h-3.17a1.59,1.59,0,0,1-1.64-1.64v0A1.59,1.59,0,0,1,104.55,333.59Z"/><path class="cls-9" d="M107.69,333.59h6.21a1.59,1.59,0,0,1,1.64,1.64v0a1.59,1.59,0,0,1-1.64,1.64h-6.21a1.58,1.58,0,0,1-1.63-1.64v0A1.58,1.58,0,0,1,107.69,333.59Z"/><path class="cls-9" d="M113.88,333.59h3.17a1.59,1.59,0,0,1,1.64,1.64v0a1.59,1.59,0,0,1-1.64,1.64h-3.17a1.59,1.59,0,0,1-1.64-1.64v0A1.59,1.59,0,0,1,113.88,333.59Z"/><path class="cls-9" d="M117,333.59h3.17a1.59,1.59,0,0,1,1.64,1.64v0a1.59,1.59,0,0,1-1.64,1.64H117a1.59,1.59,0,0,1-1.64-1.64v0A1.59,1.59,0,0,1,117,333.59Z"/><path class="cls-9" d="M120.17,333.59h6.2a1.59,1.59,0,0,1,1.64,1.64v0a1.59,1.59,0,0,1-1.64,1.64h-6.2a1.59,1.59,0,0,1-1.64-1.64v0A1.59,1.59,0,0,1,120.17,333.59Z"/><path class="cls-9" d="M133,333.59h6.21a1.58,1.58,0,0,1,1.63,1.64v0a1.58,1.58,0,0,1-1.63,1.64H133a1.59,1.59,0,0,1-1.64-1.64v0A1.59,1.59,0,0,1,133,333.59Z"/><path class="cls-9" d="M139.13,333.59h6.21a1.59,1.59,0,0,1,1.64,1.64v0a1.59,1.59,0,0,1-1.64,1.64h-6.21a1.59,1.59,0,0,1-1.64-1.64v0A1.59,1.59,0,0,1,139.13,333.59Z"/><path class="cls-9" d="M145.31,333.59h3.17a1.59,1.59,0,0,1,1.64,1.64v0a1.59,1.59,0,0,1-1.64,1.64h-3.17a1.58,1.58,0,0,1-1.63-1.64v0A1.58,1.58,0,0,1,145.31,333.59Z"/><path class="cls-9" d="M148.46,333.59h3.17a1.59,1.59,0,0,1,1.64,1.64v0a1.59,1.59,0,0,1-1.64,1.64h-3.17a1.59,1.59,0,0,1-1.64-1.64v0A1.59,1.59,0,0,1,148.46,333.59Z"/><path class="cls-9" d="M151.61,333.59h6.2a1.59,1.59,0,0,1,1.64,1.64v0a1.59,1.59,0,0,1-1.64,1.64h-6.2a1.59,1.59,0,0,1-1.64-1.64v0A1.59,1.59,0,0,1,151.61,333.59Z"/><path class="cls-9" d="M157.79,333.59H164a1.59,1.59,0,0,1,1.64,1.64v0a1.59,1.59,0,0,1-1.64,1.64h-6.2a1.59,1.59,0,0,1-1.64-1.64v0A1.59,1.59,0,0,1,157.79,333.59Z"/><path class="cls-9" d="M164,333.59h6.21a1.58,1.58,0,0,1,1.63,1.64v0a1.58,1.58,0,0,1-1.63,1.64H164a1.59,1.59,0,0,1-1.64-1.64v0A1.59,1.59,0,0,1,164,333.59Z"/><path class="cls-9" d="M170.15,333.59h3.17a1.59,1.59,0,0,1,1.64,1.64v0a1.59,1.59,0,0,1-1.64,1.64h-3.17a1.59,1.59,0,0,1-1.64-1.64v0A1.59,1.59,0,0,1,170.15,333.59Z"/><path class="cls-9" d="M173.3,333.59h3.17a1.59,1.59,0,0,1,1.64,1.64v0a1.59,1.59,0,0,1-1.64,1.64H173.3a1.59,1.59,0,0,1-1.64-1.64v0A1.59,1.59,0,0,1,173.3,333.59Z"/><path class="cls-9" d="M183,333.59h6.21a1.59,1.59,0,0,1,1.64,1.64v0a1.59,1.59,0,0,1-1.64,1.64H183a1.58,1.58,0,0,1-1.63-1.64v0A1.58,1.58,0,0,1,183,333.59Z"/><path class="cls-9" d="M189.23,333.59h6.2a1.59,1.59,0,0,1,1.64,1.64v0a1.59,1.59,0,0,1-1.64,1.64h-6.2a1.59,1.59,0,0,1-1.64-1.64v0A1.59,1.59,0,0,1,189.23,333.59Z"/><path class="cls-9" d="M195.41,333.59h6.2a1.59,1.59,0,0,1,1.64,1.64v0a1.59,1.59,0,0,1-1.64,1.64h-6.2a1.59,1.59,0,0,1-1.64-1.64v0A1.59,1.59,0,0,1,195.41,333.59Z"/><path class="cls-9" d="M201.59,333.59h6.2a1.59,1.59,0,0,1,1.64,1.64v0a1.59,1.59,0,0,1-1.64,1.64h-6.2a1.59,1.59,0,0,1-1.64-1.64v0A1.59,1.59,0,0,1,201.59,333.59Z"/><path class="cls-9" d="M207.77,333.59H214a1.59,1.59,0,0,1,1.64,1.64v0a1.59,1.59,0,0,1-1.64,1.64h-6.21a1.59,1.59,0,0,1-1.64-1.64v0A1.59,1.59,0,0,1,207.77,333.59Z"/><path class="cls-9" d="M214,333.59h3.17a1.59,1.59,0,0,1,1.64,1.64v0a1.59,1.59,0,0,1-1.64,1.64H214a1.59,1.59,0,0,1-1.64-1.64v0A1.59,1.59,0,0,1,214,333.59Z"/><path class="cls-9" d="M217.1,333.59h6.2a1.59,1.59,0,0,1,1.64,1.64v0a1.59,1.59,0,0,1-1.64,1.64h-6.2a1.59,1.59,0,0,1-1.64-1.64v0A1.59,1.59,0,0,1,217.1,333.59Z"/><path class="cls-9" d="M223.28,333.59h6.21a1.59,1.59,0,0,1,1.64,1.64v0a1.59,1.59,0,0,1-1.64,1.64h-6.21a1.59,1.59,0,0,1-1.64-1.64v0A1.59,1.59,0,0,1,223.28,333.59Z"/><path class="cls-9" d="M236.06,333.59h6.21a1.59,1.59,0,0,1,1.64,1.64v0a1.59,1.59,0,0,1-1.64,1.64h-6.21a1.59,1.59,0,0,1-1.64-1.64v0A1.59,1.59,0,0,1,236.06,333.59Z"/><path class="cls-9" d="M242.25,333.59h6.2a1.59,1.59,0,0,1,1.64,1.64v0a1.59,1.59,0,0,1-1.64,1.64h-6.2a1.59,1.59,0,0,1-1.64-1.64v0A1.59,1.59,0,0,1,242.25,333.59Z"/><path class="cls-9" d="M248.43,333.59h6.2a1.59,1.59,0,0,1,1.64,1.64v0a1.59,1.59,0,0,1-1.64,1.64h-6.2a1.59,1.59,0,0,1-1.64-1.64v0A1.59,1.59,0,0,1,248.43,333.59Z"/></g><g class="cls-6"><path class="cls-9" d="M17.36,353.59h6.21a1.59,1.59,0,0,1,1.64,1.64v0a1.59,1.59,0,0,1-1.64,1.64H17.36a1.59,1.59,0,0,1-1.64-1.64v0A1.59,1.59,0,0,1,17.36,353.59Z"/><path class="cls-9" d="M23.55,353.59h6.2a1.59,1.59,0,0,1,1.64,1.64v0a1.59,1.59,0,0,1-1.64,1.64h-6.2a1.59,1.59,0,0,1-1.64-1.64v0A1.59,1.59,0,0,1,23.55,353.59Z"/><path class="cls-9" d="M29.73,353.59h6.2a1.59,1.59,0,0,1,1.64,1.64v0a1.59,1.59,0,0,1-1.64,1.64h-6.2a1.59,1.59,0,0,1-1.64-1.64v0A1.59,1.59,0,0,1,29.73,353.59Z"/><path class="cls-9" d="M35.91,353.59h6.2a1.59,1.59,0,0,1,1.64,1.64v0a1.59,1.59,0,0,1-1.64,1.64h-6.2a1.59,1.59,0,0,1-1.64-1.64v0A1.59,1.59,0,0,1,35.91,353.59Z"/><path class="cls-9" d="M42.09,353.59H48.3a1.59,1.59,0,0,1,1.64,1.64v0a1.59,1.59,0,0,1-1.64,1.64H42.09a1.59,1.59,0,0,1-1.64-1.64v0A1.59,1.59,0,0,1,42.09,353.59Z"/><path class="cls-9" d="M54.87,353.59h6.21a1.59,1.59,0,0,1,1.64,1.64v0a1.59,1.59,0,0,1-1.64,1.64H54.87a1.59,1.59,0,0,1-1.64-1.64v0A1.59,1.59,0,0,1,54.87,353.59Z"/><path class="cls-9" d="M61.06,353.59h3.16a1.59,1.59,0,0,1,1.64,1.64v0a1.59,1.59,0,0,1-1.64,1.64H61.06a1.59,1.59,0,0,1-1.64-1.64v0A1.59,1.59,0,0,1,61.06,353.59Z"/><path class="cls-9" d="M64.2,353.59h6.21a1.59,1.59,0,0,1,1.64,1.64v0a1.59,1.59,0,0,1-1.64,1.64H64.2a1.59,1.59,0,0,1-1.64-1.64v0A1.59,1.59,0,0,1,64.2,353.59Z"/><path class="cls-9" d="M70.38,353.59h6.21a1.59,1.59,0,0,1,1.64,1.64v0a1.59,1.59,0,0,1-1.64,1.64H70.38a1.59,1.59,0,0,1-1.64-1.64v0A1.59,1.59,0,0,1,70.38,353.59Z"/><path class="cls-9" d="M76.57,353.59h6.2a1.59,1.59,0,0,1,1.64,1.64v0a1.59,1.59,0,0,1-1.64,1.64h-6.2a1.59,1.59,0,0,1-1.64-1.64v0A1.59,1.59,0,0,1,76.57,353.59Z"/><path class="cls-9" d="M82.75,353.59H89a1.59,1.59,0,0,1,1.64,1.64v0A1.59,1.59,0,0,1,89,356.89h-6.2a1.59,1.59,0,0,1-1.64-1.64v0A1.59,1.59,0,0,1,82.75,353.59Z"/><path class="cls-9" d="M88.93,353.59h6.2a1.59,1.59,0,0,1,1.64,1.64v0a1.59,1.59,0,0,1-1.64,1.64h-6.2a1.59,1.59,0,0,1-1.64-1.64v0A1.59,1.59,0,0,1,88.93,353.59Z"/><path class="cls-9" d="M95.11,353.59h3.17a1.59,1.59,0,0,1,1.64,1.64v0a1.59,1.59,0,0,1-1.64,1.64H95.11a1.59,1.59,0,0,1-1.64-1.64v0A1.59,1.59,0,0,1,95.11,353.59Z"/><path class="cls-9" d="M104.86,353.59h6.2a1.59,1.59,0,0,1,1.64,1.64v0a1.59,1.59,0,0,1-1.64,1.64h-6.2a1.59,1.59,0,0,1-1.64-1.64v0A1.59,1.59,0,0,1,104.86,353.59Z"/><path class="cls-9" d="M117.64,353.59h6.2a1.59,1.59,0,0,1,1.64,1.64v0a1.59,1.59,0,0,1-1.64,1.64h-6.2a1.59,1.59,0,0,1-1.64-1.64v0A1.59,1.59,0,0,1,117.64,353.59Z"/><path class="cls-9" d="M123.82,353.59H130a1.59,1.59,0,0,1,1.64,1.64v0a1.59,1.59,0,0,1-1.64,1.64h-6.21a1.59,1.59,0,0,1-1.64-1.64v0A1.59,1.59,0,0,1,123.82,353.59Z"/><path class="cls-9" d="M130,353.59h3.17a1.59,1.59,0,0,1,1.64,1.64v0a1.59,1.59,0,0,1-1.64,1.64H130a1.59,1.59,0,0,1-1.64-1.64v0A1.59,1.59,0,0,1,130,353.59Z"/><path class="cls-9" d="M133.15,353.59h6.2a1.59,1.59,0,0,1,1.64,1.64v0a1.59,1.59,0,0,1-1.64,1.64h-6.2a1.59,1.59,0,0,1-1.64-1.64v0A1.59,1.59,0,0,1,133.15,353.59Z"/><path class="cls-9" d="M139.33,353.59h6.21a1.58,1.58,0,0,1,1.63,1.64v0a1.58,1.58,0,0,1-1.63,1.64h-6.21a1.59,1.59,0,0,1-1.64-1.64v0A1.59,1.59,0,0,1,139.33,353.59Z"/><path class="cls-9" d="M145.51,353.59h3.17a1.59,1.59,0,0,1,1.64,1.64v0a1.59,1.59,0,0,1-1.64,1.64h-3.17a1.59,1.59,0,0,1-1.64-1.64v0A1.59,1.59,0,0,1,145.51,353.59Z"/><path class="cls-9" d="M155.26,353.59h3.17a1.59,1.59,0,0,1,1.64,1.64v0a1.59,1.59,0,0,1-1.64,1.64h-3.17a1.59,1.59,0,0,1-1.64-1.64v0A1.59,1.59,0,0,1,155.26,353.59Z"/><path class="cls-9" d="M158.4,353.59h6.21a1.59,1.59,0,0,1,1.64,1.64v0a1.59,1.59,0,0,1-1.64,1.64H158.4a1.58,1.58,0,0,1-1.63-1.64v0A1.58,1.58,0,0,1,158.4,353.59Z"/><path class="cls-9" d="M164.59,353.59h6.2a1.59,1.59,0,0,1,1.64,1.64v0a1.59,1.59,0,0,1-1.64,1.64h-6.2a1.59,1.59,0,0,1-1.64-1.64v0A1.59,1.59,0,0,1,164.59,353.59Z"/><path class="cls-9" d="M170.77,353.59H177a1.59,1.59,0,0,1,1.64,1.64v0a1.59,1.59,0,0,1-1.64,1.64h-6.2a1.59,1.59,0,0,1-1.64-1.64v0A1.59,1.59,0,0,1,170.77,353.59Z"/><path class="cls-9" d="M177,353.59h6.21a1.58,1.58,0,0,1,1.63,1.64v0a1.58,1.58,0,0,1-1.63,1.64H177a1.59,1.59,0,0,1-1.64-1.64v0A1.59,1.59,0,0,1,177,353.59Z"/><path class="cls-9" d="M183.13,353.59h6.21a1.59,1.59,0,0,1,1.64,1.64v0a1.59,1.59,0,0,1-1.64,1.64h-6.21a1.59,1.59,0,0,1-1.64-1.64v0A1.59,1.59,0,0,1,183.13,353.59Z"/><path class="cls-9" d="M189.31,353.59h3.17a1.59,1.59,0,0,1,1.64,1.64v0a1.59,1.59,0,0,1-1.64,1.64h-3.17a1.58,1.58,0,0,1-1.63-1.64v0A1.58,1.58,0,0,1,189.31,353.59Z"/><path class="cls-9" d="M192.46,353.59h3.17a1.59,1.59,0,0,1,1.64,1.64v0a1.59,1.59,0,0,1-1.64,1.64h-3.17a1.59,1.59,0,0,1-1.64-1.64v0A1.59,1.59,0,0,1,192.46,353.59Z"/><path class="cls-9" d="M202.21,353.59h6.2a1.59,1.59,0,0,1,1.64,1.64v0a1.59,1.59,0,0,1-1.64,1.64h-6.2a1.59,1.59,0,0,1-1.64-1.64v0A1.59,1.59,0,0,1,202.21,353.59Z"/><path class="cls-9" d="M208.39,353.59h6.2a1.59,1.59,0,0,1,1.64,1.64v0a1.59,1.59,0,0,1-1.64,1.64h-6.2a1.59,1.59,0,0,1-1.64-1.64v0A1.59,1.59,0,0,1,208.39,353.59Z"/><path class="cls-9" d="M214.57,353.59h6.21a1.58,1.58,0,0,1,1.63,1.64v0a1.58,1.58,0,0,1-1.63,1.64h-6.21a1.59,1.59,0,0,1-1.64-1.64v0A1.59,1.59,0,0,1,214.57,353.59Z"/><path class="cls-9" d="M220.75,353.59H227a1.59,1.59,0,0,1,1.64,1.64v0a1.59,1.59,0,0,1-1.64,1.64h-6.21a1.59,1.59,0,0,1-1.64-1.64v0A1.59,1.59,0,0,1,220.75,353.59Z"/><path class="cls-9" d="M233.53,353.59h6.21a1.59,1.59,0,0,1,1.64,1.64v0a1.59,1.59,0,0,1-1.64,1.64h-6.21a1.59,1.59,0,0,1-1.64-1.64v0A1.59,1.59,0,0,1,233.53,353.59Z"/><path class="cls-9" d="M239.72,353.59h6.2a1.59,1.59,0,0,1,1.64,1.64v0a1.59,1.59,0,0,1-1.64,1.64h-6.2a1.59,1.59,0,0,1-1.64-1.64v0A1.59,1.59,0,0,1,239.72,353.59Z"/></g></g></g></g></g></svg>