<svg xmlns="http://www.w3.org/2000/svg" xmlns:xlink="http://www.w3.org/1999/xlink" viewBox="0 0 278 360.59"><defs><style>.cls-1,.cls-4{fill:none;}.cls-2{opacity:1;}.cls-3{fill:#fff;}.cls-4{stroke:#cdd2c8;stroke-width:3px;}.cls-5{clip-path:url(#clip-path);}.cls-6{isolation:isolate;}.cls-7{fill:#a49fb1;}.cls-8{fill:#44bc8f;}.cls-9{fill:#575265;}.cls-10{fill:#938b9b;}</style><clipPath id="clip-path"><rect class="cls-1" x="20" y="309.59" width="125" height="25"/></clipPath></defs><title>SMALL</title><g id="Layer_2" data-name="Layer 2"><g id="Layer_1-2" data-name="Layer 1"><g id="SMALL" class="cls-2"><g id="Group_144" data-name="Group 144"><g id="Rectangle_136" data-name="Rectangle 136"><rect class="cls-3" width="278" height="360.59"/><rect class="cls-4" x="1.5" y="1.5" width="275" height="357.59"/></g><g class="cls-5"><g id="Component_54" data-name="Component 54"><g id="Updated_by_Mick_Jagger_4_minutes_ago" data-name="Updated by Mick Jagger 4 minutes ago" class="cls-6"><g class="cls-6"><path class="cls-7" d="M26.48,311.48l-.81,4.75a2.77,2.77,0,0,1-1,1.81,2.89,2.89,0,0,1-2,.66,2.35,2.35,0,0,1-1.68-.65,2,2,0,0,1-.56-1.63v-.18l.81-4.76h1.2l-.81,4.76a1.46,1.46,0,0,0,.2,1.06,1.11,1.11,0,0,0,.89.4,1.53,1.53,0,0,0,1.1-.36,1.76,1.76,0,0,0,.56-1.07l.82-4.79Z"/><path class="cls-7" d="M31.4,316A4.34,4.34,0,0,1,31,317.4a2.44,2.44,0,0,1-.82,1,1.9,1.9,0,0,1-1.12.31,1.66,1.66,0,0,1-1.3-.58l-.47,2.51H26.09l1.27-7.31h1.06l-.09.55a1.86,1.86,0,0,1,1.45-.64,1.47,1.47,0,0,1,1.44,1,2.94,2.94,0,0,1,.21,1.06C31.43,315.46,31.42,315.69,31.4,316Zm-1.15-.1,0-.36a1.72,1.72,0,0,0-.21-1,.75.75,0,0,0-.67-.35,1.32,1.32,0,0,0-1.13.6l-.41,2.35a.91.91,0,0,0,.89.62,1.2,1.2,0,0,0,1-.45A2.75,2.75,0,0,0,30.25,315.87Z"/><path class="cls-7" d="M32.21,315.94a4.22,4.22,0,0,1,.44-1.46,2.47,2.47,0,0,1,.85-1,1.94,1.94,0,0,1,1.11-.31,1.59,1.59,0,0,1,1.26.6l.51-2.71h1.16l-1.3,7.5h-1l.07-.55a1.8,1.8,0,0,1-1.44.65,1.41,1.41,0,0,1-1.18-.57,2.49,2.49,0,0,1-.48-1.48,3.79,3.79,0,0,1,0-.59Zm1.12.46a1.72,1.72,0,0,0,.19,1,.76.76,0,0,0,.66.37,1.37,1.37,0,0,0,1.16-.65l.4-2.27a.9.9,0,0,0-.89-.63,1.18,1.18,0,0,0-1.07.58A3.19,3.19,0,0,0,33.33,316.4Z"/><path class="cls-7" d="M40.62,318.59a1.45,1.45,0,0,1,0-.49,2,2,0,0,1-1.41.59,1.66,1.66,0,0,1-1.14-.44,1.38,1.38,0,0,1-.42-1.1,1.6,1.6,0,0,1,.72-1.31,3.16,3.16,0,0,1,1.84-.48h.75L41,315a1.09,1.09,0,0,0,0-.36.64.64,0,0,0-.7-.54,1,1,0,0,0-.65.18.82.82,0,0,0-.35.54H38.12a1.47,1.47,0,0,1,.35-.85,2.1,2.1,0,0,1,.83-.58,2.9,2.9,0,0,1,1.1-.19,1.84,1.84,0,0,1,1.34.52,1.51,1.51,0,0,1,.4,1.3l-.4,2.47,0,.44a1.51,1.51,0,0,0,.07.56v.09Zm-1.19-.85a1.25,1.25,0,0,0,.68-.17,1.8,1.8,0,0,0,.53-.46l.18-1h-.55a2,2,0,0,0-1.05.25.89.89,0,0,0-.44.68.57.57,0,0,0,.14.51A.7.7,0,0,0,39.43,317.74Z"/><path class="cls-7" d="M45.37,312l-.22,1.29h.9l-.15.88H45l-.5,2.95a.81.81,0,0,0,0,.22q0,.31.39.33a2.27,2.27,0,0,0,.41-.05l-.08.94a2.57,2.57,0,0,1-.73.1,1.05,1.05,0,0,1-.9-.41,1.51,1.51,0,0,1-.24-1.07l.49-3H43l.15-.88H44l.23-1.29Z"/><path class="cls-7" d="M48.45,318.69a2.26,2.26,0,0,1-1.2-.35,2,2,0,0,1-.74-.91,2.68,2.68,0,0,1-.19-1.28l0-.2a3.5,3.5,0,0,1,.47-1.45,2.6,2.6,0,0,1,.95-1,2.26,2.26,0,0,1,1.24-.32,1.73,1.73,0,0,1,1.49.74,2.66,2.66,0,0,1,.37,1.87l-.06.51H47.47a1.47,1.47,0,0,0,.25,1,1,1,0,0,0,.82.4,1.8,1.8,0,0,0,1.38-.65l.59.61a2.2,2.2,0,0,1-.88.74A2.71,2.71,0,0,1,48.45,318.69Zm.49-4.53c-.61,0-1.07.41-1.38,1.3h2.2l0-.1a1.62,1.62,0,0,0,0-.44,1,1,0,0,0-.27-.55A.9.9,0,0,0,48.94,314.16Z"/><path class="cls-7" d="M51.56,315.94a4.22,4.22,0,0,1,.44-1.46,2.47,2.47,0,0,1,.85-1A1.94,1.94,0,0,1,54,313.2a1.59,1.59,0,0,1,1.26.6l.51-2.71h1.16l-1.3,7.5h-1l.07-.55a1.8,1.8,0,0,1-1.44.65,1.41,1.41,0,0,1-1.18-.57,2.49,2.49,0,0,1-.48-1.48,3.79,3.79,0,0,1,0-.59Zm1.13.46a1.64,1.64,0,0,0,.18,1,.76.76,0,0,0,.67.37,1.37,1.37,0,0,0,1.15-.65l.4-2.27a.89.89,0,0,0-.89-.63,1.18,1.18,0,0,0-1.07.58A3.1,3.1,0,0,0,52.69,316.4Z"/><path class="cls-7" d="M64.25,316a4.21,4.21,0,0,1-.43,1.46,2.27,2.27,0,0,1-.83,1,1.93,1.93,0,0,1-1.11.3,1.56,1.56,0,0,1-1.34-.68l-.18.58H59.3l1.3-7.5h1.16l-.53,2.73a1.8,1.8,0,0,1,1.4-.61,1.5,1.5,0,0,1,1.2.56,2.44,2.44,0,0,1,.46,1.48A6.75,6.75,0,0,1,64.25,316Zm-1.11-.65a1.34,1.34,0,0,0-.22-.83.75.75,0,0,0-.63-.31,1.36,1.36,0,0,0-1.19.67L60.72,317a.94.94,0,0,0,.93.69,1.14,1.14,0,0,0,1-.45A2.67,2.67,0,0,0,63.1,316C63.12,315.69,63.14,315.47,63.14,315.32Z"/><path class="cls-7" d="M66.82,316.88l1.66-3.57h1.28l-3.13,6.19a1.9,1.9,0,0,1-1.72,1.24,2.88,2.88,0,0,1-.6-.1l.09-.92.21,0a1.19,1.19,0,0,0,.7-.16,1.32,1.32,0,0,0,.46-.54l.27-.54-.88-5.19h1.2Z"/></g><g class="cls-6"><path class="cls-8" d="M74.87,311.48l1,5.44,2.92-5.44h1.59l-1.24,7.11H78l.42-2.41.63-3-2.93,5.37h-.87l-1.09-5.53-.44,3.25-.4,2.28H72.1l1.23-7.11Z"/><path class="cls-8" d="M81.76,318.59H80.6l.92-5.28h1.16ZM81.68,312a.63.63,0,0,1,.18-.45.66.66,0,0,1,.94,0,.58.58,0,0,1,.19.45.61.61,0,0,1-.18.45.65.65,0,0,1-.47.19.62.62,0,0,1-.46-.16A.59.59,0,0,1,81.68,312Z"/><path class="cls-8" d="M85.36,317.75a1.13,1.13,0,0,0,.73-.25,1.1,1.1,0,0,0,.41-.65h1.09a1.76,1.76,0,0,1-.38,1,2.11,2.11,0,0,1-.83.67,2.31,2.31,0,0,1-1.06.23,2,2,0,0,1-1.15-.35,1.93,1.93,0,0,1-.7-.95,2.94,2.94,0,0,1-.15-1.34v-.17a3.5,3.5,0,0,1,.45-1.39,2.55,2.55,0,0,1,.94-1,2.35,2.35,0,0,1,1.28-.32,1.82,1.82,0,0,1,1.37.57,2,2,0,0,1,.52,1.43H86.8a1.19,1.19,0,0,0-.22-.75.8.8,0,0,0-.64-.3,1.14,1.14,0,0,0-1.07.57,3.24,3.24,0,0,0-.42,1.68C84.43,317.29,84.73,317.73,85.36,317.75Z"/><path class="cls-8" d="M90.28,316.33l-.65.59-.29,1.67H88.18l1.3-7.5h1.16l-.74,4.26.4-.42L92,313.31h1.48l-2.34,2.25,1.54,3H91.41Z"/><path class="cls-8" d="M100,311.48h1.2l-.85,5a2.61,2.61,0,0,1-.84,1.64,2.45,2.45,0,0,1-1.72.58,1.87,1.87,0,0,1-2-2.13h1.2c0,.75.25,1.12.87,1.14a1.11,1.11,0,0,0,.84-.31,1.64,1.64,0,0,0,.45-.92Z"/><path class="cls-8" d="M104.33,318.59a1.76,1.76,0,0,1,0-.49,2,2,0,0,1-1.41.59,1.66,1.66,0,0,1-1.14-.44,1.38,1.38,0,0,1-.42-1.1,1.6,1.6,0,0,1,.72-1.31,3.16,3.16,0,0,1,1.84-.48h.75l.07-.36a1.09,1.09,0,0,0,0-.36.64.64,0,0,0-.7-.54,1,1,0,0,0-.65.18.86.86,0,0,0-.35.54h-1.15a1.39,1.39,0,0,1,.34-.85,2.1,2.1,0,0,1,.83-.58,2.9,2.9,0,0,1,1.1-.19,1.84,1.84,0,0,1,1.34.52,1.51,1.51,0,0,1,.4,1.3l-.4,2.47,0,.44a1.51,1.51,0,0,0,.07.56v.09Zm-1.19-.85a1.25,1.25,0,0,0,.68-.17,1.8,1.8,0,0,0,.53-.46l.18-1H104a2,2,0,0,0-1,.25.92.92,0,0,0-.44.68.57.57,0,0,0,.14.51A.72.72,0,0,0,103.14,317.74Z"/><path class="cls-8" d="M106.75,315.94a4.18,4.18,0,0,1,.43-1.43,2.62,2.62,0,0,1,.84-1,2.1,2.1,0,0,1,1.16-.33,1.6,1.6,0,0,1,1.32.64l.18-.54h1l-.87,5.13a2.57,2.57,0,0,1-.87,1.65,2.53,2.53,0,0,1-1.77.58,2.39,2.39,0,0,1-1-.25,2.22,2.22,0,0,1-.8-.64l.61-.7a1.53,1.53,0,0,0,1.21.66,1.44,1.44,0,0,0,1-.31,1.64,1.64,0,0,0,.54-.94l.08-.37a1.87,1.87,0,0,1-1.38.57,1.51,1.51,0,0,1-1.19-.56,2.5,2.5,0,0,1-.49-1.49A5.86,5.86,0,0,1,106.75,315.94Zm1.15.11a4.44,4.44,0,0,0,0,.53,1.33,1.33,0,0,0,.24.82.76.76,0,0,0,.63.32,1.38,1.38,0,0,0,1.16-.61l.41-2.33a.93.93,0,0,0-.9-.6,1.22,1.22,0,0,0-1,.45,2.58,2.58,0,0,0-.52,1.31Z"/><path class="cls-8" d="M112.3,315.94a4,4,0,0,1,.43-1.43,2.62,2.62,0,0,1,.84-1,2.07,2.07,0,0,1,1.16-.33,1.57,1.57,0,0,1,1.31.64l.19-.54h1l-.87,5.13a2.57,2.57,0,0,1-.87,1.65,2.54,2.54,0,0,1-1.77.58,2.46,2.46,0,0,1-1.06-.25,2.31,2.31,0,0,1-.8-.64l.62-.7a1.51,1.51,0,0,0,1.21.66,1.42,1.42,0,0,0,1-.31,1.6,1.6,0,0,0,.55-.94l.08-.37a1.88,1.88,0,0,1-1.38.57,1.5,1.5,0,0,1-1.19-.56,2.44,2.44,0,0,1-.49-1.49A4.31,4.31,0,0,1,112.3,315.94Zm1.15.11a3,3,0,0,0,0,.53,1.33,1.33,0,0,0,.23.82.78.78,0,0,0,.64.32,1.36,1.36,0,0,0,1.15-.61l.42-2.33a.93.93,0,0,0-.9-.6,1.22,1.22,0,0,0-1,.45,2.5,2.5,0,0,0-.52,1.31Z"/><path class="cls-8" d="M120,318.69a2.26,2.26,0,0,1-1.2-.35,2,2,0,0,1-.74-.91,2.56,2.56,0,0,1-.19-1.28l0-.2a3.36,3.36,0,0,1,.47-1.45,2.6,2.6,0,0,1,1-1,2.26,2.26,0,0,1,1.24-.32A1.73,1.73,0,0,1,122,314a2.71,2.71,0,0,1,.37,1.87l-.07.51H119a1.42,1.42,0,0,0,.25,1,1,1,0,0,0,.82.4,1.8,1.8,0,0,0,1.38-.65l.59.61a2.35,2.35,0,0,1-.88.74A2.71,2.71,0,0,1,120,318.69Zm.49-4.53c-.61,0-1.07.41-1.38,1.3h2.19l0-.1a1.31,1.31,0,0,0,0-.44,1,1,0,0,0-.27-.55A.9.9,0,0,0,120.47,314.16Z"/><path class="cls-8" d="M126.29,314.39a2.3,2.3,0,0,0-.45-.05,1.36,1.36,0,0,0-1.21.63l-.64,3.62h-1.15l.91-5.28h1.1l-.12.6a1.5,1.5,0,0,1,1.25-.7,1.83,1.83,0,0,1,.45.07Z"/></g><g class="cls-6"><path class="cls-7" d="M24.66,329.91h.8v1.14h-.8v1.54H23.25v-1.54H20.33l-.06-.89,3-4.68h1.43Zm-3,0h1.58V327.4l-.1.17Z"/><path class="cls-7" d="M30.09,327.31l.05.59a1.85,1.85,0,0,1,1.52-.69,1.42,1.42,0,0,1,1.4.8,1.82,1.82,0,0,1,1.58-.8,1.58,1.58,0,0,1,1.28.5,2.29,2.29,0,0,1,.42,1.51v3.37H34.93v-3.38a1,1,0,0,0-.18-.66.81.81,0,0,0-.62-.2.88.88,0,0,0-.88.6v3.64H31.85v-3.37a1,1,0,0,0-.18-.67.84.84,0,0,0-.62-.2.91.91,0,0,0-.87.5v3.74H28.77v-5.28Z"/><path class="cls-7" d="M37.42,325.94a.69.69,0,0,1,.21-.52.78.78,0,0,1,.58-.21.77.77,0,0,1,.57.21.66.66,0,0,1,.22.52.69.69,0,0,1-.22.53.81.81,0,0,1-.57.2.85.85,0,0,1-.58-.2A.72.72,0,0,1,37.42,325.94Zm1.5,6.65H37.5v-5.28h1.42Z"/><path class="cls-7" d="M41.38,327.31l0,.61a1.85,1.85,0,0,1,1.52-.71,1.52,1.52,0,0,1,1.25.49,2.35,2.35,0,0,1,.42,1.48v3.41H43.2V329.2a.92.92,0,0,0-.2-.65.84.84,0,0,0-.65-.2,1,1,0,0,0-.89.51v3.73H40.05v-5.28Z"/><path class="cls-7" d="M48.84,332.05a1.75,1.75,0,0,1-1.44.64,1.7,1.7,0,0,1-1.3-.49,2.09,2.09,0,0,1-.46-1.43v-3.46h1.42v3.41c0,.55.25.83.75.83a1,1,0,0,0,1-.5v-3.74h1.42v5.28H48.88Z"/><path class="cls-7" d="M53,326v1.3h.91v1H53V331a.62.62,0,0,0,.12.42.56.56,0,0,0,.43.13,2.48,2.48,0,0,0,.41,0v1.07a2.74,2.74,0,0,1-.85.13,1.35,1.35,0,0,1-1.52-1.5v-2.85h-.77v-1h.77V326Z"/><path class="cls-7" d="M57.08,332.69a2.59,2.59,0,0,1-1.89-.72,2.53,2.53,0,0,1-.73-1.89v-.14a3.22,3.22,0,0,1,.31-1.42,2.29,2.29,0,0,1,.87-1,2.44,2.44,0,0,1,1.29-.34,2.19,2.19,0,0,1,1.7.68,2.76,2.76,0,0,1,.63,1.94v.58H55.89a1.36,1.36,0,0,0,.42.83,1.24,1.24,0,0,0,.87.31,1.52,1.52,0,0,0,1.27-.59l.7.78a2.2,2.2,0,0,1-.86.7A3,3,0,0,1,57.08,332.69Zm-.16-4.34a.88.88,0,0,0-.68.28,1.51,1.51,0,0,0-.33.82h2v-.12a1.06,1.06,0,0,0-.25-.73A.92.92,0,0,0,56.92,328.35Z"/><path class="cls-7" d="M62.92,331.13a.47.47,0,0,0-.26-.41,2.62,2.62,0,0,0-.82-.26c-1.26-.27-1.88-.8-1.88-1.61a1.44,1.44,0,0,1,.58-1.17,2.39,2.39,0,0,1,1.53-.47,2.54,2.54,0,0,1,1.6.47,1.49,1.49,0,0,1,.61,1.23H62.87a.69.69,0,0,0-.2-.5,1,1,0,0,0-1.16,0,.5.5,0,0,0-.2.41.43.43,0,0,0,.23.37,2.07,2.07,0,0,0,.75.25,5.72,5.72,0,0,1,.88.24,1.46,1.46,0,0,1,1.12,1.42,1.37,1.37,0,0,1-.62,1.17,2.66,2.66,0,0,1-1.6.45,2.76,2.76,0,0,1-1.18-.24,2,2,0,0,1-.81-.65,1.53,1.53,0,0,1-.29-.89h1.34a.73.73,0,0,0,.28.58,1.11,1.11,0,0,0,.69.2,1,1,0,0,0,.61-.16A.46.46,0,0,0,62.92,331.13Z"/><path class="cls-7" d="M70.75,332.59a1.86,1.86,0,0,1-.14-.47,1.71,1.71,0,0,1-1.33.57,1.88,1.88,0,0,1-1.29-.45,1.45,1.45,0,0,1-.51-1.13,1.51,1.51,0,0,1,.62-1.29,3.14,3.14,0,0,1,1.8-.46h.65v-.3a.87.87,0,0,0-.19-.59.75.75,0,0,0-.59-.22.87.87,0,0,0-.56.17.62.62,0,0,0-.2.47H67.6a1.42,1.42,0,0,1,.28-.85,1.92,1.92,0,0,1,.8-.61,2.89,2.89,0,0,1,1.16-.22,2.29,2.29,0,0,1,1.55.49,1.71,1.71,0,0,1,.58,1.38v2.29a2.46,2.46,0,0,0,.21,1.14v.08Zm-1.17-1a1.24,1.24,0,0,0,.58-.14.88.88,0,0,0,.39-.37v-.91H70c-.7,0-1.08.24-1.12.73V331a.56.56,0,0,0,.19.44A.72.72,0,0,0,69.58,331.61Z"/><path class="cls-7" d="M72.85,329.91a3.09,3.09,0,0,1,.58-2,1.87,1.87,0,0,1,1.56-.74,1.67,1.67,0,0,1,1.35.59l.06-.49h1.28v5.1a2.25,2.25,0,0,1-.32,1.21,2,2,0,0,1-.89.78,3.07,3.07,0,0,1-1.33.27,3,3,0,0,1-1.14-.23,2.15,2.15,0,0,1-.83-.6l.62-.86a1.68,1.68,0,0,0,1.28.59,1.22,1.22,0,0,0,.88-.3,1.11,1.11,0,0,0,.31-.85v-.28a1.66,1.66,0,0,1-1.28.55,1.85,1.85,0,0,1-1.54-.75,3,3,0,0,1-.59-2Zm1.41.1a1.87,1.87,0,0,0,.29,1.13.91.91,0,0,0,.79.41,1,1,0,0,0,.92-.49v-2.23a1,1,0,0,0-.91-.48.93.93,0,0,0-.8.41A2.16,2.16,0,0,0,74.26,330Z"/><path class="cls-7" d="M78.54,329.9a3.16,3.16,0,0,1,.3-1.4,2.17,2.17,0,0,1,.87-.95,2.51,2.51,0,0,1,1.33-.34,2.42,2.42,0,0,1,1.74.65,2.68,2.68,0,0,1,.76,1.78V330a2.77,2.77,0,0,1-.67,1.95,2.63,2.63,0,0,1-3.65,0,2.85,2.85,0,0,1-.68-2ZM80,330a2,2,0,0,0,.28,1.15.93.93,0,0,0,.81.4,1,1,0,0,0,.81-.39,2.22,2.22,0,0,0,.28-1.26,2,2,0,0,0-.28-1.15,1,1,0,0,0-.81-.4.93.93,0,0,0-.81.4A2.2,2.2,0,0,0,80,330Z"/></g></g></g></g></g><g id="Rolling_Stone_magazine_ranked_them_fourth_on_the_100_Greatest_Artists_of_All_Time_list_and_their_estimated_record_sales_are_above_250_million." data-name="Rolling Stone magazine ranked them fourth on the 100 Greatest Artists of All Time list and their estimated record sales are above 250 million." class="cls-6"><g class="cls-6"><path class="cls-9" d="M17.36,61.81h8.46a2.17,2.17,0,0,1,2.23,2.24v0a2.16,2.16,0,0,1-2.23,2.23H17.36a2.17,2.17,0,0,1-2.24-2.23v0A2.18,2.18,0,0,1,17.36,61.81Z"/><path class="cls-9" d="M25.79,61.81h8.46a2.17,2.17,0,0,1,2.23,2.24v0a2.16,2.16,0,0,1-2.23,2.23H25.79a2.17,2.17,0,0,1-2.24-2.23v0A2.18,2.18,0,0,1,25.79,61.81Z"/><path class="cls-9" d="M34.22,61.81h4.32a2.17,2.17,0,0,1,2.23,2.24v0a2.16,2.16,0,0,1-2.23,2.23H34.22A2.17,2.17,0,0,1,32,64.08v0A2.18,2.18,0,0,1,34.22,61.81Z"/><path class="cls-9" d="M38.51,61.81h4.32a2.17,2.17,0,0,1,2.23,2.24v0a2.16,2.16,0,0,1-2.23,2.23H38.51a2.16,2.16,0,0,1-2.23-2.23v0A2.17,2.17,0,0,1,38.51,61.81Z"/><path class="cls-9" d="M42.8,61.81h4.32a2.17,2.17,0,0,1,2.23,2.24v0a2.16,2.16,0,0,1-2.23,2.23H42.8a2.17,2.17,0,0,1-2.24-2.23v0A2.18,2.18,0,0,1,42.8,61.81Z"/><path class="cls-9" d="M47.09,61.81h8.46a2.17,2.17,0,0,1,2.23,2.24v0a2.16,2.16,0,0,1-2.23,2.23H47.09a2.17,2.17,0,0,1-2.24-2.23v0A2.18,2.18,0,0,1,47.09,61.81Z"/><path class="cls-9" d="M55.52,61.81H64a2.17,2.17,0,0,1,2.23,2.24v0A2.16,2.16,0,0,1,64,66.31H55.52a2.16,2.16,0,0,1-2.23-2.23v0A2.17,2.17,0,0,1,55.52,61.81Z"/><path class="cls-9" d="M73,61.81h8.46a2.17,2.17,0,0,1,2.23,2.24v0a2.16,2.16,0,0,1-2.23,2.23H73a2.17,2.17,0,0,1-2.24-2.23v0A2.18,2.18,0,0,1,73,61.81Z"/><path class="cls-9" d="M81.38,61.81H85.7a2.17,2.17,0,0,1,2.23,2.24v0a2.16,2.16,0,0,1-2.23,2.23H81.38a2.17,2.17,0,0,1-2.24-2.23v0A2.18,2.18,0,0,1,81.38,61.81Z"/><path class="cls-9" d="M85.67,61.81h8.46a2.17,2.17,0,0,1,2.23,2.24v0a2.16,2.16,0,0,1-2.23,2.23H85.67a2.17,2.17,0,0,1-2.24-2.23v0A2.18,2.18,0,0,1,85.67,61.81Z"/><path class="cls-9" d="M94.1,61.81h8.46a2.17,2.17,0,0,1,2.23,2.24v0a2.16,2.16,0,0,1-2.23,2.23H94.1a2.17,2.17,0,0,1-2.24-2.23v0A2.18,2.18,0,0,1,94.1,61.81Z"/><path class="cls-9" d="M102.53,61.81H111a2.17,2.17,0,0,1,2.23,2.24v0A2.16,2.16,0,0,1,111,66.31h-8.46a2.17,2.17,0,0,1-2.24-2.23v0A2.18,2.18,0,0,1,102.53,61.81Z"/><path class="cls-9" d="M120,61.81h8.46a2.17,2.17,0,0,1,2.23,2.24v0a2.16,2.16,0,0,1-2.23,2.23H120a2.17,2.17,0,0,1-2.24-2.23v0A2.18,2.18,0,0,1,120,61.81Z"/><path class="cls-9" d="M128.39,61.81h8.46a2.17,2.17,0,0,1,2.23,2.24v0a2.16,2.16,0,0,1-2.23,2.23h-8.46a2.17,2.17,0,0,1-2.24-2.23v0A2.18,2.18,0,0,1,128.39,61.81Z"/><path class="cls-9" d="M136.82,61.81h8.46a2.17,2.17,0,0,1,2.23,2.24v0a2.16,2.16,0,0,1-2.23,2.23h-8.46a2.17,2.17,0,0,1-2.24-2.23v0A2.18,2.18,0,0,1,136.82,61.81Z"/><path class="cls-9" d="M145.25,61.81h8.46a2.17,2.17,0,0,1,2.23,2.24v0a2.16,2.16,0,0,1-2.23,2.23h-8.46A2.17,2.17,0,0,1,143,64.08v0A2.18,2.18,0,0,1,145.25,61.81Z"/><path class="cls-9" d="M153.68,61.81h8.46a2.17,2.17,0,0,1,2.23,2.24v0a2.16,2.16,0,0,1-2.23,2.23h-8.46a2.17,2.17,0,0,1-2.24-2.23v0A2.18,2.18,0,0,1,153.68,61.81Z"/><path class="cls-9" d="M162.11,61.81h4.32a2.17,2.17,0,0,1,2.23,2.24v0a2.16,2.16,0,0,1-2.23,2.23h-4.32a2.17,2.17,0,0,1-2.24-2.23v0A2.18,2.18,0,0,1,162.11,61.81Z"/><path class="cls-9" d="M166.4,61.81h8.46a2.17,2.17,0,0,1,2.23,2.24v0a2.16,2.16,0,0,1-2.23,2.23H166.4a2.17,2.17,0,0,1-2.24-2.23v0A2.18,2.18,0,0,1,166.4,61.81Z"/><path class="cls-9" d="M174.83,61.81h8.46a2.17,2.17,0,0,1,2.23,2.24v0a2.16,2.16,0,0,1-2.23,2.23h-8.46a2.17,2.17,0,0,1-2.24-2.23v0A2.18,2.18,0,0,1,174.83,61.81Z"/><path class="cls-9" d="M192.26,61.81h4.32a2.17,2.17,0,0,1,2.23,2.24v0a2.16,2.16,0,0,1-2.23,2.23h-4.32A2.17,2.17,0,0,1,190,64.08v0A2.18,2.18,0,0,1,192.26,61.81Z"/><path class="cls-9" d="M196.55,61.81H205a2.17,2.17,0,0,1,2.23,2.24v0A2.16,2.16,0,0,1,205,66.31h-8.46a2.17,2.17,0,0,1-2.24-2.23v0A2.18,2.18,0,0,1,196.55,61.81Z"/><path class="cls-9" d="M205,61.81h8.46a2.17,2.17,0,0,1,2.23,2.24v0a2.16,2.16,0,0,1-2.23,2.23H205a2.17,2.17,0,0,1-2.24-2.23v0A2.18,2.18,0,0,1,205,61.81Z"/><path class="cls-9" d="M213.41,61.81h8.46a2.17,2.17,0,0,1,2.23,2.24v0a2.16,2.16,0,0,1-2.23,2.23h-8.46a2.17,2.17,0,0,1-2.24-2.23v0A2.18,2.18,0,0,1,213.41,61.81Z"/><path class="cls-9" d="M221.84,61.81h8.46a2.17,2.17,0,0,1,2.23,2.24v0a2.16,2.16,0,0,1-2.23,2.23h-8.46a2.17,2.17,0,0,1-2.24-2.23v0A2.18,2.18,0,0,1,221.84,61.81Z"/><path class="cls-9" d="M230.27,61.81h8.46A2.17,2.17,0,0,1,241,64.05v0a2.16,2.16,0,0,1-2.23,2.23h-8.46A2.17,2.17,0,0,1,228,64.08v0A2.18,2.18,0,0,1,230.27,61.81Z"/></g><g class="cls-6"><path class="cls-9" d="M17.36,85.81h4.32a2.17,2.17,0,0,1,2.23,2.24v0a2.16,2.16,0,0,1-2.23,2.23H17.36a2.17,2.17,0,0,1-2.24-2.23v0A2.18,2.18,0,0,1,17.36,85.81Z"/><path class="cls-9" d="M21.65,85.81h8.46a2.17,2.17,0,0,1,2.23,2.24v0a2.16,2.16,0,0,1-2.23,2.23H21.65a2.16,2.16,0,0,1-2.23-2.23v0A2.17,2.17,0,0,1,21.65,85.81Z"/><path class="cls-9" d="M30.08,85.81h8.46a2.17,2.17,0,0,1,2.23,2.24v0a2.16,2.16,0,0,1-2.23,2.23H30.08a2.17,2.17,0,0,1-2.24-2.23v0A2.18,2.18,0,0,1,30.08,85.81Z"/><path class="cls-9" d="M38.51,85.81H47a2.18,2.18,0,0,1,2.24,2.24v0A2.17,2.17,0,0,1,47,90.31H38.51a2.16,2.16,0,0,1-2.23-2.23v0A2.17,2.17,0,0,1,38.51,85.81Z"/><path class="cls-9" d="M55.94,85.81h4.32a2.17,2.17,0,0,1,2.23,2.24v0a2.16,2.16,0,0,1-2.23,2.23H55.94a2.16,2.16,0,0,1-2.23-2.23v0A2.17,2.17,0,0,1,55.94,85.81Z"/><path class="cls-9" d="M60.23,85.81h8.46a2.17,2.17,0,0,1,2.23,2.24v0a2.16,2.16,0,0,1-2.23,2.23H60.23A2.17,2.17,0,0,1,58,88.08v0A2.18,2.18,0,0,1,60.23,85.81Z"/><path class="cls-9" d="M68.66,85.81h8.46a2.17,2.17,0,0,1,2.23,2.24v0a2.16,2.16,0,0,1-2.23,2.23H68.66a2.17,2.17,0,0,1-2.24-2.23v0A2.18,2.18,0,0,1,68.66,85.81Z"/><path class="cls-9" d="M77.09,85.81h4.32a2.17,2.17,0,0,1,2.23,2.24v0a2.16,2.16,0,0,1-2.23,2.23H77.09a2.17,2.17,0,0,1-2.24-2.23v0A2.18,2.18,0,0,1,77.09,85.81Z"/><path class="cls-9" d="M81.38,85.81H85.7a2.17,2.17,0,0,1,2.23,2.24v0a2.16,2.16,0,0,1-2.23,2.23H81.38a2.17,2.17,0,0,1-2.24-2.23v0A2.18,2.18,0,0,1,81.38,85.81Z"/><path class="cls-9" d="M85.67,85.81h8.46a2.17,2.17,0,0,1,2.23,2.24v0a2.16,2.16,0,0,1-2.23,2.23H85.67a2.17,2.17,0,0,1-2.24-2.23v0A2.18,2.18,0,0,1,85.67,85.81Z"/><path class="cls-9" d="M103.1,85.81h8.46a2.17,2.17,0,0,1,2.23,2.24v0a2.16,2.16,0,0,1-2.23,2.23H103.1a2.17,2.17,0,0,1-2.24-2.23v0A2.18,2.18,0,0,1,103.1,85.81Z"/><path class="cls-9" d="M111.53,85.81H120a2.17,2.17,0,0,1,2.23,2.24v0A2.16,2.16,0,0,1,120,90.31h-8.46a2.17,2.17,0,0,1-2.24-2.23v0A2.18,2.18,0,0,1,111.53,85.81Z"/><path class="cls-9" d="M129,85.81h4.32a2.17,2.17,0,0,1,2.23,2.24v0a2.16,2.16,0,0,1-2.23,2.23H129a2.17,2.17,0,0,1-2.24-2.23v0A2.18,2.18,0,0,1,129,85.81Z"/><path class="cls-9" d="M133.25,85.81h8.46a2.17,2.17,0,0,1,2.23,2.24v0a2.16,2.16,0,0,1-2.23,2.23h-8.46A2.17,2.17,0,0,1,131,88.08v0A2.18,2.18,0,0,1,133.25,85.81Z"/><path class="cls-9" d="M141.68,85.81h8.46a2.17,2.17,0,0,1,2.23,2.24v0a2.16,2.16,0,0,1-2.23,2.23h-8.46a2.17,2.17,0,0,1-2.24-2.23v0A2.18,2.18,0,0,1,141.68,85.81Z"/><path class="cls-9" d="M159.11,85.81h4.32a2.17,2.17,0,0,1,2.23,2.24v0a2.16,2.16,0,0,1-2.23,2.23h-4.32a2.17,2.17,0,0,1-2.24-2.23v0A2.18,2.18,0,0,1,159.11,85.81Z"/><path class="cls-9" d="M163.4,85.81h8.46a2.17,2.17,0,0,1,2.23,2.24v0a2.16,2.16,0,0,1-2.23,2.23H163.4a2.17,2.17,0,0,1-2.24-2.23v0A2.18,2.18,0,0,1,163.4,85.81Z"/><path class="cls-9" d="M171.83,85.81h8.46a2.17,2.17,0,0,1,2.23,2.24v0a2.16,2.16,0,0,1-2.23,2.23h-8.46a2.17,2.17,0,0,1-2.24-2.23v0A2.18,2.18,0,0,1,171.83,85.81Z"/><path class="cls-9" d="M180.26,85.81h8.46A2.17,2.17,0,0,1,191,88.05v0a2.16,2.16,0,0,1-2.23,2.23h-8.46A2.17,2.17,0,0,1,178,88.08v0A2.18,2.18,0,0,1,180.26,85.81Z"/><path class="cls-9" d="M197.69,85.81h8.46a2.17,2.17,0,0,1,2.23,2.24v0a2.16,2.16,0,0,1-2.23,2.23h-8.46a2.17,2.17,0,0,1-2.24-2.23v0A2.18,2.18,0,0,1,197.69,85.81Z"/><path class="cls-9" d="M206.12,85.81h4.32a2.17,2.17,0,0,1,2.23,2.24v0a2.16,2.16,0,0,1-2.23,2.23h-4.32a2.17,2.17,0,0,1-2.24-2.23v0A2.18,2.18,0,0,1,206.12,85.81Z"/><path class="cls-9" d="M210.41,85.81h8.46a2.17,2.17,0,0,1,2.23,2.24v0a2.16,2.16,0,0,1-2.23,2.23h-8.46a2.17,2.17,0,0,1-2.24-2.23v0A2.18,2.18,0,0,1,210.41,85.81Z"/><path class="cls-9" d="M218.84,85.81h8.46a2.17,2.17,0,0,1,2.23,2.24v0a2.16,2.16,0,0,1-2.23,2.23h-8.46a2.17,2.17,0,0,1-2.24-2.23v0A2.18,2.18,0,0,1,218.84,85.81Z"/><path class="cls-9" d="M227.27,85.81h4.32a2.17,2.17,0,0,1,2.23,2.24v0a2.16,2.16,0,0,1-2.23,2.23h-4.32A2.17,2.17,0,0,1,225,88.08v0A2.18,2.18,0,0,1,227.27,85.81Z"/><path class="cls-9" d="M231.56,85.81H240a2.17,2.17,0,0,1,2.23,2.24v0A2.16,2.16,0,0,1,240,90.31h-8.46a2.17,2.17,0,0,1-2.24-2.23v0A2.18,2.18,0,0,1,231.56,85.81Z"/><path class="cls-9" d="M240,85.81h8.46a2.17,2.17,0,0,1,2.23,2.24v0a2.16,2.16,0,0,1-2.23,2.23H240a2.17,2.17,0,0,1-2.24-2.23v0A2.18,2.18,0,0,1,240,85.81Z"/><path class="cls-9" d="M248.42,85.81h4.32A2.17,2.17,0,0,1,255,88.05v0a2.16,2.16,0,0,1-2.23,2.23h-4.32a2.17,2.17,0,0,1-2.24-2.23v0A2.18,2.18,0,0,1,248.42,85.81Z"/></g><g class="cls-6"><path class="cls-9" d="M17.36,109.81h8.46a2.17,2.17,0,0,1,2.23,2.24v0a2.16,2.16,0,0,1-2.23,2.23H17.36a2.17,2.17,0,0,1-2.24-2.23v0A2.18,2.18,0,0,1,17.36,109.81Z"/><path class="cls-9" d="M25.79,109.81h4.32a2.17,2.17,0,0,1,2.23,2.24v0a2.16,2.16,0,0,1-2.23,2.23H25.79a2.17,2.17,0,0,1-2.24-2.23v0A2.18,2.18,0,0,1,25.79,109.81Z"/><path class="cls-9" d="M30.08,109.81H34.4a2.17,2.17,0,0,1,2.23,2.24v0a2.16,2.16,0,0,1-2.23,2.23H30.08a2.17,2.17,0,0,1-2.24-2.23v0A2.18,2.18,0,0,1,30.08,109.81Z"/><path class="cls-9" d="M34.37,109.81h4.32a2.17,2.17,0,0,1,2.23,2.24v0a2.16,2.16,0,0,1-2.23,2.23H34.37a2.17,2.17,0,0,1-2.24-2.23v0A2.18,2.18,0,0,1,34.37,109.81Z"/><path class="cls-9" d="M38.66,109.81h8.46a2.17,2.17,0,0,1,2.23,2.24v0a2.16,2.16,0,0,1-2.23,2.23H38.66a2.17,2.17,0,0,1-2.24-2.23v0A2.18,2.18,0,0,1,38.66,109.81Z"/><path class="cls-9" d="M47.09,109.81h4.32a2.17,2.17,0,0,1,2.23,2.24v0a2.16,2.16,0,0,1-2.23,2.23H47.09a2.17,2.17,0,0,1-2.24-2.23v0A2.18,2.18,0,0,1,47.09,109.81Z"/><path class="cls-9" d="M51.38,109.81h8.46a2.17,2.17,0,0,1,2.23,2.24v0a2.16,2.16,0,0,1-2.23,2.23H51.38a2.17,2.17,0,0,1-2.24-2.23v0A2.18,2.18,0,0,1,51.38,109.81Z"/><path class="cls-9" d="M68.81,109.81h8.46a2.17,2.17,0,0,1,2.23,2.24v0a2.16,2.16,0,0,1-2.23,2.23H68.81a2.17,2.17,0,0,1-2.24-2.23v0A2.18,2.18,0,0,1,68.81,109.81Z"/><path class="cls-9" d="M77.24,109.81h4.32a2.17,2.17,0,0,1,2.23,2.24v0a2.16,2.16,0,0,1-2.23,2.23H77.24A2.17,2.17,0,0,1,75,112.08v0A2.18,2.18,0,0,1,77.24,109.81Z"/><path class="cls-9" d="M90.53,109.81H99a2.17,2.17,0,0,1,2.23,2.24v0A2.16,2.16,0,0,1,99,114.31H90.53a2.17,2.17,0,0,1-2.24-2.23v0A2.18,2.18,0,0,1,90.53,109.81Z"/><path class="cls-9" d="M99,109.81h4.32a2.17,2.17,0,0,1,2.23,2.24v0a2.16,2.16,0,0,1-2.23,2.23H99a2.17,2.17,0,0,1-2.24-2.23v0A2.18,2.18,0,0,1,99,109.81Z"/><path class="cls-9" d="M103.25,109.81h4.32a2.17,2.17,0,0,1,2.23,2.24v0a2.16,2.16,0,0,1-2.23,2.23h-4.32a2.17,2.17,0,0,1-2.24-2.23v0A2.18,2.18,0,0,1,103.25,109.81Z"/><path class="cls-9" d="M116.54,109.81h4.32a2.17,2.17,0,0,1,2.23,2.24v0a2.16,2.16,0,0,1-2.23,2.23h-4.32a2.17,2.17,0,0,1-2.24-2.23v0A2.18,2.18,0,0,1,116.54,109.81Z"/><path class="cls-9" d="M120.83,109.81h4.32a2.17,2.17,0,0,1,2.23,2.24v0a2.16,2.16,0,0,1-2.23,2.23h-4.32a2.17,2.17,0,0,1-2.24-2.23v0A2.18,2.18,0,0,1,120.83,109.81Z"/><path class="cls-9" d="M125.12,109.81h8.46a2.17,2.17,0,0,1,2.23,2.24v0a2.16,2.16,0,0,1-2.23,2.23h-8.46a2.17,2.17,0,0,1-2.24-2.23v0A2.18,2.18,0,0,1,125.12,109.81Z"/><path class="cls-9" d="M133.55,109.81H142a2.17,2.17,0,0,1,2.23,2.24v0a2.16,2.16,0,0,1-2.23,2.23h-8.46a2.17,2.17,0,0,1-2.24-2.23v0A2.18,2.18,0,0,1,133.55,109.81Z"/><path class="cls-9" d="M142,109.81h4.32a2.17,2.17,0,0,1,2.23,2.24v0a2.16,2.16,0,0,1-2.23,2.23H142a2.17,2.17,0,0,1-2.24-2.23v0A2.18,2.18,0,0,1,142,109.81Z"/><path class="cls-9" d="M155.27,109.81h4.32a2.17,2.17,0,0,1,2.23,2.24v0a2.16,2.16,0,0,1-2.23,2.23h-4.32a2.17,2.17,0,0,1-2.24-2.23v0A2.18,2.18,0,0,1,155.27,109.81Z"/><path class="cls-9" d="M159.56,109.81h4.32a2.17,2.17,0,0,1,2.23,2.24v0a2.16,2.16,0,0,1-2.23,2.23h-4.32a2.17,2.17,0,0,1-2.24-2.23v0A2.18,2.18,0,0,1,159.56,109.81Z"/><path class="cls-9" d="M163.85,109.81h8.46a2.17,2.17,0,0,1,2.23,2.24v0a2.16,2.16,0,0,1-2.23,2.23h-8.46a2.17,2.17,0,0,1-2.24-2.23v0A2.18,2.18,0,0,1,163.85,109.81Z"/><path class="cls-9" d="M172.28,109.81h4.32a2.17,2.17,0,0,1,2.23,2.24v0a2.16,2.16,0,0,1-2.23,2.23h-4.32a2.17,2.17,0,0,1-2.24-2.23v0A2.18,2.18,0,0,1,172.28,109.81Z"/><path class="cls-9" d="M185.57,109.81H194a2.17,2.17,0,0,1,2.23,2.24v0a2.16,2.16,0,0,1-2.23,2.23h-8.46a2.17,2.17,0,0,1-2.24-2.23v0A2.18,2.18,0,0,1,185.57,109.81Z"/><path class="cls-9" d="M194,109.81h8.46a2.17,2.17,0,0,1,2.23,2.24v0a2.16,2.16,0,0,1-2.23,2.23H194a2.17,2.17,0,0,1-2.24-2.23v0A2.18,2.18,0,0,1,194,109.81Z"/><path class="cls-9" d="M202.43,109.81h8.46a2.17,2.17,0,0,1,2.23,2.24v0a2.16,2.16,0,0,1-2.23,2.23h-8.46a2.17,2.17,0,0,1-2.24-2.23v0A2.18,2.18,0,0,1,202.43,109.81Z"/><path class="cls-9" d="M219.86,109.81h4.32a2.17,2.17,0,0,1,2.23,2.24v0a2.16,2.16,0,0,1-2.23,2.23h-4.32a2.17,2.17,0,0,1-2.24-2.23v0A2.18,2.18,0,0,1,219.86,109.81Z"/><path class="cls-9" d="M224.15,109.81h8.46a2.17,2.17,0,0,1,2.23,2.24v0a2.16,2.16,0,0,1-2.23,2.23h-8.46a2.17,2.17,0,0,1-2.24-2.23v0A2.18,2.18,0,0,1,224.15,109.81Z"/><path class="cls-9" d="M232.58,109.81H241a2.17,2.17,0,0,1,2.23,2.24v0a2.16,2.16,0,0,1-2.23,2.23h-8.46a2.17,2.17,0,0,1-2.24-2.23v0A2.18,2.18,0,0,1,232.58,109.81Z"/><path class="cls-9" d="M241,109.81h4.32a2.17,2.17,0,0,1,2.23,2.24v0a2.16,2.16,0,0,1-2.23,2.23H241a2.17,2.17,0,0,1-2.24-2.23v0A2.18,2.18,0,0,1,241,109.81Z"/><path class="cls-9" d="M245.3,109.81h4.32a2.17,2.17,0,0,1,2.23,2.24v0a2.16,2.16,0,0,1-2.23,2.23H245.3a2.17,2.17,0,0,1-2.24-2.23v0A2.18,2.18,0,0,1,245.3,109.81Z"/></g><g class="cls-6"><path class="cls-9" d="M17.36,133.81h8.46a2.17,2.17,0,0,1,2.23,2.24v0a2.16,2.16,0,0,1-2.23,2.23H17.36a2.17,2.17,0,0,1-2.24-2.23v0A2.18,2.18,0,0,1,17.36,133.81Z"/><path class="cls-9" d="M25.79,133.81h8.46a2.17,2.17,0,0,1,2.23,2.24v0a2.16,2.16,0,0,1-2.23,2.23H25.79a2.17,2.17,0,0,1-2.24-2.23v0A2.18,2.18,0,0,1,25.79,133.81Z"/><path class="cls-9" d="M34.22,133.81h4.32a2.17,2.17,0,0,1,2.23,2.24v0a2.16,2.16,0,0,1-2.23,2.23H34.22A2.17,2.17,0,0,1,32,136.08v0A2.18,2.18,0,0,1,34.22,133.81Z"/><path class="cls-9" d="M38.51,133.81h4.32a2.17,2.17,0,0,1,2.23,2.24v0a2.16,2.16,0,0,1-2.23,2.23H38.51a2.16,2.16,0,0,1-2.23-2.23v0A2.17,2.17,0,0,1,38.51,133.81Z"/><path class="cls-9" d="M42.8,133.81h8.46a2.17,2.17,0,0,1,2.23,2.24v0a2.16,2.16,0,0,1-2.23,2.23H42.8a2.17,2.17,0,0,1-2.24-2.23v0A2.18,2.18,0,0,1,42.8,133.81Z"/><path class="cls-9" d="M51.23,133.81h8.46a2.17,2.17,0,0,1,2.23,2.24v0a2.16,2.16,0,0,1-2.23,2.23H51.23A2.17,2.17,0,0,1,49,136.08v0A2.18,2.18,0,0,1,51.23,133.81Z"/><path class="cls-9" d="M59.66,133.81H64a2.17,2.17,0,0,1,2.23,2.24v0A2.16,2.16,0,0,1,64,138.31H59.66a2.17,2.17,0,0,1-2.24-2.23v0A2.18,2.18,0,0,1,59.66,133.81Z"/><path class="cls-9" d="M64,133.81h8.46a2.17,2.17,0,0,1,2.23,2.24v0a2.16,2.16,0,0,1-2.23,2.23H64a2.17,2.17,0,0,1-2.24-2.23v0A2.18,2.18,0,0,1,64,133.81Z"/><path class="cls-9" d="M72.38,133.81h8.46a2.17,2.17,0,0,1,2.23,2.24v0a2.16,2.16,0,0,1-2.23,2.23H72.38a2.17,2.17,0,0,1-2.24-2.23v0A2.18,2.18,0,0,1,72.38,133.81Z"/><path class="cls-9" d="M89.81,133.81h4.32a2.17,2.17,0,0,1,2.23,2.24v0a2.16,2.16,0,0,1-2.23,2.23H89.81a2.17,2.17,0,0,1-2.24-2.23v0A2.18,2.18,0,0,1,89.81,133.81Z"/><path class="cls-9" d="M94.1,133.81h8.46a2.17,2.17,0,0,1,2.23,2.24v0a2.16,2.16,0,0,1-2.23,2.23H94.1a2.17,2.17,0,0,1-2.24-2.23v0A2.18,2.18,0,0,1,94.1,133.81Z"/><path class="cls-9" d="M102.53,133.81H111a2.17,2.17,0,0,1,2.23,2.24v0a2.16,2.16,0,0,1-2.23,2.23h-8.46a2.17,2.17,0,0,1-2.24-2.23v0A2.18,2.18,0,0,1,102.53,133.81Z"/><path class="cls-9" d="M111,133.81h8.46a2.17,2.17,0,0,1,2.23,2.24v0a2.16,2.16,0,0,1-2.23,2.23H111a2.17,2.17,0,0,1-2.24-2.23v0A2.18,2.18,0,0,1,111,133.81Z"/><path class="cls-9" d="M119.39,133.81h4.32a2.17,2.17,0,0,1,2.23,2.24v0a2.16,2.16,0,0,1-2.23,2.23h-4.32a2.17,2.17,0,0,1-2.24-2.23v0A2.18,2.18,0,0,1,119.39,133.81Z"/><path class="cls-9" d="M123.68,133.81h8.46a2.17,2.17,0,0,1,2.23,2.24v0a2.16,2.16,0,0,1-2.23,2.23h-8.46a2.17,2.17,0,0,1-2.24-2.23v0A2.18,2.18,0,0,1,123.68,133.81Z"/><path class="cls-9" d="M141.11,133.81h8.46a2.17,2.17,0,0,1,2.23,2.24v0a2.16,2.16,0,0,1-2.23,2.23h-8.46a2.17,2.17,0,0,1-2.24-2.23v0A2.18,2.18,0,0,1,141.11,133.81Z"/><path class="cls-9" d="M149.54,133.81H158a2.17,2.17,0,0,1,2.23,2.24v0a2.16,2.16,0,0,1-2.23,2.23h-8.46a2.17,2.17,0,0,1-2.24-2.23v0A2.18,2.18,0,0,1,149.54,133.81Z"/><path class="cls-9" d="M158,133.81h4.32a2.17,2.17,0,0,1,2.23,2.24v0a2.16,2.16,0,0,1-2.23,2.23H158a2.17,2.17,0,0,1-2.24-2.23v0A2.18,2.18,0,0,1,158,133.81Z"/><path class="cls-9" d="M162.26,133.81h8.46a2.17,2.17,0,0,1,2.23,2.24v0a2.16,2.16,0,0,1-2.23,2.23h-8.46a2.17,2.17,0,0,1-2.24-2.23v0A2.18,2.18,0,0,1,162.26,133.81Z"/><path class="cls-9" d="M170.69,133.81h8.46a2.17,2.17,0,0,1,2.23,2.24v0a2.16,2.16,0,0,1-2.23,2.23h-8.46a2.17,2.17,0,0,1-2.24-2.23v0A2.18,2.18,0,0,1,170.69,133.81Z"/><path class="cls-9" d="M188.12,133.81h8.46a2.17,2.17,0,0,1,2.23,2.24v0a2.16,2.16,0,0,1-2.23,2.23h-8.46a2.17,2.17,0,0,1-2.24-2.23v0A2.18,2.18,0,0,1,188.12,133.81Z"/><path class="cls-9" d="M196.55,133.81h4.32a2.17,2.17,0,0,1,2.23,2.24v0a2.16,2.16,0,0,1-2.23,2.23h-4.32a2.17,2.17,0,0,1-2.24-2.23v0A2.18,2.18,0,0,1,196.55,133.81Z"/><path class="cls-9" d="M200.84,133.81h8.46a2.17,2.17,0,0,1,2.23,2.24v0a2.16,2.16,0,0,1-2.23,2.23h-8.46a2.17,2.17,0,0,1-2.24-2.23v0A2.18,2.18,0,0,1,200.84,133.81Z"/></g></g><g id="Card_Title" data-name="Card Title" class="cls-6"><g class="cls-6"><path class="cls-9" d="M25.88,26.87v3.9h-9v-3.9Z"/><path class="cls-9" d="M33.67,26.87v3.9h-9v-3.9Z"/><path class="cls-9" d="M37.38,26.87v3.9H32.5v-3.9Z"/><path class="cls-9" d="M45.17,26.87v3.9h-9v-3.9Z"/><path class="cls-9" d="M56.69,26.87v3.9H51.8v-3.9Z"/><path class="cls-9" d="M60.41,26.87v3.9H55.52v-3.9Z"/><path class="cls-9" d="M64.12,26.87v3.9H59.24v-3.9Z"/><path class="cls-9" d="M67.84,26.87v3.9H63v-3.9Z"/><path class="cls-9" d="M75.63,26.87v3.9h-9v-3.9Z"/></g></g><path id="ic_more_horiz_24px" data-name="ic more horiz 24px" class="cls-10" d="M256.28,33.88A1.74,1.74,0,1,0,258,32.14,1.74,1.74,0,0,0,256.28,33.88Zm0-10.42A1.74,1.74,0,1,0,258,21.72h0A1.74,1.74,0,0,0,256.28,23.46Zm0,5.21A1.74,1.74,0,1,0,258,26.93,1.74,1.74,0,0,0,256.28,28.67Z"/><g id="Meanwhile_Lieutenant_Hanna_Al_Pacino_attempts_to_track_down_McCauley_as_he_deals_with_the_chaos_in_his_own_life_including_the_infidelity_of_his_wife_Diane_Venora_and_the_mental_health_of_his_stepdaughter_Natalie_Portman_._McCauley_and_Hanna_discover" data-name="Meanwhile Lieutenant Hanna Al Pacino attempts to track down McCauley as he deals with the chaos in his own life including the infidelity of his wife Diane Venora and the mental health of his stepdaughter Natalie Portman . McCauley and Hanna discover" class="cls-6"><g class="cls-6"><path class="cls-9" d="M17.36,181.32h6.21A1.59,1.59,0,0,1,25.21,183v0a1.59,1.59,0,0,1-1.64,1.64H17.36A1.6,1.6,0,0,1,15.72,183v0A1.59,1.59,0,0,1,17.36,181.32Z"/><path class="cls-9" d="M23.55,181.32h6.2A1.59,1.59,0,0,1,31.39,183v0a1.59,1.59,0,0,1-1.64,1.64h-6.2A1.59,1.59,0,0,1,21.91,183v0A1.59,1.59,0,0,1,23.55,181.32Z"/><path class="cls-9" d="M29.73,181.32h6.2A1.59,1.59,0,0,1,37.57,183v0a1.59,1.59,0,0,1-1.64,1.64h-6.2A1.59,1.59,0,0,1,28.09,183v0A1.59,1.59,0,0,1,29.73,181.32Z"/><path class="cls-9" d="M35.91,181.32h6.21A1.58,1.58,0,0,1,43.75,183v0a1.59,1.59,0,0,1-1.63,1.64H35.91A1.59,1.59,0,0,1,34.27,183v0A1.59,1.59,0,0,1,35.91,181.32Z"/><path class="cls-9" d="M42.09,181.32H48.3A1.59,1.59,0,0,1,49.94,183v0a1.6,1.6,0,0,1-1.64,1.64H42.09A1.6,1.6,0,0,1,40.45,183v0A1.59,1.59,0,0,1,42.09,181.32Z"/><path class="cls-9" d="M48.27,181.32h6.21A1.59,1.59,0,0,1,56.12,183v0a1.6,1.6,0,0,1-1.64,1.64H48.27A1.6,1.6,0,0,1,46.63,183v0A1.59,1.59,0,0,1,48.27,181.32Z"/><path class="cls-9" d="M54.46,181.32h3.16A1.59,1.59,0,0,1,59.26,183v0a1.59,1.59,0,0,1-1.64,1.64H54.46A1.59,1.59,0,0,1,52.82,183v0A1.59,1.59,0,0,1,54.46,181.32Z"/><path class="cls-9" d="M57.6,181.32h3.17A1.59,1.59,0,0,1,62.41,183v0a1.59,1.59,0,0,1-1.64,1.64H57.6A1.6,1.6,0,0,1,56,183v0A1.59,1.59,0,0,1,57.6,181.32Z"/><path class="cls-9" d="M60.75,181.32H67A1.59,1.59,0,0,1,68.59,183v0A1.59,1.59,0,0,1,67,184.62h-6.2A1.59,1.59,0,0,1,59.11,183v0A1.59,1.59,0,0,1,60.75,181.32Z"/><path class="cls-9" d="M66.93,181.32H70.1A1.59,1.59,0,0,1,71.74,183v0a1.6,1.6,0,0,1-1.64,1.64H66.93A1.59,1.59,0,0,1,65.29,183v0A1.59,1.59,0,0,1,66.93,181.32Z"/><path class="cls-9" d="M76.68,181.32h3.16A1.59,1.59,0,0,1,81.48,183v0a1.59,1.59,0,0,1-1.64,1.64H76.68A1.59,1.59,0,0,1,75,183v0A1.59,1.59,0,0,1,76.68,181.32Z"/><path class="cls-9" d="M79.82,181.32H83A1.59,1.59,0,0,1,84.63,183v0A1.59,1.59,0,0,1,83,184.62H79.82A1.6,1.6,0,0,1,78.18,183v0A1.59,1.59,0,0,1,79.82,181.32Z"/><path class="cls-9" d="M83,181.32h6.2A1.59,1.59,0,0,1,90.81,183v0a1.59,1.59,0,0,1-1.64,1.64H83A1.59,1.59,0,0,1,81.33,183v0A1.59,1.59,0,0,1,83,181.32Z"/><path class="cls-9" d="M89.15,181.32h6.2A1.59,1.59,0,0,1,97,183v0a1.59,1.59,0,0,1-1.64,1.64h-6.2A1.59,1.59,0,0,1,87.51,183v0A1.59,1.59,0,0,1,89.15,181.32Z"/><path class="cls-9" d="M95.33,181.32H98.5a1.59,1.59,0,0,1,1.64,1.64v0a1.59,1.59,0,0,1-1.64,1.64H95.33A1.59,1.59,0,0,1,93.69,183v0A1.59,1.59,0,0,1,95.33,181.32Z"/><path class="cls-9" d="M98.48,181.32h6.2a1.59,1.59,0,0,1,1.64,1.64v0a1.59,1.59,0,0,1-1.64,1.64h-6.2A1.59,1.59,0,0,1,96.84,183v0A1.59,1.59,0,0,1,98.48,181.32Z"/><path class="cls-9" d="M104.66,181.32h6.2A1.59,1.59,0,0,1,112.5,183v0a1.59,1.59,0,0,1-1.64,1.64h-6.2A1.59,1.59,0,0,1,103,183v0A1.59,1.59,0,0,1,104.66,181.32Z"/><path class="cls-9" d="M110.84,181.32h6.21a1.59,1.59,0,0,1,1.64,1.64v0a1.6,1.6,0,0,1-1.64,1.64h-6.21A1.59,1.59,0,0,1,109.2,183v0A1.59,1.59,0,0,1,110.84,181.32Z"/><path class="cls-9" d="M117,181.32h6.21a1.59,1.59,0,0,1,1.64,1.64v0a1.6,1.6,0,0,1-1.64,1.64H117a1.6,1.6,0,0,1-1.64-1.64v0A1.59,1.59,0,0,1,117,181.32Z"/><path class="cls-9" d="M123.21,181.32h3.16A1.59,1.59,0,0,1,128,183v0a1.59,1.59,0,0,1-1.64,1.64h-3.16a1.59,1.59,0,0,1-1.64-1.64v0A1.59,1.59,0,0,1,123.21,181.32Z"/><path class="cls-9" d="M133,181.32h6.21a1.58,1.58,0,0,1,1.63,1.64v0a1.59,1.59,0,0,1-1.63,1.64H133a1.59,1.59,0,0,1-1.64-1.64v0A1.59,1.59,0,0,1,133,181.32Z"/><path class="cls-9" d="M139.13,181.32h6.21A1.59,1.59,0,0,1,147,183v0a1.6,1.6,0,0,1-1.64,1.64h-6.21a1.6,1.6,0,0,1-1.64-1.64v0A1.59,1.59,0,0,1,139.13,181.32Z"/><path class="cls-9" d="M145.31,181.32h6.21a1.59,1.59,0,0,1,1.64,1.64v0a1.59,1.59,0,0,1-1.64,1.64h-6.21a1.59,1.59,0,0,1-1.63-1.64v0A1.58,1.58,0,0,1,145.31,181.32Z"/><path class="cls-9" d="M151.5,181.32h6.2a1.59,1.59,0,0,1,1.64,1.64v0a1.59,1.59,0,0,1-1.64,1.64h-6.2a1.59,1.59,0,0,1-1.64-1.64v0A1.59,1.59,0,0,1,151.5,181.32Z"/><path class="cls-9" d="M157.68,181.32h6.2a1.59,1.59,0,0,1,1.64,1.64v0a1.59,1.59,0,0,1-1.64,1.64h-6.2A1.59,1.59,0,0,1,156,183v0A1.59,1.59,0,0,1,157.68,181.32Z"/><path class="cls-9" d="M170.46,181.32h3.17a1.59,1.59,0,0,1,1.64,1.64v0a1.59,1.59,0,0,1-1.64,1.64h-3.17a1.59,1.59,0,0,1-1.64-1.64v0A1.59,1.59,0,0,1,170.46,181.32Z"/><path class="cls-9" d="M173.61,181.32h6.2a1.59,1.59,0,0,1,1.64,1.64v0a1.59,1.59,0,0,1-1.64,1.64h-6.2A1.59,1.59,0,0,1,172,183v0A1.59,1.59,0,0,1,173.61,181.32Z"/><path class="cls-9" d="M179.79,181.32H183A1.59,1.59,0,0,1,184.6,183v0a1.6,1.6,0,0,1-1.64,1.64h-3.17a1.59,1.59,0,0,1-1.64-1.64v0A1.59,1.59,0,0,1,179.79,181.32Z"/><path class="cls-9" d="M189.53,181.32h6.21a1.59,1.59,0,0,1,1.64,1.64v0a1.59,1.59,0,0,1-1.64,1.64h-6.21a1.6,1.6,0,0,1-1.64-1.64v0A1.59,1.59,0,0,1,189.53,181.32Z"/><path class="cls-9" d="M195.72,181.32h6.2a1.59,1.59,0,0,1,1.64,1.64v0a1.59,1.59,0,0,1-1.64,1.64h-6.2a1.59,1.59,0,0,1-1.64-1.64v0A1.59,1.59,0,0,1,195.72,181.32Z"/><path class="cls-9" d="M201.9,181.32h6.2a1.59,1.59,0,0,1,1.64,1.64v0a1.59,1.59,0,0,1-1.64,1.64h-6.2a1.59,1.59,0,0,1-1.64-1.64v0A1.59,1.59,0,0,1,201.9,181.32Z"/><path class="cls-9" d="M208.08,181.32h3.17a1.59,1.59,0,0,1,1.64,1.64v0a1.59,1.59,0,0,1-1.64,1.64h-3.17a1.59,1.59,0,0,1-1.64-1.64v0A1.59,1.59,0,0,1,208.08,181.32Z"/><path class="cls-9" d="M211.23,181.32h6.2a1.59,1.59,0,0,1,1.64,1.64v0a1.59,1.59,0,0,1-1.64,1.64h-6.2a1.59,1.59,0,0,1-1.64-1.64v0A1.59,1.59,0,0,1,211.23,181.32Z"/><path class="cls-9" d="M217.41,181.32h6.2a1.59,1.59,0,0,1,1.64,1.64v0a1.59,1.59,0,0,1-1.64,1.64h-6.2a1.59,1.59,0,0,1-1.64-1.64v0A1.59,1.59,0,0,1,217.41,181.32Z"/><path class="cls-9" d="M223.59,181.32h3.17A1.59,1.59,0,0,1,228.4,183v0a1.59,1.59,0,0,1-1.64,1.64h-3.17A1.59,1.59,0,0,1,222,183v0A1.59,1.59,0,0,1,223.59,181.32Z"/></g><g class="cls-6"><path class="cls-9" d="M17.36,201.32h6.21A1.59,1.59,0,0,1,25.21,203v0a1.59,1.59,0,0,1-1.64,1.64H17.36A1.6,1.6,0,0,1,15.72,203v0A1.59,1.59,0,0,1,17.36,201.32Z"/><path class="cls-9" d="M23.55,201.32h3.16A1.59,1.59,0,0,1,28.35,203v0a1.59,1.59,0,0,1-1.64,1.64H23.55A1.59,1.59,0,0,1,21.91,203v0A1.59,1.59,0,0,1,23.55,201.32Z"/><path class="cls-9" d="M26.69,201.32h3.17A1.59,1.59,0,0,1,31.5,203v0a1.59,1.59,0,0,1-1.64,1.64H26.69A1.6,1.6,0,0,1,25.05,203v0A1.59,1.59,0,0,1,26.69,201.32Z"/><path class="cls-9" d="M29.84,201.32H36A1.59,1.59,0,0,1,37.68,203v0A1.59,1.59,0,0,1,36,204.62h-6.2A1.59,1.59,0,0,1,28.2,203v0A1.59,1.59,0,0,1,29.84,201.32Z"/><path class="cls-9" d="M36,201.32h6.2A1.59,1.59,0,0,1,43.86,203v0a1.59,1.59,0,0,1-1.64,1.64H36A1.59,1.59,0,0,1,34.38,203v0A1.59,1.59,0,0,1,36,201.32Z"/><path class="cls-9" d="M42.2,201.32h6.21A1.59,1.59,0,0,1,50.05,203v0a1.6,1.6,0,0,1-1.64,1.64H42.2A1.6,1.6,0,0,1,40.56,203v0A1.59,1.59,0,0,1,42.2,201.32Z"/><path class="cls-9" d="M48.38,201.32h3.17A1.59,1.59,0,0,1,53.19,203v0a1.59,1.59,0,0,1-1.64,1.64H48.38A1.6,1.6,0,0,1,46.74,203v0A1.59,1.59,0,0,1,48.38,201.32Z"/><path class="cls-9" d="M51.53,201.32h6.2A1.59,1.59,0,0,1,59.37,203v0a1.59,1.59,0,0,1-1.64,1.64h-6.2A1.59,1.59,0,0,1,49.89,203v0A1.59,1.59,0,0,1,51.53,201.32Z"/><path class="cls-9" d="M64.31,201.32h3.17A1.59,1.59,0,0,1,69.12,203v0a1.59,1.59,0,0,1-1.64,1.64H64.31A1.6,1.6,0,0,1,62.67,203v0A1.59,1.59,0,0,1,64.31,201.32Z"/><path class="cls-9" d="M67.46,201.32h6.2A1.59,1.59,0,0,1,75.3,203v0a1.59,1.59,0,0,1-1.64,1.64h-6.2A1.59,1.59,0,0,1,65.82,203v0A1.59,1.59,0,0,1,67.46,201.32Z"/><path class="cls-9" d="M80.24,201.32h3.17A1.59,1.59,0,0,1,85.05,203v0a1.6,1.6,0,0,1-1.64,1.64H80.24A1.59,1.59,0,0,1,78.6,203v0A1.59,1.59,0,0,1,80.24,201.32Z"/><path class="cls-9" d="M83.38,201.32h3.17A1.59,1.59,0,0,1,88.19,203v0a1.59,1.59,0,0,1-1.64,1.64H83.38A1.59,1.59,0,0,1,81.75,203v0A1.58,1.58,0,0,1,83.38,201.32Z"/><path class="cls-9" d="M86.53,201.32h6.21A1.59,1.59,0,0,1,94.38,203v0a1.6,1.6,0,0,1-1.64,1.64H86.53A1.6,1.6,0,0,1,84.89,203v0A1.59,1.59,0,0,1,86.53,201.32Z"/><path class="cls-9" d="M92.71,201.32h6.21a1.59,1.59,0,0,1,1.64,1.64v0a1.6,1.6,0,0,1-1.64,1.64H92.71A1.6,1.6,0,0,1,91.07,203v0A1.59,1.59,0,0,1,92.71,201.32Z"/><path class="cls-9" d="M98.89,201.32h6.21a1.59,1.59,0,0,1,1.64,1.64v0a1.59,1.59,0,0,1-1.64,1.64H98.89A1.59,1.59,0,0,1,97.26,203v0A1.58,1.58,0,0,1,98.89,201.32Z"/><path class="cls-9" d="M111.68,201.32h6.2a1.59,1.59,0,0,1,1.64,1.64v0a1.59,1.59,0,0,1-1.64,1.64h-6.2A1.59,1.59,0,0,1,110,203v0A1.59,1.59,0,0,1,111.68,201.32Z"/><path class="cls-9" d="M117.86,201.32h6.2A1.59,1.59,0,0,1,125.7,203v0a1.59,1.59,0,0,1-1.64,1.64h-6.2a1.59,1.59,0,0,1-1.64-1.64v0A1.59,1.59,0,0,1,117.86,201.32Z"/><path class="cls-9" d="M124,201.32h6.21a1.58,1.58,0,0,1,1.63,1.64v0a1.59,1.59,0,0,1-1.63,1.64H124A1.59,1.59,0,0,1,122.4,203v0A1.59,1.59,0,0,1,124,201.32Z"/><path class="cls-9" d="M130.22,201.32h6.21a1.59,1.59,0,0,1,1.64,1.64v0a1.6,1.6,0,0,1-1.64,1.64h-6.21a1.6,1.6,0,0,1-1.64-1.64v0A1.59,1.59,0,0,1,130.22,201.32Z"/><path class="cls-9" d="M143,201.32h6.21a1.59,1.59,0,0,1,1.64,1.64v0a1.59,1.59,0,0,1-1.64,1.64H143a1.59,1.59,0,0,1-1.63-1.64v0A1.58,1.58,0,0,1,143,201.32Z"/><path class="cls-9" d="M149.19,201.32h6.2A1.59,1.59,0,0,1,157,203v0a1.59,1.59,0,0,1-1.64,1.64h-6.2a1.59,1.59,0,0,1-1.64-1.64v0A1.59,1.59,0,0,1,149.19,201.32Z"/><path class="cls-9" d="M155.37,201.32h6.2a1.59,1.59,0,0,1,1.64,1.64v0a1.59,1.59,0,0,1-1.64,1.64h-6.2a1.59,1.59,0,0,1-1.64-1.64v0A1.59,1.59,0,0,1,155.37,201.32Z"/><path class="cls-9" d="M161.55,201.32h6.21a1.58,1.58,0,0,1,1.63,1.64v0a1.59,1.59,0,0,1-1.63,1.64h-6.21a1.59,1.59,0,0,1-1.64-1.64v0A1.59,1.59,0,0,1,161.55,201.32Z"/><path class="cls-9" d="M167.73,201.32h6.21a1.59,1.59,0,0,1,1.64,1.64v0a1.6,1.6,0,0,1-1.64,1.64h-6.21a1.6,1.6,0,0,1-1.64-1.64v0A1.59,1.59,0,0,1,167.73,201.32Z"/><path class="cls-9" d="M173.91,201.32h3.17a1.59,1.59,0,0,1,1.64,1.64v0a1.59,1.59,0,0,1-1.64,1.64h-3.17a1.59,1.59,0,0,1-1.63-1.64v0A1.58,1.58,0,0,1,173.91,201.32Z"/><path class="cls-9" d="M177.06,201.32h6.21A1.58,1.58,0,0,1,184.9,203v0a1.59,1.59,0,0,1-1.63,1.64h-6.21a1.6,1.6,0,0,1-1.64-1.64v0A1.59,1.59,0,0,1,177.06,201.32Z"/><path class="cls-9" d="M183.24,201.32h6.21a1.59,1.59,0,0,1,1.64,1.64v0a1.6,1.6,0,0,1-1.64,1.64h-6.21A1.6,1.6,0,0,1,181.6,203v0A1.59,1.59,0,0,1,183.24,201.32Z"/><path class="cls-9" d="M196,201.32h6.21a1.59,1.59,0,0,1,1.64,1.64v0a1.59,1.59,0,0,1-1.64,1.64H196a1.6,1.6,0,0,1-1.64-1.64v0A1.59,1.59,0,0,1,196,201.32Z"/><path class="cls-9" d="M202.21,201.32h6.2a1.59,1.59,0,0,1,1.64,1.64v0a1.59,1.59,0,0,1-1.64,1.64h-6.2a1.59,1.59,0,0,1-1.64-1.64v0A1.59,1.59,0,0,1,202.21,201.32Z"/><path class="cls-9" d="M215,201.32h6.2a1.59,1.59,0,0,1,1.64,1.64v0a1.59,1.59,0,0,1-1.64,1.64H215a1.59,1.59,0,0,1-1.64-1.64v0A1.59,1.59,0,0,1,215,201.32Z"/><path class="cls-9" d="M221.17,201.32h6.21A1.58,1.58,0,0,1,229,203v0a1.59,1.59,0,0,1-1.63,1.64h-6.21a1.59,1.59,0,0,1-1.64-1.64v0A1.59,1.59,0,0,1,221.17,201.32Z"/></g><g class="cls-6"><path class="cls-9" d="M17.36,221.32h6.21A1.59,1.59,0,0,1,25.21,223v0a1.59,1.59,0,0,1-1.64,1.64H17.36A1.6,1.6,0,0,1,15.72,223v0A1.59,1.59,0,0,1,17.36,221.32Z"/><path class="cls-9" d="M23.55,221.32h6.2A1.59,1.59,0,0,1,31.39,223v0a1.59,1.59,0,0,1-1.64,1.64h-6.2A1.59,1.59,0,0,1,21.91,223v0A1.59,1.59,0,0,1,23.55,221.32Z"/><path class="cls-9" d="M29.73,221.32h6.2A1.59,1.59,0,0,1,37.57,223v0a1.59,1.59,0,0,1-1.64,1.64h-6.2A1.59,1.59,0,0,1,28.09,223v0A1.59,1.59,0,0,1,29.73,221.32Z"/><path class="cls-9" d="M35.91,221.32h3.17A1.59,1.59,0,0,1,40.72,223v0a1.6,1.6,0,0,1-1.64,1.64H35.91A1.59,1.59,0,0,1,34.27,223v0A1.59,1.59,0,0,1,35.91,221.32Z"/><path class="cls-9" d="M39.06,221.32h6.2A1.59,1.59,0,0,1,46.9,223v0a1.59,1.59,0,0,1-1.64,1.64h-6.2A1.59,1.59,0,0,1,37.42,223v0A1.59,1.59,0,0,1,39.06,221.32Z"/><path class="cls-9" d="M51.84,221.32H58A1.59,1.59,0,0,1,59.68,223v0A1.59,1.59,0,0,1,58,224.62h-6.2A1.59,1.59,0,0,1,50.2,223v0A1.59,1.59,0,0,1,51.84,221.32Z"/><path class="cls-9" d="M58,221.32h3.17A1.59,1.59,0,0,1,62.83,223v0a1.6,1.6,0,0,1-1.64,1.64H58A1.59,1.59,0,0,1,56.38,223v0A1.59,1.59,0,0,1,58,221.32Z"/><path class="cls-9" d="M61.17,221.32h3.16A1.59,1.59,0,0,1,66,223v0a1.59,1.59,0,0,1-1.64,1.64H61.17A1.59,1.59,0,0,1,59.53,223v0A1.59,1.59,0,0,1,61.17,221.32Z"/><path class="cls-9" d="M64.31,221.32h6.21A1.59,1.59,0,0,1,72.16,223v0a1.6,1.6,0,0,1-1.64,1.64H64.31A1.6,1.6,0,0,1,62.67,223v0A1.59,1.59,0,0,1,64.31,221.32Z"/><path class="cls-9" d="M77.09,221.32h3.17A1.59,1.59,0,0,1,81.9,223v0a1.59,1.59,0,0,1-1.64,1.64H77.09A1.6,1.6,0,0,1,75.45,223v0A1.59,1.59,0,0,1,77.09,221.32Z"/><path class="cls-9" d="M80.24,221.32h6.2A1.59,1.59,0,0,1,88.08,223v0a1.59,1.59,0,0,1-1.64,1.64h-6.2A1.59,1.59,0,0,1,78.6,223v0A1.59,1.59,0,0,1,80.24,221.32Z"/><path class="cls-9" d="M86.42,221.32h6.21A1.59,1.59,0,0,1,94.27,223v0a1.6,1.6,0,0,1-1.64,1.64H86.42A1.59,1.59,0,0,1,84.78,223v0A1.59,1.59,0,0,1,86.42,221.32Z"/><path class="cls-9" d="M99.2,221.32h6.21a1.59,1.59,0,0,1,1.64,1.64v0a1.6,1.6,0,0,1-1.64,1.64H99.2A1.6,1.6,0,0,1,97.56,223v0A1.59,1.59,0,0,1,99.2,221.32Z"/><path class="cls-9" d="M105.38,221.32h6.21a1.59,1.59,0,0,1,1.64,1.64v0a1.59,1.59,0,0,1-1.64,1.64h-6.21a1.59,1.59,0,0,1-1.63-1.64v0A1.58,1.58,0,0,1,105.38,221.32Z"/><path class="cls-9" d="M111.57,221.32h6.2a1.59,1.59,0,0,1,1.64,1.64v0a1.59,1.59,0,0,1-1.64,1.64h-6.2a1.59,1.59,0,0,1-1.64-1.64v0A1.59,1.59,0,0,1,111.57,221.32Z"/><path class="cls-9" d="M117.75,221.32H124a1.59,1.59,0,0,1,1.64,1.64v0a1.59,1.59,0,0,1-1.64,1.64h-6.2a1.59,1.59,0,0,1-1.64-1.64v0A1.59,1.59,0,0,1,117.75,221.32Z"/><path class="cls-9" d="M123.93,221.32h6.21a1.59,1.59,0,0,1,1.64,1.64v0a1.6,1.6,0,0,1-1.64,1.64h-6.21a1.59,1.59,0,0,1-1.64-1.64v0A1.59,1.59,0,0,1,123.93,221.32Z"/><path class="cls-9" d="M136.71,221.32h3.17a1.59,1.59,0,0,1,1.64,1.64v0a1.59,1.59,0,0,1-1.64,1.64h-3.17a1.6,1.6,0,0,1-1.64-1.64v0A1.59,1.59,0,0,1,136.71,221.32Z"/><path class="cls-9" d="M139.86,221.32h6.2A1.59,1.59,0,0,1,147.7,223v0a1.59,1.59,0,0,1-1.64,1.64h-6.2a1.59,1.59,0,0,1-1.64-1.64v0A1.59,1.59,0,0,1,139.86,221.32Z"/><path class="cls-9" d="M152.64,221.32h6.21a1.58,1.58,0,0,1,1.63,1.64v0a1.59,1.59,0,0,1-1.63,1.64h-6.21A1.6,1.6,0,0,1,151,223v0A1.59,1.59,0,0,1,152.64,221.32Z"/><path class="cls-9" d="M158.82,221.32H162a1.59,1.59,0,0,1,1.64,1.64v0a1.59,1.59,0,0,1-1.64,1.64h-3.17a1.6,1.6,0,0,1-1.64-1.64v0A1.59,1.59,0,0,1,158.82,221.32Z"/><path class="cls-9" d="M162,221.32h6.2a1.59,1.59,0,0,1,1.64,1.64v0a1.59,1.59,0,0,1-1.64,1.64H162a1.59,1.59,0,0,1-1.64-1.64v0A1.59,1.59,0,0,1,162,221.32Z"/><path class="cls-9" d="M174.75,221.32H181a1.58,1.58,0,0,1,1.63,1.64v0a1.59,1.59,0,0,1-1.63,1.64h-6.21a1.59,1.59,0,0,1-1.64-1.64v0A1.59,1.59,0,0,1,174.75,221.32Z"/><path class="cls-9" d="M180.93,221.32h6.21a1.59,1.59,0,0,1,1.64,1.64v0a1.6,1.6,0,0,1-1.64,1.64h-6.21a1.6,1.6,0,0,1-1.64-1.64v0A1.59,1.59,0,0,1,180.93,221.32Z"/><path class="cls-9" d="M187.11,221.32h6.21A1.59,1.59,0,0,1,195,223v0a1.59,1.59,0,0,1-1.64,1.64h-6.21a1.6,1.6,0,0,1-1.64-1.64v0A1.59,1.59,0,0,1,187.11,221.32Z"/><path class="cls-9" d="M199.9,221.32h3.16A1.59,1.59,0,0,1,204.7,223v0a1.59,1.59,0,0,1-1.64,1.64H199.9a1.59,1.59,0,0,1-1.64-1.64v0A1.59,1.59,0,0,1,199.9,221.32Z"/><path class="cls-9" d="M203,221.32h3.17a1.59,1.59,0,0,1,1.64,1.64v0a1.59,1.59,0,0,1-1.64,1.64H203A1.6,1.6,0,0,1,201.4,223v0A1.59,1.59,0,0,1,203,221.32Z"/><path class="cls-9" d="M206.19,221.32h3.17A1.59,1.59,0,0,1,211,223v0a1.6,1.6,0,0,1-1.64,1.64h-3.17a1.59,1.59,0,0,1-1.64-1.64v0A1.59,1.59,0,0,1,206.19,221.32Z"/><path class="cls-9" d="M209.33,221.32h6.21a1.59,1.59,0,0,1,1.64,1.64v0a1.59,1.59,0,0,1-1.64,1.64h-6.21A1.59,1.59,0,0,1,207.7,223v0A1.58,1.58,0,0,1,209.33,221.32Z"/><path class="cls-9" d="M215.52,221.32h3.16a1.59,1.59,0,0,1,1.64,1.64v0a1.59,1.59,0,0,1-1.64,1.64h-3.16a1.59,1.59,0,0,1-1.64-1.64v0A1.59,1.59,0,0,1,215.52,221.32Z"/></g><g class="cls-6"><path class="cls-9" d="M17.36,241.32h3.17A1.59,1.59,0,0,1,22.17,243v0a1.59,1.59,0,0,1-1.64,1.64H17.36A1.6,1.6,0,0,1,15.72,243v0A1.59,1.59,0,0,1,17.36,241.32Z"/><path class="cls-9" d="M20.51,241.32h6.2A1.59,1.59,0,0,1,28.35,243v0a1.59,1.59,0,0,1-1.64,1.64h-6.2A1.59,1.59,0,0,1,18.87,243v0A1.59,1.59,0,0,1,20.51,241.32Z"/><path class="cls-9" d="M26.69,241.32H32.9A1.59,1.59,0,0,1,34.54,243v0a1.6,1.6,0,0,1-1.64,1.64H26.69A1.6,1.6,0,0,1,25.05,243v0A1.59,1.59,0,0,1,26.69,241.32Z"/><path class="cls-9" d="M32.87,241.32H36A1.59,1.59,0,0,1,37.68,243v0A1.59,1.59,0,0,1,36,244.62H32.87A1.6,1.6,0,0,1,31.23,243v0A1.59,1.59,0,0,1,32.87,241.32Z"/><path class="cls-9" d="M36,241.32h6.2A1.59,1.59,0,0,1,43.86,243v0a1.59,1.59,0,0,1-1.64,1.64H36A1.59,1.59,0,0,1,34.38,243v0A1.59,1.59,0,0,1,36,241.32Z"/><path class="cls-9" d="M42.2,241.32h6.21A1.59,1.59,0,0,1,50.05,243v0a1.6,1.6,0,0,1-1.64,1.64H42.2A1.6,1.6,0,0,1,40.56,243v0A1.59,1.59,0,0,1,42.2,241.32Z"/><path class="cls-9" d="M48.38,241.32h3.17A1.59,1.59,0,0,1,53.19,243v0a1.59,1.59,0,0,1-1.64,1.64H48.38A1.6,1.6,0,0,1,46.74,243v0A1.59,1.59,0,0,1,48.38,241.32Z"/><path class="cls-9" d="M51.53,241.32h6.2A1.59,1.59,0,0,1,59.37,243v0a1.59,1.59,0,0,1-1.64,1.64h-6.2A1.59,1.59,0,0,1,49.89,243v0A1.59,1.59,0,0,1,51.53,241.32Z"/><path class="cls-9" d="M57.71,241.32h6.21A1.59,1.59,0,0,1,65.56,243v0a1.6,1.6,0,0,1-1.64,1.64H57.71A1.6,1.6,0,0,1,56.07,243v0A1.59,1.59,0,0,1,57.71,241.32Z"/><path class="cls-9" d="M70.49,241.32h3.17A1.59,1.59,0,0,1,75.3,243v0a1.59,1.59,0,0,1-1.64,1.64H70.49A1.6,1.6,0,0,1,68.85,243v0A1.59,1.59,0,0,1,70.49,241.32Z"/><path class="cls-9" d="M73.64,241.32h6.2A1.59,1.59,0,0,1,81.48,243v0a1.59,1.59,0,0,1-1.64,1.64h-6.2A1.59,1.59,0,0,1,72,243v0A1.59,1.59,0,0,1,73.64,241.32Z"/><path class="cls-9" d="M79.82,241.32H86A1.59,1.59,0,0,1,87.67,243v0A1.6,1.6,0,0,1,86,244.62H79.82A1.6,1.6,0,0,1,78.18,243v0A1.59,1.59,0,0,1,79.82,241.32Z"/><path class="cls-9" d="M92.6,241.32h3.17A1.59,1.59,0,0,1,97.41,243v0a1.59,1.59,0,0,1-1.64,1.64H92.6A1.6,1.6,0,0,1,91,243v0A1.59,1.59,0,0,1,92.6,241.32Z"/><path class="cls-9" d="M95.75,241.32H102a1.59,1.59,0,0,1,1.64,1.64v0a1.59,1.59,0,0,1-1.64,1.64h-6.2A1.59,1.59,0,0,1,94.11,243v0A1.59,1.59,0,0,1,95.75,241.32Z"/><path class="cls-9" d="M101.93,241.32h3.17a1.59,1.59,0,0,1,1.64,1.64v0a1.59,1.59,0,0,1-1.64,1.64h-3.17a1.6,1.6,0,0,1-1.64-1.64v0A1.59,1.59,0,0,1,101.93,241.32Z"/><path class="cls-9" d="M105.08,241.32h3.17a1.58,1.58,0,0,1,1.63,1.64v0a1.59,1.59,0,0,1-1.63,1.64h-3.17a1.59,1.59,0,0,1-1.64-1.64v0A1.59,1.59,0,0,1,105.08,241.32Z"/><path class="cls-9" d="M108.22,241.32h6.21a1.59,1.59,0,0,1,1.64,1.64v0a1.6,1.6,0,0,1-1.64,1.64h-6.21a1.6,1.6,0,0,1-1.64-1.64v0A1.59,1.59,0,0,1,108.22,241.32Z"/><path class="cls-9" d="M114.4,241.32h6.21a1.59,1.59,0,0,1,1.64,1.64v0a1.59,1.59,0,0,1-1.64,1.64H114.4a1.59,1.59,0,0,1-1.63-1.64v0A1.58,1.58,0,0,1,114.4,241.32Z"/><path class="cls-9" d="M120.59,241.32h3.17a1.58,1.58,0,0,1,1.63,1.64v0a1.59,1.59,0,0,1-1.63,1.64h-3.17A1.59,1.59,0,0,1,119,243v0A1.59,1.59,0,0,1,120.59,241.32Z"/><path class="cls-9" d="M123.73,241.32h3.17a1.59,1.59,0,0,1,1.64,1.64v0a1.59,1.59,0,0,1-1.64,1.64h-3.17a1.6,1.6,0,0,1-1.64-1.64v0A1.59,1.59,0,0,1,123.73,241.32Z"/><path class="cls-9" d="M126.88,241.32h3.17a1.59,1.59,0,0,1,1.64,1.64v0a1.6,1.6,0,0,1-1.64,1.64h-3.17a1.59,1.59,0,0,1-1.64-1.64v0A1.59,1.59,0,0,1,126.88,241.32Z"/><path class="cls-9" d="M130,241.32h6.21a1.59,1.59,0,0,1,1.64,1.64v0a1.59,1.59,0,0,1-1.64,1.64H130a1.6,1.6,0,0,1-1.64-1.64v0A1.59,1.59,0,0,1,130,241.32Z"/><path class="cls-9" d="M142.81,241.32H149a1.59,1.59,0,0,1,1.64,1.64v0a1.59,1.59,0,0,1-1.64,1.64h-6.2a1.59,1.59,0,0,1-1.64-1.64v0A1.59,1.59,0,0,1,142.81,241.32Z"/><path class="cls-9" d="M149,241.32h3.17A1.59,1.59,0,0,1,153.8,243v0a1.6,1.6,0,0,1-1.64,1.64H149a1.59,1.59,0,0,1-1.64-1.64v0A1.59,1.59,0,0,1,149,241.32Z"/><path class="cls-9" d="M158.73,241.32h6.21a1.59,1.59,0,0,1,1.64,1.64v0a1.59,1.59,0,0,1-1.64,1.64h-6.21A1.59,1.59,0,0,1,157.1,243v0A1.58,1.58,0,0,1,158.73,241.32Z"/><path class="cls-9" d="M164.92,241.32h3.16a1.59,1.59,0,0,1,1.64,1.64v0a1.59,1.59,0,0,1-1.64,1.64h-3.16a1.59,1.59,0,0,1-1.64-1.64v0A1.59,1.59,0,0,1,164.92,241.32Z"/><path class="cls-9" d="M168.06,241.32h6.21a1.59,1.59,0,0,1,1.64,1.64v0a1.6,1.6,0,0,1-1.64,1.64h-6.21a1.6,1.6,0,0,1-1.64-1.64v0A1.59,1.59,0,0,1,168.06,241.32Z"/><path class="cls-9" d="M180.84,241.32h6.21a1.59,1.59,0,0,1,1.64,1.64v0a1.59,1.59,0,0,1-1.64,1.64h-6.21a1.59,1.59,0,0,1-1.63-1.64v0A1.58,1.58,0,0,1,180.84,241.32Z"/><path class="cls-9" d="M187,241.32h3.16a1.59,1.59,0,0,1,1.64,1.64v0a1.59,1.59,0,0,1-1.64,1.64H187a1.59,1.59,0,0,1-1.64-1.64v0A1.59,1.59,0,0,1,187,241.32Z"/><path class="cls-9" d="M190.17,241.32h3.17A1.59,1.59,0,0,1,195,243v0a1.59,1.59,0,0,1-1.64,1.64h-3.17a1.6,1.6,0,0,1-1.64-1.64v0A1.59,1.59,0,0,1,190.17,241.32Z"/><path class="cls-9" d="M193.32,241.32h6.2a1.59,1.59,0,0,1,1.64,1.64v0a1.59,1.59,0,0,1-1.64,1.64h-6.2a1.59,1.59,0,0,1-1.64-1.64v0A1.59,1.59,0,0,1,193.32,241.32Z"/><path class="cls-9" d="M206.1,241.32h3.17a1.59,1.59,0,0,1,1.64,1.64v0a1.6,1.6,0,0,1-1.64,1.64H206.1a1.59,1.59,0,0,1-1.64-1.64v0A1.59,1.59,0,0,1,206.1,241.32Z"/><path class="cls-9" d="M209.25,241.32h6.2a1.59,1.59,0,0,1,1.64,1.64v0a1.59,1.59,0,0,1-1.64,1.64h-6.2a1.59,1.59,0,0,1-1.64-1.64v0A1.59,1.59,0,0,1,209.25,241.32Z"/><path class="cls-9" d="M215.43,241.32h3.17a1.59,1.59,0,0,1,1.64,1.64v0a1.6,1.6,0,0,1-1.64,1.64h-3.17a1.59,1.59,0,0,1-1.64-1.64v0A1.59,1.59,0,0,1,215.43,241.32Z"/><path class="cls-9" d="M218.57,241.32h6.21a1.59,1.59,0,0,1,1.64,1.64v0a1.6,1.6,0,0,1-1.64,1.64h-6.21a1.6,1.6,0,0,1-1.64-1.64v0A1.59,1.59,0,0,1,218.57,241.32Z"/><path class="cls-9" d="M224.76,241.32H231A1.59,1.59,0,0,1,232.6,243v0a1.59,1.59,0,0,1-1.64,1.64h-6.2a1.59,1.59,0,0,1-1.64-1.64v0A1.59,1.59,0,0,1,224.76,241.32Z"/><path class="cls-9" d="M230.94,241.32h6.2a1.59,1.59,0,0,1,1.64,1.64v0a1.59,1.59,0,0,1-1.64,1.64h-6.2A1.59,1.59,0,0,1,229.3,243v0A1.59,1.59,0,0,1,230.94,241.32Z"/></g><g class="cls-6"><path class="cls-9" d="M17.36,261.32h6.21A1.59,1.59,0,0,1,25.21,263v0a1.59,1.59,0,0,1-1.64,1.64H17.36A1.6,1.6,0,0,1,15.72,263v0A1.59,1.59,0,0,1,17.36,261.32Z"/><path class="cls-9" d="M23.55,261.32h6.2A1.59,1.59,0,0,1,31.39,263v0a1.59,1.59,0,0,1-1.64,1.64h-6.2A1.59,1.59,0,0,1,21.91,263v0A1.59,1.59,0,0,1,23.55,261.32Z"/><path class="cls-9" d="M29.73,261.32h6.2A1.59,1.59,0,0,1,37.57,263v0a1.59,1.59,0,0,1-1.64,1.64h-6.2A1.59,1.59,0,0,1,28.09,263v0A1.59,1.59,0,0,1,29.73,261.32Z"/><path class="cls-9" d="M35.91,261.32h6.21A1.58,1.58,0,0,1,43.75,263v0a1.59,1.59,0,0,1-1.63,1.64H35.91A1.59,1.59,0,0,1,34.27,263v0A1.59,1.59,0,0,1,35.91,261.32Z"/><path class="cls-9" d="M42.09,261.32h3.17A1.59,1.59,0,0,1,46.9,263v0a1.59,1.59,0,0,1-1.64,1.64H42.09A1.6,1.6,0,0,1,40.45,263v0A1.59,1.59,0,0,1,42.09,261.32Z"/><path class="cls-9" d="M45.24,261.32h6.2A1.59,1.59,0,0,1,53.08,263v0a1.59,1.59,0,0,1-1.64,1.64h-6.2A1.59,1.59,0,0,1,43.6,263v0A1.59,1.59,0,0,1,45.24,261.32Z"/><path class="cls-9" d="M51.42,261.32h3.17A1.59,1.59,0,0,1,56.23,263v0a1.6,1.6,0,0,1-1.64,1.64H51.42A1.59,1.59,0,0,1,49.78,263v0A1.59,1.59,0,0,1,51.42,261.32Z"/><path class="cls-9" d="M61.17,261.32h6.2A1.59,1.59,0,0,1,69,263v0a1.59,1.59,0,0,1-1.64,1.64h-6.2A1.59,1.59,0,0,1,59.53,263v0A1.59,1.59,0,0,1,61.17,261.32Z"/><path class="cls-9" d="M67.35,261.32h6.2A1.59,1.59,0,0,1,75.19,263v0a1.59,1.59,0,0,1-1.64,1.64h-6.2A1.59,1.59,0,0,1,65.71,263v0A1.59,1.59,0,0,1,67.35,261.32Z"/><path class="cls-9" d="M73.53,261.32h6.2A1.59,1.59,0,0,1,81.37,263v0a1.59,1.59,0,0,1-1.64,1.64h-6.2A1.59,1.59,0,0,1,71.89,263v0A1.59,1.59,0,0,1,73.53,261.32Z"/><path class="cls-9" d="M86.31,261.32h3.17A1.59,1.59,0,0,1,91.12,263v0a1.59,1.59,0,0,1-1.64,1.64H86.31A1.6,1.6,0,0,1,84.67,263v0A1.59,1.59,0,0,1,86.31,261.32Z"/><path class="cls-9" d="M89.46,261.32h6.2A1.59,1.59,0,0,1,97.3,263v0a1.59,1.59,0,0,1-1.64,1.64h-6.2A1.59,1.59,0,0,1,87.82,263v0A1.59,1.59,0,0,1,89.46,261.32Z"/><path class="cls-9" d="M95.64,261.32h6.2a1.59,1.59,0,0,1,1.64,1.64v0a1.59,1.59,0,0,1-1.64,1.64h-6.2A1.59,1.59,0,0,1,94,263v0A1.59,1.59,0,0,1,95.64,261.32Z"/><path class="cls-9" d="M108.42,261.32h6.21a1.59,1.59,0,0,1,1.64,1.64v0a1.6,1.6,0,0,1-1.64,1.64h-6.21a1.59,1.59,0,0,1-1.64-1.64v0A1.59,1.59,0,0,1,108.42,261.32Z"/><path class="cls-9" d="M114.6,261.32h6.21a1.59,1.59,0,0,1,1.64,1.64v0a1.6,1.6,0,0,1-1.64,1.64H114.6A1.6,1.6,0,0,1,113,263v0A1.59,1.59,0,0,1,114.6,261.32Z"/><path class="cls-9" d="M120.79,261.32H127a1.59,1.59,0,0,1,1.64,1.64v0a1.59,1.59,0,0,1-1.64,1.64h-6.2a1.59,1.59,0,0,1-1.64-1.64v0A1.59,1.59,0,0,1,120.79,261.32Z"/><path class="cls-9" d="M127,261.32h3.16a1.59,1.59,0,0,1,1.65,1.64v0a1.6,1.6,0,0,1-1.65,1.64H127a1.59,1.59,0,0,1-1.64-1.64v0A1.59,1.59,0,0,1,127,261.32Z"/><path class="cls-9" d="M130.11,261.32h6.21A1.59,1.59,0,0,1,138,263v0a1.6,1.6,0,0,1-1.64,1.64h-6.21a1.6,1.6,0,0,1-1.64-1.64v0A1.59,1.59,0,0,1,130.11,261.32Z"/><path class="cls-9" d="M136.29,261.32h3.17A1.59,1.59,0,0,1,141.1,263v0a1.59,1.59,0,0,1-1.64,1.64h-3.17a1.59,1.59,0,0,1-1.63-1.64v0A1.58,1.58,0,0,1,136.29,261.32Z"/><path class="cls-9" d="M146,261.32h6.21a1.58,1.58,0,0,1,1.63,1.64v0a1.59,1.59,0,0,1-1.63,1.64H146A1.59,1.59,0,0,1,144.4,263v0A1.59,1.59,0,0,1,146,261.32Z"/><path class="cls-9" d="M152.22,261.32h6.21a1.59,1.59,0,0,1,1.64,1.64v0a1.6,1.6,0,0,1-1.64,1.64h-6.21a1.6,1.6,0,0,1-1.64-1.64v0A1.59,1.59,0,0,1,152.22,261.32Z"/><path class="cls-9" d="M158.4,261.32h6.21a1.59,1.59,0,0,1,1.64,1.64v0a1.59,1.59,0,0,1-1.64,1.64H158.4a1.59,1.59,0,0,1-1.63-1.64v0A1.58,1.58,0,0,1,158.4,261.32Z"/><path class="cls-9" d="M164.59,261.32h3.16a1.59,1.59,0,0,1,1.64,1.64v0a1.59,1.59,0,0,1-1.64,1.64h-3.16A1.59,1.59,0,0,1,163,263v0A1.59,1.59,0,0,1,164.59,261.32Z"/><path class="cls-9" d="M167.73,261.32h3.17a1.59,1.59,0,0,1,1.64,1.64v0a1.59,1.59,0,0,1-1.64,1.64h-3.17a1.6,1.6,0,0,1-1.64-1.64v0A1.59,1.59,0,0,1,167.73,261.32Z"/><path class="cls-9" d="M170.88,261.32h6.2a1.59,1.59,0,0,1,1.64,1.64v0a1.59,1.59,0,0,1-1.64,1.64h-6.2a1.59,1.59,0,0,1-1.64-1.64v0A1.59,1.59,0,0,1,170.88,261.32Z"/><path class="cls-9" d="M183.66,261.32h6.21A1.58,1.58,0,0,1,191.5,263v0a1.59,1.59,0,0,1-1.63,1.64h-6.21A1.59,1.59,0,0,1,182,263v0A1.59,1.59,0,0,1,183.66,261.32Z"/><path class="cls-9" d="M189.84,261.32H193a1.59,1.59,0,0,1,1.64,1.64v0a1.59,1.59,0,0,1-1.64,1.64h-3.17A1.6,1.6,0,0,1,188.2,263v0A1.59,1.59,0,0,1,189.84,261.32Z"/><path class="cls-9" d="M199.59,261.32h6.2a1.59,1.59,0,0,1,1.64,1.64v0a1.59,1.59,0,0,1-1.64,1.64h-6.2A1.59,1.59,0,0,1,198,263v0A1.59,1.59,0,0,1,199.59,261.32Z"/><path class="cls-9" d="M205.77,261.32h3.17a1.59,1.59,0,0,1,1.64,1.64v0a1.6,1.6,0,0,1-1.64,1.64h-3.17a1.59,1.59,0,0,1-1.64-1.64v0A1.59,1.59,0,0,1,205.77,261.32Z"/><path class="cls-9" d="M208.92,261.32h6.2a1.59,1.59,0,0,1,1.64,1.64v0a1.59,1.59,0,0,1-1.64,1.64h-6.2a1.59,1.59,0,0,1-1.64-1.64v0A1.59,1.59,0,0,1,208.92,261.32Z"/></g></g></g></g></g></svg>